<svg width="238" height="40" viewBox="0 0 238 40" fill="none" xmlns="http://www.w3.org/2000/svg">
<path fill-rule="evenodd" clip-rule="evenodd" d="M12.2422 0.0734279C4.28439 0.900987 -1.05185 9.51555 1.40143 17.5741C3.59032 24.7643 10.9009 28.8265 16.678 26.0629L17.2658 25.7816L16.7358 26.5958C15.7509 28.1086 13.5572 31.4281 11.9841 33.7858C11.6272 34.3208 10.7924 35.5808 10.129 36.586C9.46562 37.5911 8.81044 38.5824 8.67307 38.7887C8.53564 38.9952 8.42322 39.1875 8.42322 39.2161C8.42322 39.2754 12.0501 39.2773 12.5159 39.2182L12.8186 39.1798L18.1616 31.0151C24.4476 21.4091 24.5491 21.2455 25.3477 19.4311C29.6523 9.65185 22.449 -0.987992 12.2422 0.0734279ZM69.5555 0.0717183C54.3849 1.22687 46.0534 19.0411 54.9043 31.3982C63.7433 43.7387 82.3629 42.3778 89.1821 28.8928C96.2106 14.994 85.2357 -1.12222 69.5555 0.0717183ZM30.3533 2.36451V4.13323H34.6929H39.0326L39.0471 21.686L39.0617 39.2388H40.9422H42.8228L42.8374 21.686L42.8519 4.13323H47.1635H51.475L51.4597 2.37943L51.4444 0.625625L40.8988 0.610711L30.3533 0.595855V2.36451ZM101.707 0.699138C101.677 0.755967 101.613 1.0545 101.564 1.36252C101.515 1.67054 101.328 2.73166 101.149 3.72057C100.97 4.70948 100.786 5.73081 100.742 5.9902C100.697 6.24959 100.593 6.83321 100.51 7.28713C100.428 7.74106 100.296 8.47058 100.218 8.90829C99.9844 10.2146 99.8617 10.8897 99.6716 11.9148C99.5724 12.4498 99.4691 13.0202 99.442 13.1823C99.4149 13.3444 99.3003 13.9811 99.1875 14.5971C99.0746 15.2131 98.9663 15.81 98.9468 15.9235C98.9273 16.037 98.8504 16.4614 98.7759 16.8667C98.46 18.5842 98.342 19.2658 98.3281 19.4515L98.3134 19.6488L99.4996 20.0834C100.152 20.3225 100.819 20.5612 100.982 20.6139L101.278 20.7098L102.023 19.9497C108.934 12.9043 119.666 18.4186 118.052 28.1854C116.246 39.1156 101.073 38.5815 100.048 27.5517L100.009 27.1243H98.126H96.2434L96.284 27.6401C97.1671 38.8403 110.73 44.0463 118.189 36.0479C128.263 25.2458 116.695 7.89692 103.724 14.353C103.326 14.5511 102.981 14.7223 102.957 14.7335C102.934 14.7448 102.927 14.6789 102.942 14.5871C102.957 14.4954 103.021 14.1152 103.085 13.7423C103.382 12.0144 103.574 10.9139 103.761 9.88099C103.873 9.26495 103.986 8.62827 104.013 8.46616C104.057 8.20524 104.415 6.20254 104.69 4.67853L104.788 4.13323H111.837H118.885L118.87 2.37943L118.855 0.625625L110.308 0.610711C102.212 0.596562 101.758 0.60122 101.707 0.699138ZM128.297 0.693891C128.275 0.715762 128.258 9.41722 128.258 20.0305V39.3272H130.167H132.076L132.08 22.1576C132.083 11.852 132.105 5.03519 132.137 5.10593C132.166 5.17078 132.492 5.95336 132.862 6.845C133.623 8.67962 135.29 12.6829 135.893 14.1255C136.015 14.4173 136.29 15.0805 136.504 15.5993C136.718 16.118 136.965 16.7149 137.054 16.9257C137.216 17.3131 138.193 19.668 138.888 21.347C139.096 21.8496 139.455 22.7118 139.685 23.263C139.915 23.8142 140.273 24.6763 140.481 25.1789C140.689 25.6814 141.046 26.5436 141.275 27.0948C141.503 27.646 141.861 28.5082 142.069 29.0107C142.277 29.5133 142.559 30.1897 142.695 30.514C142.831 30.8382 143.118 31.5279 143.333 32.0467C143.547 32.5655 143.911 33.4409 144.141 33.9921C144.372 34.5433 144.853 35.6973 145.21 36.5565C145.567 37.4157 145.972 38.384 146.109 38.7082L146.359 39.2977L147.97 39.3134L149.581 39.329L149.978 38.3701C150.196 37.8428 150.447 37.2389 150.536 37.0281C150.709 36.6164 151.753 34.0998 152.37 32.6067C152.578 32.1042 152.82 31.5206 152.908 31.3098C152.997 31.0991 153.284 30.4093 153.545 29.7771C154.321 27.9059 154.818 26.7072 154.989 26.299C155.078 26.0882 155.32 25.5046 155.527 25.002C156.107 23.5989 157.182 21.0088 157.361 20.5807C157.45 20.3699 157.697 19.773 157.912 19.2543C158.126 18.7355 158.412 18.0458 158.549 17.7215C158.782 17.1678 159.103 16.395 160.007 14.2139C160.215 13.7114 160.496 13.0349 160.631 12.7107C160.957 11.9282 161.621 10.3303 161.818 9.85152C161.905 9.64076 162.114 9.13673 162.281 8.73144C162.667 7.79482 163.567 5.65553 163.713 5.32753C163.862 4.99286 163.901 9.47741 163.901 26.8098V39.3272H165.782H167.662L167.648 20.0059L167.633 0.684577L164.723 0.669308L161.812 0.653981L161.706 0.905114C161.647 1.04318 160.838 2.97336 159.907 5.19436C158.977 7.41535 157.558 10.7977 156.756 12.7107C155.953 14.6236 154.769 17.4489 154.124 18.989C153.479 20.5291 152.839 22.0545 152.701 22.3787C152.562 22.7029 151.783 24.5599 150.968 26.5053C148.942 31.3434 148.736 31.8337 148.309 32.8131C148.239 32.9752 148.144 33.194 148.1 33.2994C147.98 33.5826 148.024 33.6658 146.976 31.1772C146.441 29.9045 145.867 28.545 145.701 28.1559C145.379 27.4 144.675 25.7294 144.372 25.002C144.271 24.7588 142.852 21.3898 141.219 17.5152C139.586 13.6406 138.178 10.2981 138.091 10.0873C138.005 9.87657 137.765 9.30622 137.559 8.81987C137.353 8.33352 136.793 7.00711 136.313 5.8723C135.834 4.73748 135.144 3.106 134.78 2.24679L134.12 0.684577L131.228 0.669308C129.637 0.660878 128.318 0.671961 128.297 0.693891ZM15.6194 3.89359C19.8939 4.93591 22.785 8.84274 22.7985 13.5949C22.8269 23.6336 10.3222 26.7524 5.66194 17.8689C2.5952 12.023 6.23131 4.61752 12.5894 3.76025C13.1549 3.68396 15.1132 3.77015 15.6194 3.89359ZM73.7801 3.88858C83.1451 5.54005 89.1207 14.2011 87.1711 23.2977C84.4302 36.0866 68.7501 40.5827 59.6377 31.1925C58.7804 30.3091 57.086 28.0657 57.086 27.8141C57.086 27.8003 56.98 27.5931 56.8504 27.3535C54.4049 22.8325 54.5005 16.7861 57.0911 12.1285C58.4978 9.59944 60.2691 7.74459 62.8888 6.05729C64.5032 5.01744 66.9279 4.14797 68.9769 3.8742C69.3588 3.82321 69.7363 3.76997 69.8159 3.756C70.2693 3.6763 73.1162 3.77151 73.7801 3.88858ZM70.7661 5.80851C70.4914 5.93042 70.1561 6.2589 70.0395 6.52023C69.9398 6.74389 69.9341 7.08334 69.9329 12.8433L69.9316 18.93L66.0693 18.932C62.5356 18.9337 62.1818 18.9427 61.9123 19.0376C60.711 19.4607 60.5691 21.0543 61.6789 21.6591L61.9176 21.7892L66.7491 21.8057C72.2124 21.8244 71.8628 21.8529 72.3231 21.3517C72.7377 20.9001 72.7164 21.3349 72.6973 13.6834L72.6801 6.75657L72.555 6.52076C72.2009 5.85337 71.3914 5.53115 70.7661 5.80851ZM187.856 10.1208C187.745 10.1335 187.341 10.1731 186.96 10.2088C174.149 11.404 168.909 28.263 178.859 36.2715C185.737 41.8084 195.508 40.9886 199.19 34.5658C199.7 33.6762 199.718 33.7747 199.718 37.3616V39.3272H201.512H203.306V25.0315V10.7358H201.512H199.718L199.712 12.9022C199.708 14.0938 199.689 15.3207 199.668 15.6288L199.632 16.1888L199.521 16.0119C198.016 13.6131 196.857 12.5174 194.713 11.467C192.783 10.5211 189.682 9.91224 187.856 10.1208ZM223.182 10.1216C223.054 10.1344 222.664 10.173 222.314 10.2075C213.286 11.0981 207.043 19.8761 209.214 28.6275C212.173 40.5565 227.969 44.0656 235.603 34.4898C236.362 33.5374 237.734 31.2845 237.734 30.9901C237.734 30.9714 236.798 30.9561 235.655 30.9561H233.575L233.301 31.3246C226.497 40.4669 212.614 36.208 212.595 24.9725C212.577 13.9957 226.948 9.6568 233.146 18.7679L233.577 19.4016H235.688H237.8L237.763 19.269C236.328 14.174 228.951 9.54568 223.182 10.1216ZM190.787 14.0042C200.508 15.9635 202.925 28.9653 194.597 34.502C187.424 39.2715 177.493 33.8467 177.476 25.1494C177.463 18.071 183.962 12.6287 190.787 14.0042Z" fill="#F3E6D4"/>
</svg>
