<svg width="238" height="46" viewBox="0 0 238 46" fill="none" xmlns="http://www.w3.org/2000/svg">
<path fill-rule="evenodd" clip-rule="evenodd" d="M0.874024 0.548956C0.406897 1.0133 0.400024 1.33418 0.400024 22.8935V44.7668L0.896539 45.2135L1.39329 45.6604L0.837289 45.8157C0.531559 45.901 4.55132 45.9813 9.77006 45.9943C18.6528 46.0164 19.2593 45.9914 19.2719 45.6055C19.2792 45.3787 19.416 43.8005 19.5759 42.0978C20.1767 35.699 19.3034 33.5374 15.6351 32.3465C12.1635 31.2192 9.94307 29.6097 8.94316 27.4948C8.28099 26.0947 8.09755 26.131 11.9163 26.9072C19.9708 28.5448 21.5016 31.6834 20.719 44.9577L20.6635 45.9L33.106 45.9321C39.9494 45.9497 45.2286 45.8868 44.8375 45.7924C44.2737 45.6562 44.209 45.5846 44.5247 45.447C45.3987 45.0658 45.43 44.2806 45.43 22.7653C45.43 0.406896 45.4412 0.639187 44.3529 0.224077C43.152 -0.23391 1.34731 0.0784825 0.874024 0.548956ZM47.8173 0.698555C47.3284 1.31627 47.326 1.42323 47.326 22.9724V44.6257L47.8943 45.1907L48.4627 45.7556L47.8351 45.8515C47.49 45.904 90.0275 45.9526 142.363 45.9589C194.699 45.9655 237.275 45.9019 236.977 45.8176L236.435 45.6644L236.918 45.2545C237.396 44.8476 237.4 44.6806 237.4 22.8278V0.811167L236.873 0.444589C236.399 0.114057 227.039 0.0777758 142.327 0.0777758H48.3084L47.8173 0.698555ZM24.3138 7.41617C25.4851 10.7564 22.3159 15.5167 20.7147 12.8223C19.9243 11.4923 20.1822 10.7832 22.2358 8.63841C23.0003 7.83976 23.626 7.07103 23.626 6.93038C23.626 6.39536 24.0645 6.70516 24.3138 7.41617ZM17.7344 10.4449C21.4079 14.0299 21.0285 17.3258 17.2763 14.4236C14.3773 12.181 13.8412 11.1484 14.4103 8.90227L14.6745 7.85884L15.4175 8.38397C15.8261 8.6728 16.8687 9.60032 17.7344 10.4449ZM28.3148 13.3818C28.1238 16.3396 26.8262 17.6384 23.1352 18.5666C22.2972 18.7775 21.425 19.0044 21.1968 19.071C20.2789 19.3394 20.8806 16.5392 22.0175 15.2521C22.4896 14.7176 23.6246 14.0047 25.1869 13.2612C26.5257 12.6241 27.6882 11.9946 27.7704 11.8622C28.2132 11.15 28.4212 11.7312 28.3148 13.3818ZM74.3701 21.5871C77.1586 30.6995 77.3892 31.2979 78.2659 31.6949C79.6986 32.3437 78.9473 32.5892 75.529 32.5892C72.0018 32.5892 71.3502 32.3439 72.9813 31.6303C73.9475 31.2077 74.1016 29.9183 73.4437 27.7596L73.0128 26.3461L69.6858 26.2808L66.3588 26.2158L65.8319 27.9803C65.1607 30.2276 65.2354 30.9137 66.2175 31.5257C67.631 32.4066 67.2561 32.5892 64.0345 32.5892C60.7824 32.5892 60.6184 32.4994 61.8717 31.4058C62.8275 30.5716 62.8443 30.5325 66.5289 20.7397L69.4358 13.0131L70.6125 13.0831L71.7892 13.153L74.3701 21.5871ZM90.3415 13.3533L91.5265 13.6263L91.5953 15.5688L91.6642 17.5114H90.9416C90.32 17.5114 90.1664 17.38 89.8396 16.5681C88.4787 13.1874 83.3472 13.7967 83.3517 17.3385C83.354 19.2878 83.9717 19.9865 87.2112 21.7056C96.2118 26.4818 91.505 35.311 81.5133 32.3939L80.506 32.0999V30.1063V28.113L81.1578 28.1139C81.7093 28.1146 81.9008 28.3036 82.402 29.3421C84.1399 32.9419 89.271 32.1475 89.2741 28.2779C89.2757 26.2506 88.428 25.268 85.2659 23.6328C76.801 19.255 80.8001 11.1559 90.3415 13.3533ZM130.459 13.3947C137.247 15.3984 137.651 29.241 131.008 32.1896C126.238 34.3069 121.397 31.7232 120.3 26.474C118.509 17.9101 123.592 11.3672 130.459 13.3947ZM176.017 13.3523L177.321 13.6242L177.389 15.5678L177.458 17.5114H176.736C176.114 17.5114 175.96 17.38 175.634 16.5681C174.283 13.2122 169.144 13.7931 169.144 17.302C169.144 19.3259 169.647 19.8702 173.487 22.0037C182.063 26.7689 176.931 35.2064 167.189 32.356L166.3 32.0959V30.1044V28.113L166.952 28.1139C167.503 28.1146 167.695 28.3036 168.196 29.3421C169.934 32.9419 175.065 32.1475 175.068 28.2779C175.07 26.249 174.326 25.3865 171.09 23.6601C162.636 19.1511 166.369 11.3409 176.017 13.3523ZM190.866 13.3863C194.872 14.5689 196.948 19.5003 195.939 25.4397C194.333 34.8959 182.662 35.6898 180.735 26.474C178.948 17.9284 184.027 11.3675 190.866 13.3863ZM108.946 13.6084C108.946 13.7941 108.733 14.0132 108.472 14.0954C107.177 14.5041 107.263 14.9492 109.493 19.3328C111.532 23.3428 111.102 23.2862 113.028 19.7964C115.307 15.6677 115.594 14.473 114.397 14.0951C112.953 13.64 113.962 13.2708 116.649 13.2708C119.77 13.2708 119.851 13.3441 118.309 14.764C117.591 15.4253 116.388 17.2019 114.614 20.2207L111.985 24.6969L112.087 27.7398C112.194 30.9278 112.593 31.8824 113.818 31.8824C114.006 31.8824 114.16 32.0414 114.16 32.2358C114.16 32.5331 113.633 32.5892 110.842 32.5892C107.396 32.5892 106.509 32.2803 108.236 31.6817C109.23 31.3373 109.42 30.6432 109.42 27.3579V24.5134L106.928 19.8935C105.313 16.898 104.146 15.0161 103.61 14.5416C102.279 13.3627 102.442 13.2708 105.865 13.2708C108.381 13.2708 108.946 13.3328 108.946 13.6084ZM143.785 13.6112C143.785 13.7985 143.495 14.0902 143.14 14.2594C142.21 14.7023 142.094 15.7167 142.175 22.6944C142.265 30.4823 142.703 31.4586 146.124 31.5048C149.669 31.5528 150.046 30.6762 150.141 22.1789C150.221 14.9949 150.171 14.6113 149.103 14.2078C147.574 13.6299 148.443 13.2708 151.369 13.2708C154.379 13.2708 155.028 13.5618 153.571 14.2591C152.655 14.6983 152.604 15.0801 152.578 21.7681C152.541 31.0915 151.497 32.8248 145.918 32.8248C140.432 32.8248 139.519 31.2572 139.519 21.8425C139.519 15.2988 139.419 14.5783 138.457 14.2148C136.887 13.6216 137.766 13.2708 140.823 13.2708C143.248 13.2708 143.785 13.3325 143.785 13.6112ZM203.509 13.5863C203.509 13.7599 203.241 14.0235 202.913 14.1719C201.648 14.7449 201.667 15.0566 203.395 22.022C204.275 25.5665 205.061 28.5938 205.143 28.7498C205.226 28.9057 206.297 25.4866 207.524 21.152L209.754 13.2708H211.016C211.71 13.2708 212.278 13.3137 212.278 13.366C212.278 13.5776 215.843 28.9086 215.907 28.9722C215.995 29.0596 219.575 17.413 219.771 16.4011C219.994 15.2495 219.719 14.5447 218.917 14.2144C217.356 13.5717 218.035 13.2708 221.047 13.2708C223.972 13.2708 224.669 13.5472 223.419 14.2118C222.656 14.6177 222.273 15.5549 219.277 24.3435L216.426 32.707H215.367H214.308L212.384 24.9325L210.459 17.1581L210.031 18.5716C209.795 19.349 208.781 22.8475 207.777 26.3461L205.951 32.707L204.773 32.7767L203.596 32.8465L201.745 25.9446C198.798 14.9616 198.847 15.1131 198.053 14.4316C196.831 13.3825 197.06 13.2708 200.428 13.2708C202.845 13.2708 203.509 13.3389 203.509 13.5863ZM11.02 15.1631C12.8949 16.4077 15.6067 20.5741 14.5418 20.5741C12.2199 20.5741 9.56813 17.9327 9.04294 15.0966C8.82632 13.9269 9.17542 13.9385 11.02 15.1631ZM16.4046 15.3322C19.1524 17.2125 20.5173 19.5436 20.1623 21.7506C19.8357 23.7807 16.1302 20.8121 15.0118 17.6245C13.8685 14.3656 14.1984 13.8226 16.4046 15.3322ZM126.79 14.5055C121.575 15.565 121.676 29.9972 126.907 31.3976C130.52 32.3647 132.528 29.4243 132.528 23.1656C132.528 16.681 130.577 13.7363 126.79 14.5055ZM187.225 14.5055C182.014 15.5643 182.115 29.9984 187.342 31.3976C190.984 32.3722 192.963 29.4321 192.963 23.0478C192.963 16.5608 191.059 13.7267 187.225 14.5055ZM68.4754 20.2928C67.6613 22.5856 66.9956 24.594 66.9961 24.7558C66.9968 24.9752 67.7294 25.0503 69.8664 25.0503C72.0629 25.0503 72.7099 24.9813 72.6251 24.7558C72.5644 24.594 72.0063 22.7121 71.3853 20.5741C70.7641 18.4361 70.1885 16.5604 70.1058 16.4056C70.0233 16.251 69.2895 18.0003 68.4754 20.2928ZM28.4909 19.1424C26.2141 25.5573 20.3841 28.6459 21.4643 22.8647C21.9146 20.4544 21.885 20.4836 24.8542 19.5384C26.3295 19.0687 27.8029 18.5351 28.1285 18.3527C28.895 17.9237 28.9111 17.9586 28.4909 19.1424ZM8.00962 19.5347C9.42309 20.2365 10.9961 21.9912 12.123 24.123L13.0205 25.8207L12.1152 25.6518C9.33943 25.1342 6.47647 22.2866 5.76049 19.3314C5.57113 18.5502 6.12831 18.6006 8.00962 19.5347ZM33.5743 19.6515C32.7849 22.3879 27.418 25.8534 27.418 23.6269C27.418 22.288 29.2842 20.6441 32.1206 19.4845C33.826 18.7872 33.8239 18.7869 33.5743 19.6515ZM15.856 22.1453C19.5015 23.2707 21.9227 26.6674 20.5796 28.7724C19.7743 30.0342 14.5302 26.1623 13.1679 23.2999C12.0827 21.0196 12.1363 20.9968 15.856 22.1453ZM32.823 24.5202C32.1554 26.9303 30.5182 29.0221 28.2615 30.3483C26.3342 31.4807 26.3084 31.4282 27.7854 29.3819C28.5748 28.288 29.1363 27.2394 29.2237 26.6945C29.35 25.9102 29.4889 25.7547 30.3578 25.4249C30.9026 25.2181 31.717 24.7356 32.1677 24.3525C32.6188 23.9694 33.0055 23.6516 33.0276 23.6464C33.0499 23.641 32.9577 24.0345 32.823 24.5202ZM27.655 26.1821C27.655 27.6892 26.6637 29.2306 23.996 31.8704C21.256 34.5823 21.2108 34.5936 21.0664 32.6092C20.8761 29.9935 21.708 28.8042 25.285 26.5795C27.7242 25.0623 27.655 25.0741 27.655 26.1821Z" fill="#F3E6D4"/>
</svg>
