<svg width="1564" height="208" viewBox="0 0 1564 208" fill="none" xmlns="http://www.w3.org/2000/svg">
<g clip-path="url(#clip0_802_21)">
<path d="M1059.6 178.81C1055.13 174.563 1051.23 170.207 1047.9 165.74C1038.38 152.993 1030.76 139.187 1025.06 124.32C1022.49 117.633 1020.15 110.87 1018.03 104.03C1016.15 97.9767 1014.45 91.54 1012.91 84.72C1007.25 59.6067 1003.87 34.17 1002.76 8.41C1002.62 5.41667 1002.58 3.81665 1002.62 3.60999C1002.85 2.18999 1003.62 1.16668 1004.94 0.540009C1005.69 0.180009 1006.87 0 1008.47 0C1021.03 0 1033.63 0 1046.25 0C1048.31 0 1049.37 1.03334 1049.43 3.10001C1049.91 21.48 1050.96 40.1067 1052.6 58.98C1054.08 76.12 1056.5 92.3133 1059.85 107.56C1062.94 121.66 1067.59 135.75 1073.81 149.83C1079.32 162.31 1086.89 173.25 1096.53 182.65C1100.04 186.083 1103.52 188.877 1106.98 191.03C1111.03 193.557 1115.11 195.443 1119.22 196.69C1122.47 197.677 1126.45 198.073 1131.16 197.88C1151.08 197.067 1168.43 190.21 1183.22 177.31C1194.1 167.817 1203 156.54 1209.92 143.48C1217.53 129.1 1223.52 114.067 1227.89 98.38C1236.41 67.8133 1240.99 36.6633 1241.63 4.92999C1241.66 3.41666 1241.91 2.35667 1242.39 1.75C1242.97 1.01667 1243.79 0.653337 1244.84 0.660004C1245.74 0.660004 1246.49 0.973339 1247.08 1.60001C1248.07 2.65334 1248.51 4.20333 1248.41 6.25C1247.34 26.7767 1245.62 44.53 1243.25 59.51C1240.43 77.33 1236.21 94.8067 1230.6 111.94C1225.58 127.247 1218.83 141.75 1210.37 155.45C1202.98 167.41 1193.79 177.583 1182.8 185.97C1177.24 190.21 1171.56 193.663 1165.75 196.33C1156.19 200.717 1146.08 203.403 1135.4 204.39C1132.96 204.617 1130.52 204.857 1128.08 205.11C1125.33 205.397 1122.88 205.48 1120.74 205.36C1097.18 204.04 1076.8 195.19 1059.6 178.81Z" fill="#F3E6D4"/>
<path d="M162.247 11.68L46.3968 204.51C46.2157 204.81 45.9623 205.06 45.66 205.237C45.3576 205.414 45.0161 205.511 44.6668 205.52C31.4135 205.82 17.9301 205.823 4.2168 205.53C2.76347 205.503 1.7568 205.317 1.1968 204.97C0.110136 204.303 -0.236532 203.147 0.156802 201.5C0.336802 200.753 0.973468 199.52 2.0668 197.8C3.2868 195.893 4.0268 194.72 4.2868 194.28C42.7801 130.08 81.4035 65.8167 120.157 1.48999C120.389 1.11117 120.712 0.798252 121.096 0.581146C121.479 0.36404 121.91 0.25002 122.347 0.25L163.787 0.440002C164.131 0.440291 164.471 0.53065 164.772 0.702332C165.073 0.874013 165.326 1.12122 165.507 1.42001C205.107 66.92 244.52 132.467 283.747 198.06C284.82 199.853 285.39 201.227 285.457 202.18C285.61 204.327 284.23 205.52 281.317 205.76C280.929 205.79 280.541 205.713 280.197 205.536C279.852 205.36 279.565 205.091 279.367 204.76C244.593 147.167 210.04 89.6467 175.707 32.2C171.7 25.4867 167.513 18.6433 163.147 11.67C163.098 11.5941 163.031 11.5317 162.952 11.4888C162.873 11.446 162.784 11.424 162.694 11.425C162.604 11.426 162.516 11.4499 162.437 11.4945C162.359 11.5392 162.294 11.603 162.247 11.68Z" fill="#F3E6D4"/>
<path d="M400.407 194.33C438.913 130.663 477.207 66.8734 515.287 2.96003C517.213 -0.273305 519.593 -0.773305 522.427 1.46003C523.56 2.35336 523.757 3.4167 523.017 4.65003L403.367 203.74C402.52 205.14 401.277 205.82 399.637 205.78C385.897 205.407 372.53 205.397 359.537 205.75C359.2 205.759 358.868 205.679 358.572 205.517C358.277 205.356 358.03 205.118 357.857 204.83C317.877 138.697 278.11 72.4467 238.557 6.08002C237.843 4.89336 237.57 3.89004 237.737 3.07004C237.91 2.22338 238.37 1.54671 239.117 1.04005C239.63 0.686712 240.367 0.500048 241.327 0.480048C254.3 0.206714 267.74 0.13338 281.647 0.260047C282.096 0.265968 282.538 0.386461 282.93 0.610297C283.321 0.834132 283.651 1.15401 283.887 1.54005L399.897 194.32C399.923 194.365 399.961 194.403 400.006 194.43C400.051 194.456 400.102 194.471 400.154 194.472C400.206 194.473 400.256 194.46 400.3 194.435C400.345 194.41 400.381 194.374 400.407 194.33Z" fill="#F3E6D4"/>
<path d="M614.517 179.89C608.39 174.29 602.79 167.723 597.717 160.19C592.957 153.11 589.023 146.387 585.917 140.02C580.037 127.96 575.23 115.507 571.497 102.66C570.117 97.9133 568.41 91.4699 566.377 83.3299C563.83 73.1433 562.173 64.7833 561.407 58.25C560.44 49.9966 559.473 41.7433 558.507 33.4899C557.293 23.1966 556.757 13.0933 556.897 3.17995C556.923 1.44662 557.803 0.553289 559.537 0.499956C573.45 0.106623 587.327 0.106623 601.167 0.499956C602.767 0.546623 603.6 1.36996 603.667 2.96996C603.88 8.06996 604.01 13.2466 604.057 18.5C604.223 39.04 605.713 59.48 608.527 79.82C609.94 90.02 611.88 100.11 614.347 110.09C616.353 118.223 618.117 124.65 619.637 129.37C623.457 141.257 628.943 153.153 636.097 165.06C644.437 178.953 655.477 189.08 669.217 195.44C671.53 196.507 674.513 197.157 678.167 197.39C686.273 197.91 694.257 197.15 702.117 195.11C719.63 190.563 734.373 181.34 746.347 167.44C755.447 156.867 762.743 145.517 768.237 133.39C777.197 113.617 783.693 93.1066 787.727 71.8599C788.767 66.3733 789.857 59.7966 790.997 52.13C793.477 35.4833 794.943 18.8433 795.397 2.20995C795.405 1.87734 795.516 1.5555 795.715 1.28868C795.914 1.02187 796.19 0.82318 796.507 0.719957C799.367 -0.233376 801.19 0.266624 801.977 2.21996C802.29 2.99329 802.413 4.53329 802.347 6.83995C801.427 41.2933 796.113 74.68 786.407 107C784.267 114.133 781.443 121.933 777.937 130.4C771.03 147.087 761.413 162.013 749.087 175.18C735.12 190.1 718.35 199.537 698.777 203.49C692.323 204.797 685.707 205.433 678.927 205.4C654.44 205.267 632.97 196.763 614.517 179.89Z" fill="#F3E6D4"/>
<path d="M890.727 197.44C927.12 197.513 963.513 197.533 999.907 197.5C1003.46 197.5 1005.88 197.667 1007.16 198C1010.1 198.773 1011 200.503 1009.85 203.19C1009.09 204.963 1007.52 205.733 1005.16 205.5C1002.28 205.22 996.337 205.157 987.317 205.31C979.63 205.437 973.687 205.5 969.487 205.5C928.873 205.5 888.26 205.5 847.647 205.5C845.193 205.5 843.967 204.277 843.967 201.83L843.907 2.73001C843.907 1.27001 844.637 0.523324 846.097 0.489991C857.717 0.203324 869.487 0.123334 881.407 0.25C884.56 0.283334 886.917 0.403319 888.477 0.609986C888.628 0.63139 888.772 0.693815 888.891 0.790619C889.011 0.887424 889.103 1.01504 889.157 1.16C889.857 3.03334 890.207 4.98 890.207 7C890.14 70.3133 890.143 133.627 890.217 196.94C890.217 197.073 890.271 197.2 890.366 197.294C890.462 197.387 890.592 197.44 890.727 197.44Z" fill="#F3E6D4"/>
<path d="M1396.17 92.49C1397.1 92.0767 1397.15 91.57 1396.32 90.97L1279.47 6.98005C1278.03 5.94672 1277.6 4.59005 1278.18 2.91005C1278.74 1.28338 1279.61 0.420049 1280.79 0.320049C1281.5 0.260049 1282.47 0.626721 1283.69 1.42005C1285.75 2.76005 1288.47 4.64004 1291.85 7.06004C1328.9 33.5867 1366.17 60.2934 1403.65 87.18C1403.82 87.303 1404.03 87.3739 1404.24 87.3846C1404.45 87.3952 1404.66 87.3451 1404.85 87.24C1449.08 62.26 1493.37 37.2834 1537.72 12.31C1546.84 7.17671 1553.3 3.58672 1557.12 1.54005C1558.68 0.706717 1559.99 0.423377 1561.05 0.690044C1562.65 1.09004 1563.39 2.29005 1563.27 4.29005C1563.2 5.49672 1563.17 6.1367 1563.17 6.21003C1563.24 18.7434 1563.23 31.6367 1563.15 44.8901C1563.14 45.3734 1563.02 45.8475 1562.77 46.265C1562.53 46.6825 1562.18 47.029 1561.77 47.27L1443.75 115.05C1443.63 115.117 1443.53 115.214 1443.46 115.331C1443.4 115.447 1443.36 115.579 1443.36 115.714C1443.35 115.849 1443.39 115.983 1443.45 116.101C1443.52 116.22 1443.61 116.319 1443.73 116.39C1447.47 118.717 1451.07 121.123 1454.53 123.61C1489.75 148.983 1524.98 174.33 1560.23 199.65C1561.8 200.783 1562.76 201.68 1563.1 202.34C1563.86 203.84 1563.24 205.307 1561.22 206.74C1560.08 207.54 1558.96 207.54 1557.84 206.74L1436.56 119.79C1436.44 119.703 1436.3 119.652 1436.15 119.643C1436 119.635 1435.86 119.668 1435.73 119.74C1384.95 148.727 1334.17 177.73 1283.41 206.75C1281.27 207.97 1279.75 207.813 1278.83 206.28C1278.39 205.547 1278.15 204.317 1278.12 202.59C1277.86 189.643 1277.79 176.697 1277.91 163.75C1277.92 162.397 1278.08 161.233 1278.38 160.26C1278.68 159.3 1279.4 158.457 1280.54 157.73C1282.86 156.25 1286.71 153.987 1292.1 150.94C1324.36 132.68 1356.62 114.427 1388.9 96.18C1391.48 94.72 1393.91 93.49 1396.17 92.49Z" fill="#F3E6D4"/>
</g>
<defs>
<clipPath id="clip0_802_21">
<rect width="1564" height="208" fill="white"/>
</clipPath>
</defs>
</svg>
