<svg width="1568" height="355" viewBox="0 0 1568 355" fill="none" xmlns="http://www.w3.org/2000/svg">
<path d="M1141.96 0H1163.95L1164.52 85.8912C1164.52 86.4469 1164.75 86.9776 1165.14 87.3705C1165.53 87.7635 1166.06 87.9879 1166.62 87.996L1187.92 88.1217C1188.35 88.1217 1188.75 88.2905 1189.05 88.591C1189.35 88.8914 1189.52 89.299 1189.52 89.7239L1189.65 108.699C1189.65 109.098 1189.57 109.492 1189.4 109.854C1189.23 110.215 1188.98 110.535 1188.67 110.79C1188.36 111.046 1188 111.23 1187.61 111.33C1187.22 111.43 1186.81 111.444 1186.41 111.369C1179.94 110.155 1173.23 110.176 1166.27 111.432C1165.84 111.513 1165.45 111.746 1165.17 112.091C1164.89 112.435 1164.73 112.869 1164.74 113.317L1164.36 267.601C1164.36 268.049 1164.21 268.483 1163.93 268.828C1163.64 269.172 1163.25 269.405 1162.82 269.486C1156.12 270.722 1149.42 270.722 1142.71 269.486C1142.28 269.405 1141.89 269.176 1141.61 268.837C1141.33 268.499 1141.17 268.072 1141.17 267.632L1140.99 112.312C1140.99 111.895 1140.82 111.496 1140.53 111.201C1140.23 110.907 1139.83 110.741 1139.41 110.741H1116.48C1116.19 110.741 1115.9 110.68 1115.63 110.56C1115.36 110.439 1115.12 110.263 1114.91 110.041C1114.71 109.819 1114.55 109.555 1114.44 109.265C1114.33 108.976 1114.28 108.666 1114.28 108.354L1114.53 89.7867C1114.54 89.4366 1114.61 89.0908 1114.75 88.7725C1114.89 88.4542 1115.09 88.1709 1115.34 87.9417C1115.59 87.7124 1115.89 87.5426 1116.2 87.4436C1116.52 87.3446 1116.85 87.3187 1117.17 87.3677C1124.57 88.4777 1131.92 88.4358 1139.23 87.242C1139.65 87.1748 1140.04 86.9544 1140.33 86.6204C1140.61 86.2864 1140.76 85.8608 1140.77 85.4199L1141.96 0Z" fill="#F3E6D4"/>
<path d="M1227.07 40.8588L1208.22 40.7601C1207.12 40.7544 1206.23 41.6358 1206.23 42.7289L1206.12 63.0861C1206.11 64.1792 1207 65.07 1208.09 65.0757L1226.94 65.1744C1228.03 65.1801 1228.92 64.2986 1228.93 63.2056L1229.03 42.8483C1229.04 41.7553 1228.16 40.8645 1227.07 40.8588Z" fill="#F3E6D4"/>
<path d="M1253.2 132.575C1257.39 124.281 1262.77 116.857 1269.35 110.301C1290.73 88.9595 1315.05 80.0164 1342.3 83.4721C1360.08 85.755 1375.61 92.1534 1388.89 102.667C1402.63 113.558 1412.51 128.072 1418.54 146.21C1418.73 146.771 1418.7 147.379 1418.46 147.906C1418.22 148.433 1417.79 148.838 1417.26 149.037L1400.73 155.32C1399.97 155.605 1399.12 155.572 1398.36 155.227C1397.6 154.882 1396.99 154.252 1396.65 153.467C1392.06 142.723 1385.87 133.403 1378.08 125.507C1369.83 117.129 1360.54 111.411 1350.22 108.354C1332.31 103.034 1314.66 106.186 1297.28 117.81C1282.47 127.716 1272.88 140.974 1268.5 157.582C1262.72 179.553 1265.71 199.868 1277.46 218.529C1284.66 229.986 1294.09 238.353 1305.73 243.631C1316.87 248.699 1328.8 250.458 1341.51 248.908C1361.68 246.458 1377.51 235.682 1388.98 216.581C1390.28 214.403 1393.57 208.193 1398.85 197.952C1399.06 197.554 1399.4 197.242 1399.8 197.07C1400.21 196.897 1400.66 196.876 1401.08 197.009L1418.83 202.821C1419.06 202.894 1419.27 203.013 1419.45 203.171C1419.63 203.328 1419.78 203.522 1419.89 203.741C1420 203.96 1420.06 204.2 1420.08 204.446C1420.1 204.693 1420.07 204.941 1419.99 205.177C1412.79 227.148 1400.78 244.248 1383.99 256.48C1372.74 264.69 1360.19 269.926 1346.35 272.188C1331.98 274.533 1318.01 273.413 1304.44 268.826C1288.76 263.527 1275.54 254.406 1264.8 241.463C1254.13 228.624 1247.22 213.419 1244.06 195.847C1240.06 173.688 1243.11 152.598 1253.2 132.575Z" fill="#F3E6D4"/>
<path d="M1430.45 135.654C1432.65 118.962 1441.06 106.469 1455.68 98.1748C1482.09 83.2208 1509.22 82.0689 1537.08 94.719C1547.82 99.578 1556.18 107.736 1562.15 119.192C1566.31 127.151 1567.73 135.141 1566.39 143.162C1566.3 143.642 1566.07 144.076 1565.72 144.392C1565.38 144.707 1564.95 144.883 1564.5 144.89L1546.66 145.142C1546.22 145.149 1545.79 144.984 1545.45 144.677C1545.12 144.37 1544.9 143.943 1544.84 143.477C1543.54 133.403 1539.63 125.852 1533.12 120.826C1523.8 113.579 1513.55 109.83 1502.36 109.579C1493.23 109.39 1484.82 110.479 1477.14 112.846C1468.17 115.611 1461.17 120.993 1456.12 128.994C1453.29 133.497 1452.62 138.324 1454.11 143.477C1455.26 147.456 1457.8 151.236 1461.74 154.818C1469.68 161.981 1479.26 166.159 1490.49 167.353C1499.14 168.295 1507.76 169.447 1516.34 170.808C1536.87 174.055 1551.75 183.94 1560.98 200.465C1565.91 209.282 1567.41 218.561 1565.51 228.3C1563.87 236.74 1559.73 244.625 1553.07 251.956C1541.49 264.711 1526.12 271.832 1506.98 273.319C1482.5 275.224 1461.8 268.774 1444.9 253.966C1438.51 248.353 1434.32 242.688 1432.31 236.97C1430.06 230.562 1429.44 223.221 1430.42 214.948C1430.44 214.736 1430.51 214.531 1430.61 214.346C1430.72 214.161 1430.86 214 1431.03 213.873C1431.2 213.746 1431.39 213.656 1431.59 213.609C1431.8 213.561 1432.01 213.557 1432.21 213.597L1450.49 217.367C1450.82 217.433 1451.12 217.602 1451.36 217.853C1451.6 218.105 1451.77 218.427 1451.85 218.781C1453.94 228.31 1457.87 234.949 1463.63 238.698C1486.58 253.694 1509.47 254.04 1532.3 239.735C1538.12 236.091 1541.51 231.211 1542.45 225.095C1543.25 219.838 1541.93 214.592 1538.49 209.356C1533.07 201.062 1524.98 195.878 1514.24 193.805C1509.8 192.946 1502.21 191.909 1491.46 190.695C1481.14 189.543 1473.65 188.14 1469 186.485C1452.22 180.579 1439.81 169.143 1431.77 152.179C1429.95 148.304 1429.51 142.796 1430.45 135.654Z" fill="#F3E6D4"/>
<path d="M273.968 162.829L319.741 90.3837C320.356 89.403 321.204 88.5945 322.204 88.0341C323.204 87.4736 324.324 87.1795 325.459 87.1792H348.581C350.696 87.1792 351.189 88.0798 350.058 89.881L295.959 175.489C295.562 176.112 295.349 176.836 295.343 177.58C295.338 178.324 295.54 179.058 295.928 179.699L351.943 270.962C352.906 272.512 352.487 273.287 350.686 273.287L325.93 273.162C325.457 273.16 324.987 273.033 324.564 272.792C324.141 272.55 323.779 272.202 323.511 271.779L274.534 192.423C274.357 192.138 274.111 191.904 273.818 191.743C273.524 191.581 273.195 191.498 272.86 191.501C272.525 191.504 272.197 191.594 271.907 191.761C271.617 191.927 271.375 192.166 271.204 192.454L225.682 271.025C225.271 271.723 224.681 272.301 223.971 272.703C223.26 273.106 222.453 273.318 221.629 273.319H197.125C195.805 273.319 195.481 272.743 196.151 271.591L249.715 179.542C250.136 178.822 250.363 178.003 250.374 177.167C250.385 176.33 250.18 175.503 249.778 174.767L201.837 89.5354C201.749 89.3807 201.699 89.2066 201.692 89.0283C201.686 88.85 201.723 88.6728 201.8 88.512C201.877 88.3512 201.993 88.2116 202.136 88.1053C202.279 87.999 202.446 87.9291 202.623 87.9018C211.147 86.6033 219.671 86.6033 228.195 87.9018C228.667 87.9794 229.12 88.166 229.522 88.4483C229.924 88.7306 230.265 89.1018 230.52 89.5354L272.335 162.766C272.412 162.913 272.526 163.037 272.666 163.125C272.806 163.214 272.968 163.264 273.133 163.27C273.299 163.277 273.463 163.239 273.61 163.162C273.757 163.084 273.88 162.969 273.968 162.829Z" fill="#F3E6D4"/>
<path d="M529.568 181.176C529.568 206.138 519.652 230.079 502 247.73C484.349 265.381 460.409 275.298 435.446 275.298C410.483 275.298 386.543 265.381 368.892 247.73C351.24 230.079 341.324 206.138 341.324 181.176C341.324 156.213 351.24 132.273 368.892 114.621C386.543 96.9699 410.483 87.0535 435.446 87.0535C447.806 87.0535 460.046 89.4881 471.465 94.2182C482.884 98.9482 493.26 105.881 502 114.621C510.741 123.361 517.674 133.737 522.404 145.157C527.134 156.576 529.568 168.815 529.568 181.176ZM506.226 181.144C506.226 162.331 498.752 144.287 485.449 130.984C472.146 117.681 454.103 110.207 435.289 110.207C416.475 110.207 398.432 117.681 385.129 130.984C371.826 144.287 364.352 162.331 364.352 181.144C364.352 199.958 371.826 218.001 385.129 231.304C398.432 244.608 416.475 252.081 435.289 252.081C454.103 252.081 472.146 244.608 485.449 231.304C498.752 218.001 506.226 199.958 506.226 181.144Z" fill="#F3E6D4"/>
<path d="M570.126 107.568C570.126 109.851 571.016 110.249 572.797 108.762C587.164 96.7611 602.631 89.703 619.198 87.5876C635.471 85.5142 651.347 88.551 666.824 96.6982C686.24 106.898 699.413 122.721 706.346 144.168C709.173 152.88 710.587 165.311 710.587 181.458C710.587 211.324 710.587 241.787 710.587 272.847C710.586 273.081 710.544 273.312 710.463 273.528C710.382 273.744 710.264 273.939 710.115 274.103C709.965 274.266 709.789 274.395 709.595 274.482C709.401 274.568 709.193 274.611 708.985 274.607L687.182 274.167C686.979 274.163 686.78 274.114 686.594 274.02C686.409 273.927 686.241 273.791 686.101 273.622C685.961 273.453 685.851 273.253 685.778 273.034C685.704 272.814 685.669 272.58 685.674 272.345C685.779 240.405 685.548 208.476 684.983 176.558C684.732 163.405 683.119 153.268 680.145 146.147C672.689 128.303 659.211 116.825 639.713 111.715C626.057 108.155 612.443 110.647 598.872 119.192C587.625 126.25 579.635 135.937 574.901 148.252C572.179 155.331 570.849 166.117 570.912 180.61C571.037 211.251 570.744 241.892 570.032 272.533C570.025 272.997 569.857 273.439 569.564 273.767C569.271 274.095 568.876 274.283 568.461 274.292L547.444 274.827C547.235 274.831 547.028 274.79 546.834 274.707C546.64 274.623 546.463 274.499 546.314 274.341C546.164 274.183 546.046 273.995 545.965 273.787C545.884 273.579 545.842 273.356 545.842 273.13L545.81 89.7239C545.81 89.299 545.982 88.8914 546.289 88.591C546.595 88.2905 547.011 88.1217 547.444 88.1217L568.43 87.996C568.849 87.9965 569.252 88.1711 569.552 88.4825C569.851 88.7938 570.024 89.217 570.032 89.6611L570.126 107.568Z" fill="#F3E6D4"/>
<path d="M914.633 180.924C914.633 205.712 904.786 229.485 887.259 247.012C869.731 264.54 845.959 274.387 821.171 274.387C796.383 274.387 772.611 264.54 755.083 247.012C737.555 229.485 727.708 205.712 727.708 180.924C727.708 156.137 737.555 132.364 755.083 114.836C772.611 97.3088 796.383 87.4619 821.171 87.4619C845.959 87.4619 869.731 97.3088 887.259 114.836C904.786 132.364 914.633 156.137 914.633 180.924ZM891.103 180.987C891.103 162.432 883.732 144.636 870.611 131.516C857.49 118.395 839.695 111.024 821.139 111.024C811.952 111.024 802.854 112.834 794.366 116.35C785.877 119.866 778.165 125.019 771.668 131.516C765.171 138.012 760.018 145.725 756.502 154.213C752.986 162.702 751.176 171.799 751.176 180.987C751.176 190.175 752.986 199.273 756.502 207.761C760.018 216.249 765.171 223.962 771.668 230.459C778.165 236.955 785.877 242.109 794.366 245.625C802.854 249.141 811.952 250.95 821.139 250.95C839.695 250.95 857.49 243.579 870.611 230.459C883.732 217.338 891.103 199.543 891.103 180.987Z" fill="#F3E6D4"/>
<path d="M955.411 116.522C984.083 89.3574 1015.65 80.917 1050.1 91.2004C1068.68 96.7506 1083.73 105.914 1095.27 118.689C1107.95 132.722 1115.27 149.77 1117.23 169.835C1118.7 184.914 1116.72 199.533 1111.3 213.691C1106.02 227.43 1097.92 239.264 1087.01 249.191C1071.83 263.014 1053.8 270.973 1032.91 273.067C1018.04 274.575 1004.42 273.004 992.042 268.355C979.266 263.559 967.475 255.736 956.668 244.887C954.929 243.149 954.06 243.505 954.06 245.955V350.288C954.06 350.563 954.011 350.835 953.915 351.088C953.82 351.342 953.681 351.572 953.505 351.765C953.33 351.958 953.122 352.11 952.894 352.212C952.665 352.315 952.421 352.365 952.175 352.361L932.258 351.953C931.846 351.944 931.454 351.749 931.166 351.408C930.878 351.067 930.717 350.608 930.718 350.131L930.687 95.3159C930.687 94.6244 930.952 93.9611 931.423 93.4721C931.894 92.9831 932.534 92.7084 933.2 92.7084L952.301 92.8026C952.72 92.8109 953.12 92.9833 953.414 93.2829C953.707 93.5825 953.872 93.9853 953.872 94.4049L954.249 116.082C954.249 117.087 954.636 117.234 955.411 116.522ZM1093.99 182.998C1095.16 180.317 1095.12 177.657 1093.86 175.018C1092.56 155.038 1084.15 138.879 1068.63 126.543C1054.18 115.024 1038.5 109.652 1021.57 110.427C1006.3 111.139 992.503 116.27 980.167 125.821C967.224 135.832 959.045 149.131 955.631 165.719C949.264 196.611 959.631 221.032 986.733 238.981C1004.43 250.71 1022.8 253.715 1041.84 247.997C1073.19 238.573 1090.57 216.906 1093.99 182.998Z" fill="#F3E6D4"/>
<path d="M1226.44 87.1792H1206.83C1206.03 87.1792 1205.39 87.8262 1205.39 88.6243V268.7C1205.39 269.499 1206.03 270.146 1206.83 270.146H1226.44C1227.23 270.146 1227.88 269.499 1227.88 268.7V88.6243C1227.88 87.8262 1227.23 87.1792 1226.44 87.1792Z" fill="#F3E6D4"/>
<path d="M152.766 193.365H106.019C105.535 193.364 105.05 193.47 104.596 193.676C104.142 193.881 103.728 194.182 103.38 194.559L32.097 271.968C31.432 272.673 30.4842 273.09 29.4581 273.13L1.655 273.915C-0.188068 273.957 -0.491755 273.319 0.743938 271.999C55.5543 212.581 110.155 153.006 164.547 93.2739C168.987 88.373 173.982 86.7603 179.532 88.4358C179.969 88.5653 180.352 88.8374 180.624 89.2113C180.896 89.5851 181.042 90.0406 181.04 90.5092L181.228 271.999C181.228 272.557 181.007 273.093 180.612 273.487C180.217 273.882 179.682 274.104 179.124 274.104H156.881C156.592 274.104 156.307 274.046 156.041 273.933C155.776 273.82 155.536 273.654 155.336 273.445C155.137 273.237 154.981 272.99 154.88 272.72C154.778 272.45 154.732 272.162 154.745 271.873C155.876 246.364 155.761 220.718 154.399 194.936C154.383 194.514 154.204 194.114 153.899 193.821C153.594 193.528 153.188 193.365 152.766 193.365ZM153.143 141.372L128.261 168.201C126.502 170.107 126.889 171.049 129.424 171.028L153.174 170.777C153.577 170.769 153.961 170.583 154.243 170.26C154.525 169.937 154.683 169.502 154.682 169.049L154.776 142.063C154.797 140.429 154.253 140.199 153.143 141.372Z" fill="#F3E6D4"/>
<path d="M1245.98 307.813L1245.73 350.507C1245.72 351.072 1245.57 351.606 1245.31 352.023C1245.04 352.441 1244.68 352.715 1244.28 352.801C1243.38 353.031 1242.72 352.497 1242.3 351.199C1243.68 337.271 1243.64 323.354 1242.18 309.447C1242.13 307.876 1243.4 307.332 1245.98 307.813Z" fill="#F3E6D4"/>
<path d="M1554.14 324.212C1554.64 320.631 1554.62 317.018 1554.07 313.374C1553.47 309.353 1554.49 307.667 1557.15 308.316C1557.57 308.422 1557.95 308.687 1558.21 309.069C1558.48 309.45 1558.63 309.926 1558.63 310.421L1558.82 350.256C1558.83 350.835 1558.7 351.387 1558.45 351.822C1558.21 352.256 1557.86 352.546 1557.47 352.644C1556.4 352.895 1555.53 352.11 1554.86 350.288C1554.78 350.06 1554.65 349.85 1554.49 349.674C1554.33 349.497 1554.13 349.357 1553.9 349.262C1553.68 349.168 1553.44 349.121 1553.2 349.124C1552.96 349.127 1552.72 349.181 1552.5 349.282C1540.17 354.937 1531.34 352.319 1526.02 341.428C1523.74 336.758 1524.26 332.433 1527.59 328.454C1534.94 319.594 1543.3 318.39 1552.66 324.841C1552.79 324.936 1552.95 324.997 1553.11 325.015C1553.28 325.034 1553.44 325.01 1553.59 324.946C1553.74 324.883 1553.87 324.781 1553.97 324.652C1554.06 324.524 1554.12 324.372 1554.14 324.212ZM1554.32 336.59C1554.32 333.391 1553.05 330.322 1550.79 328.06C1548.53 325.798 1545.46 324.527 1542.26 324.527C1540.68 324.527 1539.11 324.839 1537.64 325.445C1536.18 326.051 1534.85 326.94 1533.73 328.06C1532.61 329.18 1531.72 330.51 1531.12 331.974C1530.51 333.437 1530.2 335.006 1530.2 336.59C1530.2 338.175 1530.51 339.743 1531.12 341.207C1531.72 342.671 1532.61 344 1533.73 345.121C1534.85 346.241 1536.18 347.129 1537.64 347.736C1539.11 348.342 1540.68 348.654 1542.26 348.654C1545.46 348.654 1548.53 347.383 1550.79 345.121C1553.05 342.858 1554.32 339.79 1554.32 336.59Z" fill="#F3E6D4"/>
<path d="M1387.35 328.799C1397.9 339.376 1395.74 347.376 1380.85 352.801C1372.45 355.88 1368.22 353.084 1368.15 344.413L1367.93 311.772C1367.94 311.308 1368.08 310.856 1368.34 310.474C1368.6 310.093 1368.98 309.801 1369.41 309.635C1375.34 307.436 1380.62 307.897 1385.24 311.018C1391.74 315.395 1392.42 320.568 1387.29 326.537C1387.01 326.864 1386.86 327.278 1386.87 327.697C1386.89 328.117 1387.06 328.51 1387.35 328.799ZM1372.93 325.029C1373.01 325.498 1373.19 325.944 1373.46 326.339C1373.72 326.735 1374.07 327.07 1374.48 327.324C1374.88 327.578 1375.34 327.746 1375.81 327.816C1376.28 327.886 1376.77 327.857 1377.23 327.731C1384.12 325.825 1386.55 322.244 1384.52 316.987C1384.16 316.058 1383.43 315.284 1382.48 314.819C1374.12 310.672 1370.94 314.076 1372.93 325.029ZM1372.24 345.387C1371.82 347.942 1372.94 349.021 1375.6 348.623C1377.21 348.371 1378.55 348.225 1379.62 348.183C1381.57 348.099 1383.39 347.638 1385.09 346.8C1386.74 346.005 1387.83 344.654 1388.35 342.748C1390.11 336.486 1387.25 332.663 1379.78 331.281C1373.49 330.129 1370.97 333.145 1372.21 340.329C1372.5 342.025 1372.51 343.711 1372.24 345.387Z" fill="#F3E6D4"/>
<path d="M1122.76 310.766C1123.66 308.672 1124.61 308.661 1125.59 310.735C1131.37 322.987 1137.17 335.658 1143 348.748C1144.73 352.644 1144.11 353.712 1141.11 351.953C1140.4 351.555 1139.82 350.947 1139.38 350.13C1137.96 347.408 1136.28 344.067 1134.36 340.109C1134.12 339.619 1133.74 339.204 1133.26 338.91C1132.77 338.616 1132.21 338.454 1131.62 338.444L1117.58 338.098C1117.05 338.08 1116.53 338.174 1116.11 338.368C1115.68 338.563 1115.35 338.851 1115.16 339.198L1109.19 350.162C1108.89 350.708 1108.57 351.184 1108.23 351.562C1107.89 351.94 1107.54 352.212 1107.21 352.361C1104.55 353.576 1103.92 352.654 1105.33 349.596C1111.23 336.716 1117.05 323.772 1122.76 310.766ZM1124.21 320.631C1115.54 331.166 1116.95 335.553 1128.45 333.794C1131.13 333.375 1131.61 332.119 1129.9 330.024C1128.26 328.035 1127.13 325.102 1126.5 321.228C1126.19 319.364 1125.42 319.165 1124.21 320.631Z" fill="#F3E6D4"/>
<path d="M1241.64 309.447H1242.18C1243.64 323.354 1243.68 337.271 1242.3 351.199L1241.64 309.447Z" fill="#F3E6D4"/>
<path d="M1015.92 349.408C1014.66 349.345 1013.48 349.733 1012.37 350.57C1011.34 351.345 1010.44 351.796 1009.67 351.921C999.467 353.429 992.974 350.35 990.189 342.685C987.927 336.548 988.848 330.956 992.953 325.909C997.917 319.835 1004.79 318.861 1013.56 322.987C1015.72 324.013 1017.31 323.825 1018.34 322.422C1018.73 321.894 1019.15 321.448 1019.54 321.128C1019.94 320.808 1020.3 320.626 1020.6 320.6C1021.79 320.516 1022.39 321.249 1022.39 322.799C1022.39 331.176 1022.33 339.554 1022.2 347.931C1022.14 353.188 1020.86 354.194 1018.37 350.947C1018.02 350.489 1017.61 350.112 1017.19 349.845C1016.76 349.578 1016.33 349.428 1015.92 349.408ZM1017.55 336.59C1017.55 333.407 1016.29 330.355 1014.04 328.104C1011.79 325.854 1008.73 324.589 1005.55 324.589C1002.37 324.589 999.316 325.854 997.065 328.104C994.814 330.355 993.55 333.407 993.55 336.59C993.55 339.773 994.814 342.826 997.065 345.076C999.316 347.327 1002.37 348.591 1005.55 348.591C1008.73 348.591 1011.79 347.327 1014.04 345.076C1016.29 342.826 1017.55 339.773 1017.55 336.59Z" fill="#F3E6D4"/>
<path d="M1045.73 323.867C1049.59 320.369 1053.59 319.489 1057.73 321.228C1064.83 324.202 1067.94 329.721 1067.06 337.784C1066.6 341.931 1066.15 346.078 1065.71 350.225C1065.4 353.324 1064.31 353.607 1062.45 351.073C1060.98 349.083 1060.78 344.308 1061.85 336.747C1062.54 331.972 1061.4 328.537 1058.42 326.443C1055.7 324.516 1052.71 324.38 1049.44 326.034C1045.21 328.129 1043.04 332.024 1042.94 337.721C1042.85 341.91 1042.62 346.078 1042.24 350.225C1042.06 352.529 1041.18 353.303 1039.61 352.55C1039.18 352.342 1038.83 351.999 1038.59 351.559C1038.34 351.12 1038.22 350.602 1038.22 350.068L1038.57 322.579C1038.57 322.365 1038.62 322.155 1038.71 321.962C1038.8 321.77 1038.93 321.6 1039.09 321.464C1039.25 321.329 1039.43 321.232 1039.63 321.181C1039.83 321.129 1040.03 321.123 1040.23 321.165C1041.68 321.458 1042.86 322.265 1043.78 323.584C1043.89 323.74 1044.03 323.872 1044.19 323.971C1044.35 324.071 1044.53 324.137 1044.72 324.163C1044.9 324.19 1045.09 324.177 1045.26 324.126C1045.44 324.075 1045.6 323.987 1045.73 323.867Z" fill="#F3E6D4"/>
<path d="M1171.68 341.083C1175.09 335.428 1178.11 329.553 1180.73 323.458C1181.12 322.495 1181.63 321.772 1182.23 321.291C1183.95 319.887 1184.82 320.422 1184.84 322.893C1184.84 323.668 1184.62 324.485 1184.18 325.343C1180.01 333.574 1175.97 342.151 1172.06 351.073C1171.39 352.602 1170.69 352.612 1169.98 351.104C1166.19 343.125 1162.26 334.978 1158.2 326.663C1155.54 321.238 1156.12 319.72 1159.93 322.108C1160.62 322.559 1161.28 323.372 1161.81 324.432L1170.04 341.083C1170.53 342.067 1171.07 342.067 1171.68 341.083Z" fill="#F3E6D4"/>
<path d="M1224.43 346.549C1221.33 352.015 1216.24 353.806 1209.16 351.921C1202.1 350.078 1198.64 345.345 1198.79 337.721C1198.9 332.82 1199.04 327.919 1199.23 323.019C1199.25 322.468 1199.41 321.948 1199.68 321.539C1199.95 321.13 1200.33 320.855 1200.74 320.757C1202.1 320.401 1202.77 321.343 1202.75 323.584C1202.71 329.637 1203.04 335.501 1203.75 341.177C1203.95 342.711 1204.6 344.154 1205.61 345.323C1206.63 346.491 1207.97 347.334 1209.47 347.743C1214.62 349.104 1218.36 348.088 1220.69 344.696C1222.01 342.769 1222.67 339.533 1222.67 334.988C1222.67 331.449 1222.67 327.899 1222.67 324.338C1222.67 323.81 1222.77 323.3 1222.98 322.847C1223.19 322.395 1223.49 322.013 1223.86 321.731C1226.06 320.034 1227.23 321.029 1227.38 324.715C1227.48 327.04 1227.55 328.391 1227.57 328.768C1228.13 335.951 1227.09 341.879 1224.43 346.549Z" fill="#F3E6D4"/>
<path d="M1281.41 351.136C1276.47 353.879 1271.91 353.534 1267.72 350.099C1264.34 347.355 1262.43 343.093 1261.97 337.313C1261.59 332.412 1261.71 327.511 1262.31 322.61C1262.38 322.045 1262.6 321.521 1262.91 321.15C1263.23 320.78 1263.62 320.594 1264.01 320.631C1264.39 320.673 1264.75 320.84 1265.11 321.134C1265.31 321.308 1265.49 321.584 1265.61 321.938C1265.74 322.293 1265.81 322.717 1265.83 323.176L1266.52 341.303C1266.77 347.565 1270.14 349.973 1276.61 348.528C1283.77 346.936 1286.43 340.433 1284.59 329.019C1284.36 327.612 1284.47 326.174 1284.89 324.816C1285.32 323.459 1286.05 322.22 1287.04 321.196C1289.17 318.976 1290.25 320.107 1290.27 324.589C1290.27 326.034 1290.34 327.448 1290.46 328.83C1290.82 333.25 1290.34 337.491 1289.02 341.554C1287.59 345.91 1285.06 349.104 1281.41 351.136Z" fill="#F3E6D4"/>
<path d="M1313.99 328.988C1314.34 329.416 1314.78 329.771 1315.27 330.02C1315.76 330.27 1316.28 330.406 1316.8 330.419C1317.32 330.431 1317.81 330.319 1318.23 330.091C1318.66 329.864 1319 329.528 1319.24 329.113C1320.75 326.495 1322.57 324.139 1324.71 322.045C1325.33 321.416 1326 321.018 1326.72 320.851C1328.5 320.432 1328.99 321.186 1328.19 323.113C1327.96 323.699 1327.54 324.338 1326.94 325.029C1324.21 327.982 1321.9 331.218 1319.99 334.737C1319.78 335.147 1319.69 335.614 1319.74 336.083C1319.79 336.551 1319.98 337 1320.28 337.376C1323.61 341.543 1326.76 345.847 1329.73 350.288C1330.19 350.979 1330.36 351.544 1330.23 351.984C1330.07 352.57 1329.55 352.832 1328.7 352.769C1328.21 352.728 1327.75 352.518 1327.31 352.141C1324.09 349.376 1321.4 346.12 1319.24 342.371C1316.96 338.391 1314.91 338.517 1313.11 342.748C1311.63 346.287 1309.37 349.272 1306.36 351.701C1305.94 352.036 1305.48 352.283 1305 352.424C1304.51 352.565 1304.03 352.597 1303.56 352.518C1301.59 352.141 1301.48 351.031 1303.22 349.188C1306.3 345.963 1309.43 342.35 1312.61 338.349C1313.08 337.757 1313.35 337.028 1313.38 336.27C1313.41 335.513 1313.19 334.766 1312.77 334.14C1309.81 329.721 1307.36 326.38 1305.42 324.118C1304.14 322.61 1304.08 321.542 1305.23 320.914C1305.66 320.674 1306.16 320.596 1306.65 320.694C1307.14 320.792 1307.58 321.059 1307.9 321.448L1313.99 328.988Z" fill="#F3E6D4"/>
<path d="M1413.93 328.391C1411.87 334.129 1411.15 340.098 1411.76 346.298C1411.88 347.659 1411.91 348.748 1411.82 349.565C1411.38 353.419 1410.13 353.838 1408.05 350.822C1407.52 350.045 1407.23 349.035 1407.24 347.931V323.804C1407.24 320.558 1408.47 319.982 1410.94 322.076C1412.74 323.584 1415.02 323.469 1417.76 321.731C1420.4 320.034 1421.99 320.327 1422.53 322.61C1422.63 322.985 1422.55 323.393 1422.3 323.754C1422.06 324.115 1421.67 324.402 1421.22 324.558L1415.94 326.317C1415.5 326.464 1415.09 326.727 1414.74 327.086C1414.39 327.444 1414.11 327.891 1413.93 328.391Z" fill="#F3E6D4"/>
<path d="M1432.24 339.292L1433.03 331.438C1437.76 322.306 1445.2 319.102 1455.33 321.825C1456.81 322.219 1458.23 322.388 1459.46 322.316C1460.7 322.245 1461.71 321.935 1462.4 321.416C1463.07 320.935 1463.76 320.736 1464.47 320.819C1464.88 320.872 1465.25 321.119 1465.53 321.516C1465.8 321.914 1465.96 322.435 1465.98 322.987C1466.21 330.778 1466.45 338.559 1466.71 346.329C1466.91 352.885 1465.24 354.33 1461.68 350.665C1461.36 350.34 1460.96 350.119 1460.52 350.029C1460.08 349.939 1459.63 349.985 1459.23 350.162C1446.66 355.628 1437.67 352.005 1432.24 339.292ZM1461.21 336.653C1461.21 333.462 1459.94 330.401 1457.68 328.145C1455.43 325.888 1452.37 324.621 1449.18 324.621C1447.6 324.621 1446.03 324.932 1444.57 325.537C1443.11 326.141 1441.78 327.028 1440.67 328.145C1439.55 329.262 1438.66 330.589 1438.06 332.049C1437.45 333.508 1437.14 335.073 1437.14 336.653C1437.14 338.233 1437.45 339.798 1438.06 341.258C1438.66 342.717 1439.55 344.044 1440.67 345.161C1441.78 346.278 1443.11 347.165 1444.57 347.769C1446.03 348.374 1447.6 348.685 1449.18 348.685C1452.37 348.685 1455.43 347.418 1457.68 345.161C1459.94 342.905 1461.21 339.844 1461.21 336.653Z" fill="#F3E6D4"/>
<path d="M1506.73 351.953L1506.16 332.035C1504.74 327.469 1502.39 325.176 1499.13 325.155C1491.29 325.113 1487.2 329.04 1486.84 336.936C1486.65 341.397 1486.37 345.827 1485.99 350.225C1485.81 352.529 1484.93 353.304 1483.36 352.55C1482.93 352.342 1482.58 351.999 1482.34 351.559C1482.09 351.12 1481.97 350.602 1481.97 350.068L1482.32 322.579C1482.32 322.351 1482.37 322.127 1482.46 321.921C1482.55 321.715 1482.68 321.531 1482.84 321.383C1482.99 321.234 1483.18 321.124 1483.38 321.059C1483.57 320.995 1483.78 320.977 1483.98 321.008C1485.14 321.176 1486.05 321.825 1486.72 322.956C1486.93 323.315 1487.26 323.587 1487.64 323.72C1488.02 323.854 1488.41 323.839 1488.76 323.678C1501.79 317.5 1508.86 321.322 1509.97 335.145C1509.99 335.376 1510.28 337.596 1510.84 341.805C1511.47 346.371 1510.1 349.754 1506.73 351.953Z" fill="#F3E6D4"/>
<path d="M1506.73 351.953C1504.8 344.936 1504.61 338.297 1506.16 332.035L1506.73 351.953Z" fill="#F3E6D4"/>
</svg>
