<svg width="688" height="573" viewBox="0 0 688 573" fill="none" xmlns="http://www.w3.org/2000/svg">
<g clip-path="url(#clip0_802_152)">
<g clip-path="url(#clip1_802_152)">
<path d="M312.5 169.465C312.5 153.612 325.178 140.934 341.031 140.934C347.692 140.934 355.045 143.799 360.083 148.264C360.847 148.956 360.847 149.601 360.083 150.365L357.719 152.728C357.027 153.421 356.311 153.421 355.666 152.728C351.727 149.314 346.331 147.261 341.031 147.261C328.663 147.261 318.803 157.026 318.803 169.489C318.803 181.951 328.663 191.716 341.031 191.716C346.331 191.716 351.703 189.663 355.666 186.177C356.311 185.557 357.051 185.557 357.719 186.249L360.083 188.613C360.847 189.377 360.847 190.021 360.083 190.714C355.045 195.178 347.692 198.043 341.031 198.043C325.178 198.043 312.5 185.366 312.5 169.513V169.465Z" fill="#F3E6D4"/>
<path d="M371.853 195.775V143.131C371.853 142.152 372.355 141.65 373.333 141.65H376.676C377.655 141.65 378.156 142.152 378.156 143.131V165C378.156 165.979 378.705 166.48 379.636 166.48H406.854C407.785 166.48 408.334 165.979 408.334 165V143.131C408.334 142.152 408.836 141.65 409.814 141.65H413.157C414.088 141.65 414.637 142.152 414.637 143.131V195.775C414.637 196.754 414.088 197.255 413.157 197.255H409.814C408.836 197.255 408.334 196.754 408.334 195.775V173.834C408.334 172.855 407.785 172.354 406.854 172.354H379.636C378.705 172.354 378.156 172.855 378.156 173.834V195.775C378.156 196.754 377.655 197.255 376.676 197.255H373.333C372.355 197.255 371.853 196.754 371.853 195.775Z" fill="#F3E6D4"/>
<path d="M425.429 195.56L447.155 142.773C447.441 141.937 448.062 141.65 448.85 141.65H452.121C452.956 141.65 453.53 141.937 453.816 142.773L475.542 195.56C476.02 196.611 475.542 197.255 474.444 197.255H471.078C470.29 197.255 469.693 196.826 469.383 196.062L465.252 185.867C464.918 185.103 464.345 184.673 463.557 184.673H437.533C436.698 184.673 436.125 185.103 435.838 185.867L431.612 196.062C431.326 196.826 430.705 197.255 429.917 197.255H426.575C425.453 197.255 425.023 196.611 425.453 195.56H425.429ZM460.525 178.728C461.599 178.728 462.077 178.084 461.695 177.033L451.476 151.654C450.927 150.484 450.068 150.484 449.519 151.654L439.3 177.033C438.942 178.084 439.372 178.728 440.494 178.728H460.525Z" fill="#F3E6D4"/>
<path d="M486.334 195.775V143.131C486.334 142.152 486.835 141.65 487.814 141.65H492.183C492.971 141.65 493.663 142.009 493.95 142.773L512.549 184.172C513.05 185.342 513.957 185.342 514.459 184.172L532.986 142.773C533.32 142.009 533.964 141.65 534.8 141.65H539.145C540.124 141.65 540.626 142.152 540.626 143.131V195.775C540.626 196.754 540.124 197.255 539.145 197.255H535.803C534.872 197.255 534.323 196.754 534.323 195.775V157.79C534.323 156.334 533.224 156.023 532.627 157.432L515.366 196.133C515.079 196.897 514.387 197.255 513.599 197.255H513.313C512.477 197.255 511.832 196.897 511.498 196.133L494.308 157.503C493.735 156.095 492.613 156.405 492.613 157.909V195.775C492.613 196.754 492.112 197.255 491.133 197.255H487.79C486.811 197.255 486.31 196.754 486.31 195.775H486.334Z" fill="#F3E6D4"/>
<path d="M556.502 195.775V143.131C556.502 142.152 557.004 141.65 557.983 141.65H574.671C583.171 141.65 590.095 147.739 590.095 156.501C590.095 161.467 588.161 165.287 584.723 167.77C583.863 168.414 583.863 168.892 584.914 169.25C590.596 171.232 594.082 175.983 594.082 182.572C594.082 191.263 587.277 197.279 578.826 197.279H557.959C556.98 197.279 556.479 196.778 556.479 195.799L556.502 195.775ZM573.979 166.48C579.422 166.48 583.792 162.398 583.792 157.002C583.792 151.606 580.974 147.595 573.979 147.595H564.214C563.283 147.595 562.734 148.097 562.734 149.076V165C562.734 165.979 563.283 166.48 564.214 166.48H573.979ZM577.99 191.334C584.15 191.334 587.779 187.18 587.779 181.856C587.779 176.532 583.433 172.449 577.99 172.449H564.19C563.259 172.449 562.71 172.951 562.71 173.929V189.854C562.71 190.833 563.259 191.334 564.19 191.334H577.99Z" fill="#F3E6D4"/>
<path d="M605.78 195.775V143.131C605.78 142.152 606.282 141.65 607.261 141.65H634.86C635.839 141.65 636.34 142.152 636.34 143.131V146.091C636.34 147.07 635.839 147.571 634.86 147.571H613.564C612.633 147.571 612.083 148.073 612.083 149.052V165.048C612.083 166.027 612.633 166.528 613.564 166.528H631.733C632.711 166.528 633.213 167.03 633.213 168.008V170.969C633.213 171.948 632.711 172.449 631.733 172.449H613.564C612.633 172.449 612.083 172.951 612.083 173.929V189.782C612.083 190.761 612.633 191.263 613.564 191.263H634.86C635.839 191.263 636.34 191.764 636.34 192.743V195.703C636.34 196.682 635.839 197.184 634.86 197.184H607.261C606.282 197.184 605.78 196.682 605.78 195.703V195.775Z" fill="#F3E6D4"/>
<path d="M648.397 195.775V143.131C648.397 142.152 648.899 141.65 649.878 141.65H669.24C677.883 141.65 684.807 148.646 684.807 157.217C684.807 163.806 680.867 169.25 675.137 171.446C674.206 171.852 673.896 172.497 674.421 173.404L687.314 195.489C687.934 196.42 687.457 197.255 686.311 197.255H682.729C681.942 197.255 681.321 196.969 680.963 196.205L668.142 173.619C667.784 172.855 667.163 172.569 666.375 172.569H656.204C655.273 172.569 654.724 173.07 654.724 174.049V195.775C654.724 196.754 654.223 197.255 653.244 197.255H649.901C648.922 197.255 648.421 196.754 648.421 195.775H648.397ZM656.18 166.624H668.643C674.158 166.624 678.528 163.281 678.528 157.265C678.528 151.248 674.158 147.571 668.643 147.571H656.18C655.249 147.571 654.7 148.073 654.7 149.052V165.12C654.7 166.098 655.249 166.6 656.18 166.6V166.624Z" fill="#F3E6D4"/>
<path d="M316.344 280.842V228.197C316.344 227.219 316.845 226.717 317.824 226.717H322.193C322.981 226.717 323.673 227.075 323.96 227.839L342.558 269.239C343.06 270.408 343.967 270.408 344.468 269.239L362.995 227.839C363.33 227.075 363.974 226.717 364.81 226.717H369.155C370.134 226.717 370.636 227.219 370.636 228.197V280.842C370.636 281.821 370.134 282.322 369.155 282.322H365.813C364.882 282.322 364.333 281.821 364.333 280.842V242.857C364.333 241.4 363.234 241.09 362.637 242.499L345.376 281.2C345.089 281.964 344.397 282.322 343.609 282.322H343.323C342.487 282.322 341.842 281.964 341.508 281.2L324.318 242.57C323.745 241.162 322.623 241.472 322.623 242.976V280.842C322.623 281.821 322.121 282.322 321.143 282.322H317.8C316.821 282.322 316.32 281.821 316.32 280.842H316.344Z" fill="#F3E6D4"/>
<path d="M385.366 264.082V228.197C385.366 227.219 385.916 226.717 386.847 226.717H390.213C391.144 226.717 391.669 227.219 391.669 228.197V262.673C391.669 272.844 397.829 277.141 406.376 277.141C414.924 277.141 421.155 272.844 421.155 262.673V228.197C421.155 227.219 421.656 226.717 422.635 226.717H425.978C426.909 226.717 427.458 227.219 427.458 228.197V264.082C427.458 275.064 418.624 283.062 406.376 283.062C394.129 283.062 385.366 275.064 385.366 264.082Z" fill="#F3E6D4"/>
<path d="M438.058 275.35C437.485 274.706 437.557 273.966 438.25 273.297L440.589 270.957C441.282 270.265 441.998 270.265 442.666 271.101C445.961 274.945 450.163 277.404 455.511 277.404C461.957 277.404 466.852 273.679 466.852 267.925C466.852 261.551 460.978 259.02 454.771 256.418C447.131 253.218 439.897 250.043 439.897 240.636C439.897 231.229 446.63 226.049 455.32 226.049C461.91 226.049 466.876 228.842 470.409 232.566C471.102 233.211 471.102 233.975 470.409 234.62L468.571 236.53C467.926 237.294 467.162 237.222 466.446 236.458C462.578 232.757 459.379 231.707 455.463 231.707C450.33 231.707 445.913 234.667 445.913 240.183C445.913 246.486 451.882 248.754 458.305 251.38C465.324 254.269 472.892 257.683 472.892 267.663C472.892 277.642 465.181 283.086 455.989 283.086C448.707 283.086 442.189 279.743 438.106 275.374L438.058 275.35Z" fill="#F3E6D4"/>
<path d="M484.519 280.842V228.197C484.519 227.219 485.021 226.717 486 226.717H489.342C490.321 226.717 490.822 227.219 490.822 228.197V280.842C490.822 281.821 490.321 282.322 489.342 282.322H486C485.021 282.322 484.519 281.821 484.519 280.842Z" fill="#F3E6D4"/>
<path d="M502.831 254.531C502.831 238.678 515.509 226.001 531.362 226.001C538.023 226.001 545.377 228.866 550.414 233.33C551.178 234.023 551.178 234.667 550.414 235.431L548.051 237.795C547.358 238.487 546.642 238.487 545.997 237.795C542.058 234.381 536.662 232.328 531.362 232.328C518.995 232.328 509.134 242.093 509.134 254.555C509.134 267.018 518.995 276.783 531.362 276.783C536.662 276.783 542.034 274.73 545.997 271.244C546.642 270.623 547.382 270.623 548.051 271.316L550.414 273.679C551.178 274.443 551.178 275.088 550.414 275.78C545.377 280.245 538.023 283.11 531.362 283.11C515.509 283.11 502.831 270.432 502.831 254.579V254.531Z" fill="#F3E6D4"/>
<path d="M312.237 360.417C311.664 359.773 311.736 359.032 312.428 358.364L314.768 356.024C315.46 355.332 316.177 355.332 316.845 356.167C320.14 360.011 324.342 362.47 329.69 362.47C336.136 362.47 341.031 358.746 341.031 352.992C341.031 346.617 335.157 344.087 328.95 341.484C321.31 338.285 314.076 335.11 314.076 325.703C314.076 316.296 320.808 311.115 329.499 311.115C336.088 311.115 341.054 313.909 344.588 317.633C345.28 318.278 345.28 319.042 344.588 319.686L342.75 321.596C342.105 322.36 341.341 322.289 340.625 321.525C336.757 317.824 333.558 316.774 329.642 316.774C324.509 316.774 320.092 319.734 320.092 325.249C320.092 331.552 326.061 333.82 332.483 336.447C339.503 339.335 347.071 342.75 347.071 352.729C347.071 362.709 339.359 368.153 330.167 368.153C322.886 368.153 316.368 364.81 312.285 360.441L312.237 360.417Z" fill="#F3E6D4"/>
<path d="M354.878 339.598C354.878 323.817 367.627 311.068 383.409 311.068C399.19 311.068 411.987 323.817 411.987 339.598C411.987 355.38 399.214 368.129 383.409 368.129C367.603 368.129 354.878 355.38 354.878 339.598ZM405.684 339.598C405.684 327.207 395.8 317.371 383.409 317.371C371.018 317.371 361.181 327.207 361.181 339.598C361.181 351.989 371.113 361.826 383.409 361.826C395.704 361.826 405.684 351.989 405.684 339.598Z" fill="#F3E6D4"/>
<path d="M420.081 339.598C420.081 323.745 432.758 311.068 448.611 311.068C455.272 311.068 462.626 313.933 467.664 318.397C468.428 319.09 468.428 319.734 467.664 320.498L465.3 322.862C464.608 323.554 463.891 323.554 463.247 322.862C459.307 319.448 453.911 317.394 448.611 317.394C436.244 317.394 426.384 327.159 426.384 339.622C426.384 352.085 436.244 361.85 448.611 361.85C453.911 361.85 459.283 359.796 463.247 356.311C463.891 355.69 464.631 355.69 465.3 356.382L467.664 358.746C468.428 359.51 468.428 360.155 467.664 360.847C462.626 365.312 455.272 368.177 448.611 368.177C432.758 368.177 420.081 355.499 420.081 339.646V339.598Z" fill="#F3E6D4"/>
<path d="M479.434 365.932V313.288C479.434 312.309 479.935 311.808 480.914 311.808H484.257C485.236 311.808 485.737 312.309 485.737 313.288V365.932C485.737 366.911 485.236 367.413 484.257 367.413H480.914C479.935 367.413 479.434 366.911 479.434 365.932Z" fill="#F3E6D4"/>
<path d="M501.566 365.932V313.288C501.566 312.309 502.067 311.808 503.046 311.808H530.646C531.625 311.808 532.126 312.309 532.126 313.288V316.248C532.126 317.227 531.625 317.729 530.646 317.729H509.349C508.418 317.729 507.869 318.23 507.869 319.209V335.205C507.869 336.184 508.418 336.685 509.349 336.685H527.518C528.497 336.685 528.998 337.187 528.998 338.166V341.126C528.998 342.105 528.497 342.606 527.518 342.606H509.349C508.418 342.606 507.869 343.108 507.869 344.087V359.94C507.869 360.919 508.418 361.42 509.349 361.42H530.646C531.625 361.42 532.126 361.921 532.126 362.9V365.861C532.126 366.84 531.625 367.341 530.646 367.341H503.046C502.067 367.341 501.566 366.84 501.566 365.861V365.932Z" fill="#F3E6D4"/>
<path d="M553.828 365.932V319.233C553.828 318.254 553.327 317.752 552.348 317.752H540.029C539.098 317.752 538.548 317.251 538.548 316.272V313.312C538.548 312.333 539.098 311.831 540.029 311.831H573.907C574.886 311.831 575.388 312.333 575.388 313.312V316.272C575.388 317.251 574.886 317.752 573.907 317.752H561.612C560.68 317.752 560.131 318.254 560.131 319.233V365.932C560.131 366.911 559.63 367.412 558.651 367.412H555.309C554.377 367.412 553.828 366.911 553.828 365.932Z" fill="#F3E6D4"/>
<path d="M598.904 365.932V342.224C598.904 341.532 598.761 340.959 598.355 340.338L580.64 313.574C579.948 312.643 580.425 311.808 581.619 311.808H586.107C586.943 311.808 587.444 312.023 587.922 312.787L601.029 333.606C601.65 334.584 602.51 334.584 603.106 333.606L616.262 312.787C616.691 312.023 617.24 311.808 618.028 311.808H622.397C623.591 311.808 624.021 312.643 623.376 313.574L605.709 340.267C605.351 340.887 605.207 341.46 605.207 342.153V365.932C605.207 366.911 604.658 367.413 603.727 367.413H600.385C599.406 367.413 598.904 366.911 598.904 365.932Z" fill="#F3E6D4"/>
<path d="M335.706 412.87C335.706 414.088 335.587 415.329 335.348 416.619C335.11 417.884 334.775 419.102 334.298 420.295C333.82 421.465 333.223 422.587 332.507 423.614C331.791 424.641 330.931 425.572 329.953 426.336C328.974 427.124 327.852 427.721 326.61 428.174C325.369 428.628 323.984 428.867 322.432 428.867C320.88 428.867 319.495 428.676 318.349 428.294C317.227 427.912 316.296 427.362 315.556 426.646C314.84 425.93 314.291 425.023 313.956 423.972C313.598 422.922 313.431 421.728 313.431 420.391C313.431 419.173 313.55 417.932 313.765 416.643C313.98 415.353 314.338 414.16 314.816 412.966C315.293 411.772 315.89 410.698 316.606 409.647C317.323 408.597 318.182 407.689 319.161 406.902C320.14 406.114 321.262 405.517 322.504 405.063C323.745 404.61 325.13 404.371 326.682 404.371C328.234 404.371 329.618 404.562 330.764 404.944C331.91 405.326 332.818 405.875 333.558 406.615C334.298 407.331 334.823 408.239 335.181 409.289C335.539 410.34 335.706 411.533 335.706 412.846V412.87ZM331.409 413.109C331.409 412.273 331.313 411.533 331.146 410.889C330.979 410.22 330.693 409.671 330.287 409.217C329.881 408.764 329.356 408.43 328.711 408.167C328.066 407.928 327.279 407.785 326.347 407.785C325.369 407.785 324.461 407.952 323.65 408.31C322.838 408.668 322.122 409.146 321.477 409.743C320.832 410.34 320.283 411.056 319.83 411.868C319.352 412.679 318.97 413.539 318.66 414.446C318.349 415.353 318.134 416.308 317.967 417.263C317.824 418.242 317.752 419.173 317.752 420.105C317.752 420.94 317.848 421.68 318.039 422.325C318.23 422.993 318.516 423.543 318.922 424.02C319.328 424.474 319.853 424.832 320.498 425.07C321.143 425.309 321.931 425.452 322.838 425.452C323.841 425.452 324.748 425.285 325.56 424.927C326.347 424.569 327.064 424.092 327.708 423.471C328.353 422.874 328.902 422.158 329.356 421.346C329.833 420.534 330.215 419.675 330.526 418.744C330.836 417.812 331.051 416.881 331.218 415.926C331.361 414.971 331.433 414.016 331.433 413.109H331.409Z" fill="#F3E6D4"/>
<path d="M360.298 395.346C360.298 395.346 360.298 395.513 360.274 395.657C360.274 395.8 360.25 395.967 360.226 396.134C360.202 396.301 360.154 396.492 360.107 396.683C360.059 396.874 359.987 397.041 359.94 397.208C359.868 397.376 359.796 397.495 359.725 397.59C359.653 397.686 359.558 397.734 359.462 397.734C359.343 397.734 359.199 397.71 359.032 397.638C358.865 397.567 358.65 397.495 358.435 397.423C358.197 397.352 357.934 397.28 357.624 397.208C357.313 397.137 356.955 397.113 356.573 397.113C355.857 397.113 355.26 397.232 354.759 397.423C354.257 397.638 353.828 397.973 353.469 398.426C353.111 398.88 352.801 399.453 352.562 400.145C352.323 400.838 352.109 401.649 351.918 402.604L351.488 404.825H356.454C356.645 404.825 356.788 404.872 356.884 405.016C356.979 405.135 357.051 405.35 357.051 405.612C357.051 405.803 357.051 405.995 357.003 406.186C356.955 406.377 356.931 406.567 356.884 406.758C356.836 406.949 356.764 407.141 356.693 407.308C356.621 407.475 356.525 407.642 356.454 407.761C356.358 407.881 356.263 408 356.143 408.072C356.024 408.167 355.905 408.191 355.785 408.191H350.795L346.57 429.273C346.283 430.657 345.901 431.851 345.424 432.878C344.946 433.904 344.349 434.74 343.657 435.408C342.964 436.077 342.153 436.578 341.269 436.889C340.362 437.223 339.335 437.366 338.189 437.366C337.449 437.366 336.852 437.318 336.375 437.199C335.897 437.08 335.611 436.984 335.492 436.889C335.42 436.793 335.372 436.722 335.348 436.602C335.324 436.483 335.301 436.363 335.301 436.196C335.301 436.125 335.301 436.029 335.348 435.862C335.396 435.695 335.396 435.552 335.444 435.361C335.468 435.194 335.515 435.003 335.563 434.812C335.611 434.621 335.683 434.43 335.73 434.286C335.778 434.143 335.874 434 335.945 433.904C336.017 433.809 336.112 433.761 336.232 433.761C336.351 433.761 336.47 433.761 336.566 433.809C336.685 433.833 336.781 433.857 336.924 433.88C337.067 433.904 337.211 433.928 337.378 433.952C337.545 433.976 337.76 434 338.022 434C338.715 434 339.312 433.904 339.813 433.689C340.314 433.475 340.744 433.14 341.102 432.687C341.46 432.233 341.747 431.66 341.986 430.968C342.224 430.275 342.439 429.44 342.63 428.461L346.689 408.215H343.514C343.346 408.215 343.227 408.167 343.132 408.048C343.036 407.952 342.988 407.737 342.988 407.451C342.988 407.332 342.988 407.164 343.012 406.973C343.012 406.782 343.06 406.591 343.108 406.4C343.155 406.209 343.203 406.018 343.275 405.827C343.346 405.66 343.418 405.469 343.514 405.326C343.609 405.183 343.705 405.063 343.824 404.968C343.919 404.872 344.063 404.825 344.23 404.825H347.357L347.978 401.721C348.241 400.384 348.623 399.19 349.124 398.164C349.626 397.137 350.222 396.301 350.915 395.657C351.607 395.012 352.419 394.511 353.35 394.176C354.281 393.842 355.284 393.699 356.382 393.699C356.74 393.699 357.122 393.699 357.528 393.77C357.91 393.818 358.292 393.866 358.626 393.938C358.961 394.009 359.271 394.105 359.51 394.2C359.749 394.296 359.94 394.391 360.035 394.487C360.131 394.582 360.202 394.678 360.25 394.845C360.298 394.988 360.322 395.155 360.322 395.322L360.298 395.346Z" fill="#F3E6D4"/>
<path d="M380.735 427.386V391.407C380.735 390.738 381.093 390.404 381.737 390.404H395.489C402.437 390.404 407.14 395.585 407.14 401.96C407.14 408.334 402.437 413.42 395.489 413.42H386.059C385.414 413.42 385.056 413.754 385.056 414.422V427.386C385.056 428.055 384.698 428.389 384.053 428.389H381.785C381.117 428.389 380.782 428.031 380.782 427.386H380.735ZM395.084 409.552C399.835 409.552 402.843 406.711 402.843 402.007C402.843 397.304 399.835 394.272 395.084 394.272H386.059C385.414 394.272 385.056 394.63 385.056 395.275V408.549C385.056 409.218 385.438 409.552 386.059 409.552H395.084Z" fill="#F3E6D4"/>
<path d="M410.984 415.282C410.984 407.761 417.072 401.697 424.163 401.697C427.864 401.697 430.968 403.01 433.26 405.183C433.928 405.851 434.43 405.636 434.43 404.729V403.201C434.43 402.556 434.788 402.198 435.432 402.198H437.366C438.035 402.198 438.369 402.556 438.369 403.201V427.386C438.369 428.055 438.035 428.389 437.366 428.389H435.432C434.764 428.389 434.43 428.031 434.43 427.386V425.882C434.43 424.975 433.976 424.689 433.427 425.262C431.159 427.53 428.007 428.891 424.187 428.891C417.12 428.891 411.008 422.826 411.008 415.282H410.984ZM434.406 415.282C434.406 409.886 430.108 405.517 424.689 405.517C419.269 405.517 414.971 409.886 414.971 415.282C414.971 420.678 419.341 425.071 424.689 425.071C430.037 425.071 434.406 420.701 434.406 415.282Z" fill="#F3E6D4"/>
<path d="M449.519 427.386V391.407C449.519 390.738 449.877 390.404 450.521 390.404H452.455C453.1 390.404 453.458 390.762 453.458 391.407V427.386C453.458 428.055 453.076 428.389 452.455 428.389H450.521C449.853 428.389 449.519 428.031 449.519 427.386Z" fill="#F3E6D4"/>
<path d="M464.631 427.386V403.201C464.631 402.556 464.99 402.198 465.634 402.198H467.568C468.213 402.198 468.571 402.556 468.571 403.201V404.013C468.571 404.92 469.024 405.039 469.621 404.323C471.078 402.652 473.226 401.697 475.853 401.697C478.479 401.697 480.914 402.604 482.394 404.801C482.848 405.398 483.206 405.445 483.66 404.848C485.307 402.819 487.671 401.697 490.56 401.697C495.884 401.697 499.584 405.541 499.584 410.555V427.386C499.584 428.055 499.226 428.389 498.582 428.389H496.648C496.003 428.389 495.645 428.031 495.645 427.386V412.13C495.645 407.164 493.019 405.517 490.011 405.517C486.62 405.517 484.09 407.642 484.09 412.178V427.386C484.09 428.055 483.708 428.389 483.087 428.389H481.153C480.484 428.389 480.15 428.031 480.15 427.386V412.13C480.15 407.164 477.5 405.517 474.492 405.517C471.054 405.517 468.571 407.642 468.571 412.178V427.386C468.571 428.055 468.189 428.389 467.568 428.389H465.634C464.966 428.389 464.631 428.031 464.631 427.386Z" fill="#F3E6D4"/>
<path d="M528.545 427.386V391.407C528.545 390.738 528.903 390.404 529.548 390.404H540.96C546.785 390.404 551.513 394.558 551.513 400.551C551.513 403.941 550.199 406.567 547.836 408.239C547.239 408.692 547.239 409.003 547.955 409.241C551.847 410.602 554.21 413.849 554.21 418.362C554.21 424.307 549.555 428.413 543.801 428.413H529.548C528.879 428.413 528.545 428.055 528.545 427.41V427.386ZM540.506 407.355C544.207 407.355 547.215 404.562 547.215 400.861C547.215 397.161 545.281 394.415 540.506 394.415H533.821C533.177 394.415 532.818 394.773 532.818 395.418V406.305C532.818 406.973 533.2 407.308 533.821 407.308H540.506V407.355ZM543.252 424.33C547.454 424.33 549.937 421.489 549.937 417.836C549.937 414.184 546.976 411.39 543.252 411.39H533.821C533.177 411.39 532.818 411.748 532.818 412.393V423.28C532.818 423.948 533.2 424.283 533.821 424.283H543.252V424.33Z" fill="#F3E6D4"/>
<path d="M561.468 415.282C561.468 407.761 567.509 401.697 575.101 401.697C582.693 401.697 588.495 407.475 588.734 414.613V414.709C588.686 415.33 588.256 415.712 587.659 415.712H566.196C565.551 415.712 565.121 416.117 565.265 416.786C565.909 421.656 570.111 425.285 575.101 425.285C578.205 425.285 581.022 423.925 582.86 421.609C583.29 421.083 583.72 420.94 584.293 421.179L585.749 421.8C586.418 422.11 586.561 422.611 586.203 423.161C583.72 426.694 579.733 428.891 575.173 428.891C567.485 428.891 561.492 422.826 561.492 415.282H561.468ZM583.362 412.536C584.054 412.536 584.484 412.083 584.15 411.366C582.693 407.737 579.255 405.278 575.101 405.278C570.947 405.278 567.461 407.713 565.981 411.366C565.694 412.083 566.076 412.536 566.792 412.536H583.386H583.362Z" fill="#F3E6D4"/>
<path d="M594.965 415.282C594.965 407.761 601.053 401.697 608.144 401.697C611.845 401.697 614.948 403.01 617.24 405.183C617.909 405.851 618.41 405.636 618.41 404.729V403.201C618.41 402.556 618.768 402.198 619.413 402.198H621.347C622.015 402.198 622.35 402.556 622.35 403.201V427.386C622.35 428.055 622.015 428.389 621.347 428.389H619.413C618.745 428.389 618.41 428.031 618.41 427.386V425.882C618.41 424.975 617.957 424.689 617.408 425.262C615.139 427.53 611.988 428.891 608.168 428.891C601.101 428.891 594.989 422.826 594.989 415.282H594.965ZM618.386 415.282C618.386 409.886 614.089 405.517 608.669 405.517C603.25 405.517 598.952 409.886 598.952 415.282C598.952 420.678 603.321 425.071 608.669 425.071C614.017 425.071 618.386 420.701 618.386 415.282Z" fill="#F3E6D4"/>
<path d="M631.255 415.282C631.255 407.713 637.343 401.697 644.935 401.697C649.233 401.697 653.053 403.631 655.584 406.639C655.966 407.164 655.87 407.642 655.393 408.072L653.745 409.241C653.244 409.647 652.743 409.552 652.337 409.05C650.594 406.878 648.039 405.541 644.935 405.541C639.42 405.541 635.218 409.791 635.218 415.306C635.218 420.821 639.42 425.023 644.935 425.023C648.039 425.023 650.594 423.71 652.337 421.513C652.719 421.012 653.244 420.916 653.745 421.322L655.393 422.492C655.894 422.85 655.989 423.352 655.631 423.877C653.101 426.909 649.257 428.867 644.935 428.867C637.343 428.867 631.255 422.85 631.255 415.306V415.282Z" fill="#F3E6D4"/>
<path d="M664.417 427.386V391.407C664.417 390.738 664.776 390.404 665.42 390.404H667.139C667.784 390.404 668.142 390.762 668.142 391.407V404.132C668.142 405.039 668.596 405.135 669.216 404.49C670.864 402.676 673.156 401.721 675.949 401.721C681.798 401.721 686.454 405.469 686.454 413.229V427.41C686.454 428.079 686.096 428.413 685.451 428.413H683.78C683.135 428.413 682.777 428.055 682.777 427.41V413.515C682.777 407.57 679.53 405.35 675.495 405.35C671.461 405.35 668.237 408 668.19 413.276V427.41C668.19 428.079 667.832 428.413 667.187 428.413H665.468C664.799 428.413 664.465 428.055 664.465 427.41L664.417 427.386Z" fill="#F3E6D4"/>
<path d="M478.216 460.597C463.796 460.597 450.115 467.138 441.138 478.431C416.667 509.087 400.694 531.959 356.907 543.992C328.735 551.704 298.008 544.613 277.714 523.627C276.664 522.528 275.637 521.43 274.634 520.236C258.972 502.067 253.171 476.975 244.289 438.966C240.111 420.797 235.288 400.265 228.46 375.96C213.729 323.626 192.122 297.53 173.046 274.539C151.033 247.99 132.053 225.118 131.599 167.746C131.193 109.013 155.02 65.6802 202.221 38.7254C202.365 38.6299 202.484 38.5821 202.651 38.5105C227.433 25.809 254.985 19.2911 282.799 18.933C283.945 18.8853 285.044 18.8853 286.19 18.8853C359.343 18.8853 398.904 48.4186 442.165 96.2403C451.142 106.148 463.915 111.783 477.285 111.783H506.962C509.349 111.783 510.71 108.99 509.206 107.151C460.31 46.4131 387.181 5.8495 304.908 0.597001C132.387 -10.4332 -10.4333 132.387 0.59694 304.908C9.71719 447.489 124.938 562.71 267.519 571.83C365.144 578.085 453.291 535.039 509.421 465.228C510.925 463.366 509.564 460.597 507.177 460.597H478.24H478.216ZM18.8852 286.214C18.8852 259.044 22.9917 232.853 30.5601 208.118C26.7162 225.977 24.7346 244.313 24.7346 263.007C24.9017 342.583 59.6159 394.32 99.8214 454.222L102.113 457.66C119.447 483.373 137.735 504.049 157.981 520.666C75.2063 475.232 18.8852 387.181 18.8852 286.214ZM116.056 448.325L113.717 444.887C73.4634 384.889 41.6619 337.473 41.5426 262.959C41.4471 227.696 48.4663 197.351 58.9236 171.638C52.6206 193.03 49.4452 215.639 49.4929 239.18C49.7078 303.499 72.9382 340.505 99.7976 383.409C110.159 399.954 120.879 417.001 131.551 437.366C153.994 479.959 174.55 508.036 198.521 528.235C167.03 510.424 140.576 484.663 116.08 448.301L116.056 448.325ZM230.513 533.153C197.04 513.528 173.142 485.14 144.396 430.586C133.509 409.767 122.622 392.457 112.117 375.697C85.3532 333.009 64.2238 299.297 64.0089 239.156C63.9134 203.582 71.7683 170.277 86.9767 140.433C78.3817 163.401 74.0603 188.398 74.1797 215.377C74.4901 275.733 94.9032 306.34 118.587 341.795C132.268 362.16 147.691 385.319 161.132 417.359C183.432 470.314 200.765 507.702 230.537 533.105L230.489 533.153H230.513ZM243.788 527.948C212.846 504.407 195.512 467.019 172.545 412.608C158.649 379.446 142.868 355.785 128.901 334.919C105.408 299.727 86.8334 271.96 86.5708 215.353C86.4037 175.792 96.2641 140.695 115.889 110.541C104.477 134.488 98.7709 161.562 98.9619 191.573C99.3201 251.189 119.065 277.905 141.913 308.823C158.22 330.86 176.699 355.833 190.976 397.614C194.462 407.833 197.637 417.359 200.622 426.312C217.812 477.715 228.173 508.752 252.335 531.505C254.937 533.941 257.659 536.233 260.5 538.381C254.627 535.373 249.04 531.911 243.788 527.924V527.948ZM259.306 524.104C237.007 503.118 226.956 473.012 210.243 423.089C207.235 414.136 204.06 404.562 200.55 394.344C185.771 351.058 166.815 325.44 150.054 302.759C127.349 272.08 109.443 247.775 109.085 191.525C108.822 149.816 120.449 114.146 143.608 85.2577C131.265 106.602 123.41 133.581 123.625 167.794C124.055 227.935 143.895 251.881 166.886 279.576C185.485 301.971 206.519 327.326 220.82 378.085C227.6 402.198 232.375 422.659 236.554 440.733C245.626 479.888 251.666 505.72 268.618 525.393C274.563 532.317 281.534 538.262 289.174 543.109C278.096 538.572 267.878 532.222 259.33 524.104H259.306Z" fill="#F3E6D4"/>
</g>
</g>
<defs>
<clipPath id="clip0_802_152">
<rect width="687.6" height="573" fill="white"/>
</clipPath>
<clipPath id="clip1_802_152">
<rect width="687.6" height="572.451" fill="white"/>
</clipPath>
</defs>
</svg>
