<svg width="122" height="122" viewBox="0 0 122 122" fill="none" xmlns="http://www.w3.org/2000/svg">
<path fill-rule="evenodd" clip-rule="evenodd" d="M58.7421 4.34298C57.9297 6.73172 57.2272 8.79344 57.1814 8.92459C57.1204 9.0985 57.4105 9.16322 58.2525 9.16322H59.4069L59.6216 8.30416L59.8363 7.44511H61.4088H62.9812L63.249 8.25644L63.5168 9.06777L64.686 9.12465C65.3291 9.15577 65.8554 9.11301 65.8554 9.0292C65.8554 8.94559 65.2116 6.93159 64.4248 4.55374C62.8401 -0.235954 63.0133 0.0074451 61.1897 0.00267259L60.2193 0L58.7421 4.34298ZM71.4572 1.47948C71.3888 1.76831 71.2929 2.14076 71.2442 2.30741C71.1754 2.54241 71.4009 2.66535 72.248 2.85415C72.8489 2.98816 73.3931 3.12886 73.4572 3.16704C73.5214 3.20503 73.2444 4.63411 72.8419 6.34285C72.4392 8.0516 72.0678 9.63283 72.0166 9.85695C71.9368 10.205 72.0456 10.2953 72.7632 10.4774C73.2252 10.5946 73.7278 10.6904 73.88 10.6904C74.1356 10.6904 74.3927 9.75577 75.6578 4.22672C75.7666 3.75119 75.8331 3.74718 77.5439 4.11333C78.1251 4.2376 78.1547 4.21317 78.3618 3.43812C78.4801 2.99599 78.5381 2.5951 78.4909 2.54757C78.3848 2.44066 72.1682 0.954502 71.8275 0.954502C71.6922 0.954502 71.5256 1.19065 71.4572 1.47948ZM46.7159 1.89812C45.2046 2.29233 43.978 2.69227 43.9901 2.78695C44.0615 3.34515 46.0301 11.1912 46.1263 11.3019C46.2243 11.4143 48.1864 10.976 51.4744 10.1072L52.1587 9.92644L51.9637 9.06758C51.8562 8.5951 51.6762 8.21043 51.5637 8.21253C51.4509 8.21463 50.5773 8.41851 49.6222 8.66554L47.8857 9.11473L47.67 8.25167C47.5514 7.7769 47.5226 7.32637 47.6061 7.2502C47.6897 7.17422 48.3977 6.96042 49.1794 6.77524C49.9611 6.58988 50.6556 6.40757 50.7229 6.37015C50.824 6.31365 50.5504 4.80802 50.4047 4.6196C50.3802 4.5881 49.6753 4.73834 48.8381 4.95367C48.0009 5.16901 47.234 5.34521 47.1337 5.34521C47.0335 5.34521 46.8656 5.00426 46.7606 4.58753C46.5497 3.75081 46.461 3.8329 47.995 3.44766C48.4379 3.33636 49.1295 3.15921 49.532 3.05421L50.2637 2.86312L50.0687 2.00426C49.9612 1.53178 49.7812 1.15342 49.6687 1.16335C49.5559 1.17327 48.2271 1.50391 46.7159 1.89812ZM62.0478 4.12497C62.2659 4.8712 62.4444 5.53706 62.4444 5.60445C62.4444 5.67184 62.018 5.72701 61.4969 5.72701C60.9451 5.72701 60.5494 5.64091 60.5494 5.52084C60.5494 5.05867 61.4112 2.51435 61.5266 2.63633C61.595 2.70868 61.8295 3.37875 62.0478 4.12497ZM83.4834 9.11549C82.5075 11.294 81.6747 13.1431 81.6326 13.2244C81.5337 13.4149 83.5356 14.3206 83.6913 14.1556C83.856 13.9815 87.2689 6.34667 87.2689 6.15253C87.2689 5.99694 85.6957 5.15431 85.4054 5.15431C85.3241 5.15431 84.4592 6.93694 83.4834 9.11549ZM32.3178 7.58122C31.1691 8.18084 30.2294 8.73293 30.2294 8.80757C30.2294 8.91676 34.1448 16.5369 34.3197 16.7683C34.3567 16.817 35.8583 16.0163 36.2581 15.735C36.2909 15.7119 36.0137 15.0849 35.6422 14.3418C34.8721 12.801 34.8492 12.6857 35.2824 12.5183C35.4844 12.4402 36.137 12.742 37.0961 13.3569C37.92 13.8853 38.6947 14.3135 38.8177 14.3086C38.9405 14.3036 39.5033 14.0585 40.0682 13.7639L41.0951 13.2282L39.2628 12.1268C38.2549 11.5208 37.433 10.9714 37.4364 10.9056C37.4397 10.8397 37.5676 10.619 37.7207 10.4153C38.0775 9.93999 38.0779 8.72567 37.7214 8.03099C37.2098 7.0343 36.3676 6.49061 35.3353 6.49061C34.575 6.49061 34.0268 6.68877 32.3178 7.58122ZM35.178 8.60216C35.6908 8.87858 35.9676 9.66089 35.7186 10.1296C35.6108 10.3323 35.1863 10.6711 34.7751 10.8825L34.0275 11.2667L33.5498 10.3168C33.2869 9.79433 33.0719 9.323 33.0719 9.26955C33.0719 9.15673 34.4183 8.42061 34.6477 8.40801C34.7326 8.40343 34.9712 8.49067 35.178 8.60216ZM93.6151 9.78364C93.2114 10.918 90.8707 18.3192 90.8749 18.4473C90.8853 18.7544 92.8165 20.0342 93.0591 19.8945C93.6812 19.536 100.518 14.5899 100.525 14.4932C100.53 14.4321 100.144 14.1005 99.6681 13.7559L98.8024 13.1296L96.1623 15.1596C94.7104 16.2762 93.5224 17.1316 93.5224 17.0606C93.5224 16.9897 93.9914 15.6227 94.5647 14.0228C95.1379 12.423 95.6069 11.0333 95.6069 10.9346C95.6069 10.7578 94.0448 9.54502 93.8171 9.54502C93.7526 9.54502 93.6619 9.65249 93.6151 9.78364ZM22.3577 14.4851C20.6479 15.2676 19.3918 17.5206 19.7079 19.2384C20.1199 21.4771 22.2791 23.4807 24.2794 23.4807C26.5368 23.4807 28.8847 21.3812 28.8987 19.3498C28.9025 18.8128 28.8327 18.7374 28.2262 18.6229C27.854 18.5525 27.4276 18.4478 27.2787 18.3902C27.096 18.3196 27.0079 18.4184 27.0079 18.6939C27.0079 19.9531 25.8261 21.1878 24.6198 21.1892C23.3569 21.1907 21.8914 19.6257 21.8914 18.2757C21.8914 17.6499 22.0196 17.3887 22.627 16.7767C23.2501 16.1492 23.4858 16.0356 24.1652 16.0356C24.9048 16.0356 24.9586 16.002 24.8532 15.6061C24.7905 15.3698 24.7378 14.9402 24.7365 14.6516C24.734 14.161 24.6812 14.1268 23.9285 14.1308C23.4854 14.1331 22.7788 14.2925 22.3577 14.4851ZM102.903 22.2725C101.339 23.5938 99.818 24.8795 99.5218 25.1299L98.9834 25.5852L100.83 27.826C101.846 29.0585 102.742 30.1411 102.822 30.2319C102.963 30.3948 104.324 29.4788 104.324 29.2205C104.324 29.1474 103.812 28.4755 103.187 27.7269C102.562 26.9786 102.05 26.2797 102.05 26.174C102.05 25.8685 103.378 24.9299 103.538 25.1217C103.618 25.2166 104.134 25.8319 104.686 26.4888L105.69 27.6832L106.32 27.1569C106.666 26.8675 106.956 26.5848 106.963 26.5288C106.971 26.4731 106.508 25.858 105.935 25.1624C105.361 24.4666 104.897 23.8251 104.903 23.7367C104.915 23.5548 106.021 22.6345 106.098 22.7425C106.408 23.1764 108.385 25.4957 108.472 25.5274C108.536 25.5507 108.881 25.3252 109.239 25.0263L109.89 24.4828L108.007 22.1792C106.971 20.9122 106.039 19.8744 105.935 19.8729C105.83 19.8714 104.466 20.9513 102.903 22.2725ZM54.0154 25.9844C43.4743 27.5307 34.8632 35.979 32.9371 46.6641C32.5227 48.9629 32.5227 53.3597 32.9371 55.6585C34.579 64.7666 41.0979 72.3703 49.7666 75.2884C52.594 76.2402 54.1249 76.4562 57.9911 76.4485C61.2411 76.442 61.7864 76.3922 63.5927 75.936C68.5465 74.6848 72.5298 72.3898 76.0372 68.7661C77.3895 67.3689 77.5657 67.1112 77.3637 66.8264C76.6836 65.8675 71.9994 59.9561 71.9148 59.95C71.8601 59.9459 71.4371 60.466 70.9747 61.1057C67.1622 66.3799 60.0235 68.8936 53.6429 67.2091C47.8775 65.6871 43.179 60.8369 41.7957 54.9793C41.273 52.7664 41.273 49.5562 41.7957 47.3433C42.9111 42.6208 46.274 38.3918 50.6006 36.2705C53.174 35.0086 54.7393 34.6583 57.8016 34.6583C59.9913 34.6583 60.7194 34.7341 61.9706 35.0926C66.122 36.2823 69.4227 38.7234 71.695 42.2844C72.1639 43.0194 72.5798 43.6597 72.6194 43.7072C72.6588 43.7547 74.1333 42.3427 75.896 40.5692L79.1009 37.3449L78.5377 36.5693C74.3567 30.8132 68.718 27.219 62.0794 26.0785C60.1505 25.7471 55.9659 25.6982 54.0154 25.9844ZM7.0101 34.2714C6.30042 35.7908 5.75561 37.0625 5.79919 37.0975C6.15128 37.3794 13.5867 40.8725 13.7279 40.8221C13.8283 40.7864 14.5039 39.5462 15.2293 38.0657L16.548 35.3744L15.7119 34.9651L14.8759 34.556L13.9894 36.3535L13.1031 38.1512L12.3333 37.7603C11.91 37.5453 11.5405 37.3497 11.5122 37.3254C11.484 37.301 11.7942 36.5509 12.2016 35.6583L12.9422 34.0354L12.1438 33.6447L11.3455 33.2539L10.5568 34.8559L9.76808 36.458L9.10237 36.1384C8.73644 35.9624 8.43684 35.7398 8.43684 35.6434C8.43684 35.5472 8.7751 34.7412 9.1884 33.8527L9.93977 32.2371L9.23578 31.9428C8.84844 31.7809 8.47948 31.6171 8.416 31.5787C8.35233 31.5404 7.71978 32.7522 7.0101 34.2714ZM113.129 40.2019C112.088 40.5743 111.027 41.493 110.549 42.4352C109.691 44.1306 110.453 47.1888 111.966 48.1181C112.783 48.62 112.944 48.5906 113.515 47.837L114.009 47.1852L113.222 46.4459C112.581 45.8438 112.417 45.5465 112.339 44.8457C112.256 44.1035 112.316 43.8971 112.775 43.3474C114.092 41.7699 116.524 41.7997 117.279 43.4025C117.658 44.2072 117.668 44.6823 117.324 45.5116L117.06 46.1494L117.773 46.3645C118.81 46.6774 118.907 46.6473 119.209 45.9176C120.024 43.9546 118.976 41.2963 116.981 40.2624C116.133 39.8231 114.27 39.7937 113.129 40.2019ZM60.3284 44.0153C56.8841 44.643 53.0101 46.3138 50.0945 48.4286C48.377 49.6742 45.7218 52.2452 45.8068 52.5801C45.8377 52.702 46.8857 54.6334 48.1354 56.8719L50.4077 60.9421L50.7884 60.4095C52.244 58.3726 53.059 57.4255 54.1471 56.5065C57.2129 53.9171 60.1914 52.741 64.1609 52.5522C68.7536 52.334 72.767 53.8255 76.0558 56.9725C78.4638 59.2768 80.0078 61.8622 80.8511 65.0016C81.4425 67.2038 81.4459 70.8721 80.8585 73.0837C79.2523 79.1307 74.8591 83.5563 68.8565 85.1744C66.6611 85.7662 63.0197 85.7627 60.8336 85.1669C58.9477 84.6528 56.863 83.6688 55.355 82.5804C54.2489 81.7825 52.1557 79.698 51.3586 78.6011L50.9796 78.0796L47.5686 80.6661C45.6926 82.0887 44.1326 83.3236 44.1021 83.4105C44.0047 83.6871 46.2165 86.332 47.7468 87.7691C54.9038 94.4903 65.7299 96.3856 74.7498 92.4966C86.589 87.3917 92.6841 74.3051 89.0671 61.7563C86.4582 52.7043 78.5409 45.6338 69.1942 44.0088C67.1004 43.6448 62.3419 43.6482 60.3284 44.0153ZM2.83541 45.3178C2.54604 46.1519 2.41605 47.2522 2.5938 47.3629C2.7039 47.4315 3.42665 47.5964 4.20019 47.7297C4.97354 47.8631 5.6385 48.0246 5.67791 48.0887C5.71733 48.1527 5.6114 48.8703 5.44293 49.6833C5.09387 51.3659 5.1746 51.3241 3.13084 50.8805C2.45338 50.7335 1.84679 50.672 1.78293 50.744C1.61332 50.9351 1.26976 52.8792 1.40525 52.8807C1.46835 52.8815 3.37852 53.2681 5.64987 53.7398C7.9214 54.2115 9.85222 54.5975 9.94072 54.5975C10.1528 54.5975 10.2742 54.2552 10.4272 53.2282L10.553 52.3827L8.72223 52.0354C7.02507 51.7134 6.89829 51.6582 6.98717 51.2814C7.03985 51.0578 7.18557 50.3381 7.31083 49.6818C7.56836 48.3331 7.50829 48.3593 9.38434 48.775C11.2396 49.186 11.22 49.1927 11.4571 48.079C11.5721 47.5388 11.6159 47.0459 11.5541 46.9838C11.4925 46.9218 9.5223 46.4739 7.17553 45.9885C4.29304 45.3923 2.88525 45.1749 2.83541 45.3178ZM115.031 53.9925C114.114 54.4274 113.37 55.1563 112.964 56.0186C112.536 56.9271 112.567 59.2364 113.021 60.2426C113.754 61.8691 115.494 62.7451 117.646 62.571C120.34 62.3532 121.8 60.7941 121.8 58.1332C121.8 56.3836 121.181 55.0412 120.017 54.2644C119.324 53.8022 119.02 53.7321 117.509 53.6858C116.141 53.6438 115.633 53.7066 115.031 53.9925ZM118.834 56.2133C120.241 56.8058 120.374 58.9464 119.053 59.7554C117.753 60.5519 115.693 60.3911 114.946 59.4351C114.469 58.8235 114.428 57.541 114.865 56.9112C115.507 55.9886 117.477 55.6421 118.834 56.2133ZM1.25479 60.4629L0.799988 60.5494L0.922406 62.9664C0.989678 64.2958 1.0452 65.8772 1.04558 66.481L1.04634 67.5787H2.01582H2.98549L2.85588 66.3592L2.72626 65.1396L4.39708 65.0266C5.31616 64.9645 6.94207 64.8597 8.01047 64.7939L9.95284 64.674V63.533V62.3918L8.57897 62.4987C4.4761 62.8177 2.89037 62.8411 2.72948 62.5853C2.64079 62.4443 2.56689 61.8779 2.56518 61.3267C2.56215 60.2447 2.52633 60.2212 1.25479 60.4629ZM112.189 69.1536C111.727 71.1287 111.198 74.1885 111.302 74.2883C111.372 74.3563 111.781 74.4693 112.21 74.5393L112.989 74.6669L113.322 72.9384C113.63 71.3454 113.687 71.2177 114.059 71.3059C115.272 71.5937 120.159 72.5421 120.429 72.5421C120.665 72.5421 120.796 72.271 120.937 71.4878C121.115 70.4978 121.102 70.4279 120.732 70.3395C119.692 70.0919 112.753 68.7241 112.537 68.7241C112.401 68.7241 112.245 68.9173 112.189 69.1536ZM109.186 80.1304C108.711 81.0731 107.139 84.7968 107.201 84.8321C107.836 85.196 108.769 85.5079 108.87 85.3905C108.943 85.3061 109.25 84.6471 109.553 83.9261C109.856 83.2051 110.193 82.5797 110.302 82.5363C110.412 82.493 111.861 83.0628 113.522 83.8024C115.183 84.5421 116.641 85.1095 116.76 85.0631C117.01 84.9669 117.694 83.2753 117.545 83.1249C117.408 82.9863 109.769 79.6054 109.593 79.6054C109.515 79.6054 109.331 79.8418 109.186 80.1304ZM12.231 82.6514C11.7376 83.626 11.7431 83.6567 12.466 83.9962C12.8016 84.1536 13.2761 84.5832 13.5206 84.9507C15.0762 87.2894 11.1124 90.1525 9.30854 87.993C8.73929 87.3115 8.52951 86.3772 8.79045 85.6858C8.96574 85.2219 8.93637 85.1753 8.40046 85.0675C7.33433 84.8525 6.97163 84.9258 6.85073 85.3802C6.30819 87.4198 7.67562 90.0166 9.70289 90.7964C11.7273 91.5753 14.6132 90.3875 15.6553 88.3468C16.1504 87.3768 16.1431 85.5249 15.6399 84.4776C15.1666 83.4927 14.2373 82.5766 13.3206 82.1916L12.6144 81.8947L12.231 82.6514ZM102.527 92.0094C100.559 94.6625 100.557 94.6679 101.625 95.2994L102.178 95.6258L103.287 94.1062C103.898 93.2705 104.44 92.5867 104.492 92.5867C104.545 92.5867 104.911 92.8125 105.307 93.0885L106.026 93.5906L105.327 94.568C104.942 95.1058 104.469 95.7564 104.276 96.0141C103.93 96.4757 103.931 96.4879 104.361 96.8309C105.368 97.6339 105.362 97.6358 106.41 96.2117C106.95 95.4779 107.472 94.8775 107.571 94.8775C107.67 94.8775 107.995 95.0594 108.293 95.2816L108.836 95.6857L107.708 97.2362L106.581 98.7867L107.205 99.3086C107.549 99.5958 107.877 99.8329 107.934 99.8357C108.078 99.8428 111.527 95.1264 111.518 94.9353C111.512 94.8158 106.566 91.0511 104.725 89.7644C104.406 89.5418 104.205 89.747 102.527 92.0094ZM20.7976 95.1085C20.3047 95.5506 19.7142 96.0769 19.4851 96.2779C19.1991 96.5289 18.1063 96.8306 15.9998 97.24L12.9312 97.8364L13.78 98.7802L14.6288 99.7242L16.3178 99.2777C17.2465 99.0322 18.1127 98.7917 18.2425 98.7434C18.3723 98.6949 18.1356 99.4854 17.7165 100.5L16.9543 102.345L17.3199 102.859C17.5209 103.141 17.8976 103.572 18.1573 103.816L18.6291 104.26L19.6045 101.311L20.58 98.3631L21.8951 97.2408C22.6187 96.6234 23.2099 96.0324 23.2089 95.9274C23.2076 95.73 21.9609 94.3048 21.7898 94.3048C21.7367 94.3048 21.2903 94.6665 20.7976 95.1085ZM95.1745 100.295C93.4307 100.948 92.2179 102.282 92.0566 103.724C91.9666 104.529 91.9867 104.569 92.5815 104.778C93.5305 105.111 93.682 105.052 93.8919 104.267C94.0911 103.522 94.5965 102.933 95.3899 102.52C96.4572 101.965 98.1598 102.978 98.7426 104.515C99.0444 105.311 99.0425 105.389 98.7075 106.069C98.2391 107.018 97.5368 107.505 96.5819 107.542L95.7985 107.572L95.7975 108.36C95.796 109.39 96.1165 109.652 97.1636 109.476C98.2927 109.287 99.2294 108.769 99.9597 107.932C100.784 106.986 101.102 106.167 101.102 104.995C101.102 101.906 97.8205 99.3039 95.1745 100.295ZM26.8953 105.431C25.5502 107.449 24.4496 109.158 24.4496 109.229C24.4496 109.378 26.0702 110.59 26.1464 110.498C26.1742 110.464 26.8527 109.448 27.6539 108.24L29.1109 106.045L28.9809 109.216L28.8507 112.386L29.7164 112.986C30.1924 113.316 30.6518 113.584 30.7372 113.581C30.8227 113.579 31.9966 111.898 33.3459 109.845C35.3258 106.834 35.7461 106.079 35.5251 105.933C34.2549 105.094 33.9699 104.958 33.8579 105.138C33.1071 106.349 30.8973 109.55 30.8471 109.499C30.8111 109.463 30.8721 107.985 30.983 106.216C31.2079 102.626 31.2892 102.923 29.8451 102.063L29.3408 101.763L26.8953 105.431ZM83.5263 107.717C83.0834 107.941 82.7209 108.218 82.7209 108.332C82.7209 108.446 83.3599 109.868 84.1408 111.492C84.9217 113.116 85.5613 114.534 85.5621 114.644C85.5628 114.753 85.0927 115.075 84.5172 115.359L83.4711 115.876L83.8579 116.64C84.0705 117.06 84.2738 117.404 84.3097 117.404C84.4796 117.404 90.6799 114.351 90.6799 114.267C90.6799 114.038 90.0284 112.822 89.9056 112.822C89.8311 112.822 89.3174 113.033 88.7641 113.292L87.758 113.761L86.2818 110.687C85.4698 108.997 84.8054 107.54 84.8054 107.45C84.8054 107.191 84.3968 107.277 83.5263 107.717ZM74.0645 111.17C73.6287 111.291 73.2178 111.446 73.1513 111.515C73.0554 111.614 75.0689 120.012 75.2402 120.229C75.265 120.26 75.7431 120.169 76.3027 120.026C76.9415 119.863 77.3201 119.664 77.3201 119.492C77.3201 118.832 75.2169 110.915 75.0461 110.932C74.9419 110.942 74.5002 111.05 74.0645 111.17ZM47.7092 111.898C47.6143 112.354 47.5635 112.78 47.5963 112.845C47.6289 112.911 48.4462 113.115 49.4125 113.3C50.3785 113.485 51.2193 113.689 51.2807 113.754C51.3421 113.819 51.3158 114.237 51.2222 114.683C51.0242 115.628 50.9501 115.645 48.9666 115.19C48.2351 115.022 47.5959 114.926 47.5461 114.977C47.496 115.027 47.4382 115.438 47.4172 115.889L47.3791 116.711L48.948 117.031C49.811 117.207 50.5424 117.384 50.5735 117.425C50.6046 117.466 50.5576 117.848 50.4691 118.274L50.3082 119.05L48.5123 118.672C47.5245 118.464 46.6784 118.332 46.6317 118.379C46.5853 118.426 46.469 118.815 46.3734 119.244L46.1997 120.023L49.1354 120.629C50.7499 120.963 52.106 121.201 52.1486 121.158C52.2419 121.064 53.9169 112.914 53.9169 112.555C53.9169 112.385 53.0766 112.137 51.3112 111.785C49.8782 111.5 48.5203 111.223 48.2936 111.169C47.9361 111.083 47.8591 111.179 47.7092 111.898ZM62.1597 113.061C62.1139 113.192 61.5319 115.254 60.8666 117.642L59.6566 121.985H60.7575C62.0309 121.985 61.78 122.452 62.8334 118.121C63.1844 116.679 63.5281 115.562 63.5975 115.64C63.6668 115.717 64.1677 117.134 64.7104 118.788L65.6973 121.794L66.5817 121.781C68.2454 121.756 68.2514 121.985 66.4584 117.165L64.8427 112.822H63.5429C62.6737 112.822 62.2155 112.901 62.1597 113.061Z" fill="#F3E6D4"/>
</svg>
