<svg width="898" height="372" viewBox="0 0 898 372" fill="none" xmlns="http://www.w3.org/2000/svg">
<g clip-path="url(#clip0_803_398)">
<path d="M128.958 0H45.21L44.9293 327.102H126.183C153.994 327.102 176.662 304.965 177.504 277.371V216.883C177.535 200.639 169.989 186.14 158.204 176.724C169.989 167.308 177.535 152.841 177.535 136.565V94.6603C176.631 67.0355 153.994 44.9293 126.151 44.9293H89.8275V67.3784H120.882C139.777 67.3784 155.086 82.6875 155.086 101.582V131.265C155.086 144.734 147.322 156.364 136.004 161.945C131.452 164.19 103.578 165.468 98.1212 165.468V187.918C102.767 187.918 129.924 188.853 133.946 190.505C146.356 195.65 155.055 207.872 155.055 222.121V270.418C155.055 289.313 139.746 304.622 120.851 304.622H67.3784V22.4491H125.216C166.529 22.4491 199.984 55.9356 199.984 97.217V274.752C199.984 316.064 166.497 349.52 125.216 349.52H22.4491V22.7297L0 45.21V372H128.958C180.59 372 222.464 330.126 222.464 278.493V93.5067C222.464 41.8738 180.59 0 128.958 0Z" fill="#F3E6D4"/>
<path d="M807.325 244.29H850.914C875.951 244.29 896.311 224.678 896.311 200.577V65.851C896.311 41.7495 875.951 22.1377 850.914 22.1377H807.325C782.288 22.1377 761.928 41.7495 761.928 65.851V200.577C761.928 224.678 782.288 244.29 807.325 244.29ZM787.183 65.8822C787.183 55.6866 796.225 47.4241 807.325 47.4241H850.914C862.014 47.4241 871.056 55.7178 871.056 65.8822V200.608C871.056 210.804 862.014 219.066 850.914 219.066H807.325C796.225 219.066 787.183 210.772 787.183 200.608V65.851V65.8822Z" fill="#F3E6D4"/>
<path d="M684.229 22.1689H640.641C615.604 22.1689 595.244 41.7806 595.244 65.8822V200.608C595.244 224.709 615.604 244.321 640.641 244.321H684.229C709.266 244.321 729.626 224.709 729.626 200.608V189.321H704.402V200.608C704.402 210.804 695.36 219.066 684.261 219.066H640.672C629.572 219.066 620.53 210.772 620.53 200.608V65.851C620.53 55.6554 629.572 47.3929 640.672 47.3929H684.261C695.36 47.3929 704.402 55.6866 704.402 65.851V76.3273H729.626V65.851C729.626 41.7495 709.266 22.1377 684.229 22.1377V22.1689Z" fill="#F3E6D4"/>
<path d="M408.074 182.773V83.997C408.074 49.7934 380.231 21.9814 346.028 21.9814H269.015V244.789H346.028C380.231 244.789 408.074 216.946 408.074 182.742V182.773ZM382.975 83.997V182.773C382.975 203.133 366.419 219.689 346.059 219.689H294.177V47.0808H346.059C366.419 47.0808 382.975 63.637 382.975 83.997Z" fill="#F3E6D4"/>
<path d="M439.41 244.29H564.626V219.066H464.634V146.325H546.261V121.101H464.634V47.3927H564.626V22.1687H439.41V244.29Z" fill="#F3E6D4"/>
<path d="M273.816 348.304V290.84H308.207C315.347 290.84 320.43 293.054 323.61 296.39C325.886 298.76 327.227 301.753 327.227 305.027C327.227 309.953 324.233 314.35 319.993 316.563C326.697 318.839 330.282 324.14 330.282 330.812C330.282 335.396 328.536 339.605 324.919 343.128C321.396 346.464 317.093 348.335 309.267 348.335H273.816V348.304ZM286.475 301.317V313.913H306.711C309.08 313.913 310.92 313.383 312.261 312.073C313.477 310.826 314.194 309.174 314.194 307.428C314.194 305.682 313.477 304.341 312.448 303.281C311.2 301.971 309.548 301.348 306.742 301.348H286.506L286.475 301.317ZM286.475 323.392V337.921H308.831C311.481 337.921 313.664 337.142 315.16 335.707C316.376 334.398 317.187 332.527 317.187 330.687C317.187 328.848 316.407 327.164 315.16 325.855C313.57 324.265 311.543 323.392 308.831 323.392H286.475Z" fill="#F3E6D4"/>
<path d="M416.586 290.84V327.632C416.586 341.974 405.487 350.081 390.271 350.081C375.056 350.081 364.143 341.974 364.143 327.632V290.84H376.802V327.632C376.802 335.208 382.882 339.262 390.271 339.262C398.097 339.262 403.896 335.208 403.896 327.632V290.84H416.555H416.586Z" fill="#F3E6D4"/>
<path d="M454.126 348.304V290.84H466.723V348.304H454.126Z" fill="#F3E6D4"/>
<path d="M517.888 290.84V337.485H551.686V348.304H505.323V290.84H517.919H517.888Z" fill="#F3E6D4"/>
<path d="M582.897 348.304V290.84H609.898C620.468 290.84 627.327 293.834 632.409 299.04C637.429 304.216 640.142 311.45 640.142 319.556C640.142 327.663 637.242 335.489 631.879 340.758C626.953 345.435 620.717 348.335 609.867 348.335H582.866L582.897 348.304ZM609.461 337.485C616.071 337.485 618.784 335.988 621.777 333.338C625.113 330.002 627.047 325.418 627.047 319.619C627.047 314.162 625.363 309.579 622.214 306.336C619.314 303.437 616.227 301.753 609.461 301.753H595.462V337.485H609.461Z" fill="#F3E6D4"/>
<path d="M708.05 323.735H686.848V337.454H724.17V348.273H674.283V290.809H722.143V301.722H686.848V312.884H708.05V323.703V323.735Z" fill="#F3E6D4"/>
<path d="M757.314 348.304V290.84H789.179C797.379 290.84 802.742 293.21 806.421 297.076C809.414 300.256 811.16 304.372 811.16 308.955C811.16 316.345 806.577 322.051 799.562 325.138L813.031 348.273H798.595L786.996 327.164H769.941V348.273H757.345L757.314 348.304ZM769.91 301.504V316.563H790.488C794.885 316.563 798.501 313.383 798.501 308.987C798.501 307.054 797.784 305.308 796.475 303.967C794.448 301.753 791.891 301.504 789.615 301.504H769.91Z" fill="#F3E6D4"/>
<path d="M887.051 305.619C883.621 303.062 876.387 299.446 866.909 299.446C861.203 299.446 856.09 301.566 856.09 306.492C856.09 311.418 863.666 311.949 871.149 312.572C881.625 313.289 897.994 314.505 897.994 330.344C897.994 344.5 886.209 350.05 872.116 350.05C857.243 350.05 847.203 344.157 840.531 338.7L847.671 330.064C852.504 333.93 860.704 339.729 872.303 339.729C879.599 339.729 885.398 336.923 885.398 331.529C885.398 326.135 879.505 324.763 870.868 324.046C858.272 323.267 843.493 321.832 843.493 307.24C843.493 292.649 856.432 289.032 867.252 289.032C879.225 289.032 889.327 293.428 894.253 296.764L887.051 305.557V305.619Z" fill="#F3E6D4"/>
</g>
<defs>
<clipPath id="clip0_803_398">
<rect width="898" height="372" fill="white"/>
</clipPath>
</defs>
</svg>
