<svg width="895" height="397" viewBox="0 0 895 397" fill="none" xmlns="http://www.w3.org/2000/svg">
<g clip-path="url(#clip0_802_382)">
<path d="M59 395.26C47.2 392.46 32.4 383.06 24.4 373.36L21.1 369.36L51.9 368.86L82.8 368.36L83.1 361.16L83.4 353.86H48H12.6L10.9 348.06C10 344.86 9.3 341.06 9.3 339.56V336.86H46.3H83.3V329.86V322.86H46.2H9L9.7 318.26C10 315.66 10.8 311.86 11.5 309.76L12.6 305.86H48H83.3V298.86V291.86L51.6 291.66L19.8 291.36L28.3 282.76C35 276.16 38.7 273.26 45 270.06C61 262.06 22.4 262.76 449.8 263.06L831.8 263.36L839.1 266.06C850 270.06 856.8 274.46 865.8 283.36L873.8 291.36L842.1 291.66L810.3 291.86V298.86V305.86L845.4 306.06L880.6 306.36L881.9 310.06C882.6 312.06 883.5 315.86 883.8 318.36L884.5 322.86H847.4H810.3V329.86V336.86H847.3C889.8 336.86 885.6 335.66 882.7 347.36L881.1 353.86H845.6H810.2L810.5 361.16L810.8 368.36L841.8 368.86L872.8 369.36L864.6 377.56C855.7 386.46 845.4 392.46 833.8 395.36C828.6 396.66 783.5 396.86 446.3 396.76C121 396.66 63.9 396.46 59 395.26ZM345.7 386.46C349.9 384.76 353.6 379.86 355.6 373.36C357.1 368.76 371.3 312.56 371.3 311.36C371.3 310.26 358.6 310.96 357.1 312.16C356 312.96 354.9 317.86 353.4 327.86C352.2 335.86 351.2 343.76 351.2 345.36C351.1 348.36 351.1 348.36 350.3 344.86C349.8 342.96 348.2 334.46 346.7 326.16L343.9 310.86H337.1C331.8 310.86 330.1 311.26 329.6 312.46C329.3 313.26 332.2 326.26 336.1 341.16C340.7 358.46 343 369.26 342.6 370.86C341.3 376.36 337 378.26 330.9 375.86C328.8 375.06 328.2 375.26 327.3 376.86C326.8 377.86 326.3 380.16 326.3 381.86C326.3 384.36 326.9 385.16 329.6 386.36C333.7 388.16 341.5 388.26 345.7 386.46ZM199 365.56L202.8 364.36L203.1 340.96C203.4 314.76 203.2 313.96 196.5 311.16C191.8 309.16 175.6 309.86 170.1 312.16C166.5 313.66 166.3 313.96 166.3 318.36C166.3 321.36 166.8 323.06 167.7 323.46C168.5 323.76 172.5 323.46 176.7 322.86C186.4 321.36 188.3 322.26 188.3 328.16V332.36H180.9C174.9 332.36 173.1 332.76 171.3 334.36C167.3 337.96 165.9 341.96 165.9 349.86C165.8 360.26 168.8 364.86 176.8 366.96C180.7 368.06 194.2 367.16 199 365.56ZM309.9 365.76L314.3 364.66V324.66V284.66L308.2 285.06C299.8 285.66 299.3 286.56 299.3 299.86V310.56L294 310.06C283.9 309.26 277.5 315.76 275.3 329.16C272.7 344.36 275.6 360.26 281.8 364.26C287.3 367.86 299.1 368.46 309.9 365.76ZM447.6 365.96C451.8 364.36 457.1 358.96 458.4 355.06C459.1 353.06 459.6 348.56 459.6 345.16C459.5 337.56 457.3 333.26 447.6 322.76C436.6 310.86 435.3 309.06 435.3 305.36C435.3 302.86 435.9 301.66 437.5 300.76C440.2 299.26 447.2 299.06 453.1 300.16C457.3 301.06 457.3 300.96 458.8 297.46C459.6 295.56 460 293.36 459.7 292.46C458.6 289.66 453.1 288.36 442.3 288.36C433 288.36 431.3 288.66 427.4 290.86C421.6 294.06 418.9 298.76 418.9 305.36C418.9 311.66 421.5 316.26 430.8 326.86C441.1 338.46 443.3 341.76 443.3 345.56C443.3 350.46 441.8 352.66 437.7 353.76C434.4 354.66 428.5 353.76 423.2 351.46C421.3 350.56 419.3 354.56 419.3 359.36C419.3 363.36 422.1 365.66 428.1 366.96C432.4 367.86 444.1 367.26 447.6 365.96ZM506.6 365.46C511.5 363.46 512.5 361.66 511.8 356.46C511.4 353.96 511 351.86 510.8 351.86C510.7 351.86 508.6 352.56 506.3 353.36C501.1 355.16 494.3 355.26 492 353.66C489.8 351.96 487.9 345.86 489.6 345.86C494.3 345.66 510.6 343.96 511 343.56C511.2 343.26 511.9 339.56 512.4 335.36C513.6 326.16 512.3 318.26 509.1 314.86C502.2 307.46 486.1 308.46 479.1 316.66C474.7 321.86 473.8 326.16 473.8 340.86C473.8 353.36 474 354.66 476.2 358.66C478.9 363.26 482.1 365.76 486.8 366.96C490.8 368.06 502.7 367.16 506.6 365.46ZM681.7 365.76C684.6 364.46 685.9 361.16 684.9 357.56C684.4 355.36 683.9 355.16 677.6 355.26C670.8 355.36 670.8 355.36 669 351.86C667.5 348.96 667.3 346.56 667.5 338.36C668.1 323.26 671.4 319.16 680.8 321.76C684.6 322.76 684.6 322.86 685.7 317.76C686.1 315.96 685.7 314.26 684.4 312.76C682.7 310.56 681.7 310.36 674.1 310.36C666.6 310.36 665.2 310.66 661.6 313.06C654.2 317.96 650.6 330.06 651.8 345.86C652.8 358.76 656.3 365.06 663.5 366.96C667.7 368.06 678.2 367.36 681.7 365.76ZM731 365.16C734.7 363.46 735.8 360.56 734.9 355.36C734.5 353.46 734.1 351.86 734 351.86C733.9 351.86 732 352.56 729.8 353.36C724.8 355.16 717.2 355.26 715 353.66C713.2 352.26 711.5 345.86 712.9 345.86C725.3 345.16 733.6 343.96 734.3 342.76C735.7 340.66 736.6 329.26 735.9 324.16C734.6 314.36 729.1 309.86 718.8 309.86C708.2 309.86 701.1 315.06 698.1 325.26C697.4 327.56 696.8 334.66 696.8 341.36C696.8 351.66 697.1 353.96 699 357.36C703.3 365.56 708.9 368.16 720.3 367.36C724.4 366.96 729.2 366.06 731 365.16ZM777 365.36C784.8 362.06 788 356.36 786.8 348.06C786.2 343.76 785.3 342.56 776.5 334.16C768.2 326.16 767 324.66 767.9 323.16C769.1 321.16 776.1 320.76 782 322.16C784.9 322.96 785.4 322.76 786.5 320.36C788.3 316.46 786.5 312.66 782.3 311.16C777.8 309.66 766.5 309.56 760.7 310.96C751.6 313.26 747.3 321.06 750.8 328.86C751.8 331.16 756 335.96 760.8 340.26C765.3 344.36 769.3 348.66 769.6 349.76C769.8 350.86 769.4 352.66 768.6 353.86C767.2 355.86 766.4 356.06 761.4 355.56C758.3 355.26 754.8 354.76 753.7 354.36C751.8 353.76 751.3 354.26 750.3 357.26C749.3 360.36 749.4 361.36 750.7 363.36C751.6 364.76 753.3 366.06 754.6 366.26C755.8 366.56 757.7 366.96 758.8 367.26C762.3 368.16 773 366.96 777 365.36ZM120.2 366.26L123.3 365.66V348.26V330.86H129.3H135.3L135.5 348.66L135.8 366.36L138.7 366.66C140.4 366.86 143.6 366.76 146 366.36L150.3 365.76V327.26V288.76L143.1 289.06L135.8 289.36L135.5 304.16L135.2 318.86H129.3H123.3V303.86V288.76L116.1 289.06L108.8 289.36L108.5 326.86C108.4 347.46 108.5 364.96 108.8 365.56C109.3 366.96 115 367.26 120.2 366.26ZM232.3 365.96L234.8 365.26L235.3 343.36L235.8 321.36L238.4 321.06C239.8 320.86 241.5 321.36 242.1 322.16C242.9 323.06 243.3 330.66 243.5 344.96L243.8 366.36H249.8C260 366.26 259.3 368.06 259.3 342.86C259.3 318.66 258.7 315.46 253.7 312.16C251.4 310.76 248.9 310.36 240.8 310.36C235.3 310.36 228.4 310.96 225.6 311.76L220.3 313.06V339.96V366.86L225.1 366.76C227.7 366.66 230.9 366.36 232.3 365.96ZM540.2 366.26L543.3 365.66V344.76V323.86L546 322.76C547.4 322.26 549.9 322.06 551.3 322.36C553.6 322.86 554.1 322.56 554.7 320.66C556.7 313.16 554.3 309.86 546.8 309.86C541.6 309.86 531.8 312.26 529.6 314.06C528.6 314.86 528.3 321.46 528.3 340.96V366.86H532.7C535.1 366.86 538.5 366.56 540.2 366.26ZM594.7 365.16C595.3 362.96 607.3 311.76 607.3 311.26C607.3 310.16 593.4 310.96 592.5 312.16C591.6 313.16 589.1 330.76 588 342.86C587.7 345.96 587.6 346.06 587.1 343.86C586.8 342.46 585.7 334.66 584.6 326.36L582.8 311.36L575 311.06C568.7 310.86 567.2 311.06 566.7 312.36C565.9 314.36 577 361.56 578.9 364.66C580.2 366.56 581.2 366.86 587.3 366.86C593 366.86 594.3 366.56 594.7 365.16ZM632.6 366.26L636.3 365.56V338.26V310.86H630.7C620.7 310.86 621.3 309.06 621.3 339.86V366.86H625.1C627.1 366.86 630.5 366.56 632.6 366.26ZM634.2 302.46C637.9 298.06 637.5 289.76 633.6 287.16C630 284.76 624 286.76 622.3 290.86C620.9 294.16 621.5 300.16 623.4 302.46C624.9 304.26 632.7 304.26 634.2 302.46Z" fill="#F3E6D4"/>
<path d="M182.4 354.96C179.5 349.66 182.7 339.66 186.7 341.16C188.1 341.76 188.3 342.96 188.1 349.06C187.8 355.66 187.6 356.36 185.6 356.66C184.2 356.86 183 356.26 182.4 354.96Z" fill="#F3E6D4"/>
<path d="M292.2 351.96C291.5 349.66 291.2 343.76 291.4 337.16C291.8 325.36 293.5 320.86 297.3 320.86C299.2 320.86 299.3 321.56 299.3 338.36V355.86H296.3C293.8 355.86 293.2 355.36 292.2 351.96Z" fill="#F3E6D4"/>
<path d="M488.9 330.66C489.8 324.56 491.5 321.36 494 321.06C497 320.66 498.5 323.76 498.1 329.66L497.8 334.36L493 334.66L488.3 334.96L488.9 330.66Z" fill="#F3E6D4"/>
<path d="M712.3 331.56C712.3 323.96 716.3 318.96 719.9 321.96C721 322.86 721.3 324.76 721.1 328.76L720.8 334.36L716.6 334.66C712.3 334.96 712.3 334.96 712.3 331.56Z" fill="#F3E6D4"/>
<path d="M39.3 217.86C21.8 214.86 8.7 206.06 2.3 192.96C0.7 189.66 0 186.56 0 181.66C0 175.76 0.3 174.66 3.1 171.16C11.4 160.86 20.4 157.26 37.5 157.46C50.7 157.66 60.1 159.76 72.9 165.46C77.4 167.46 81.7 169.26 82.6 169.56C83.8 169.86 85.3 167.96 88.3 162.06C90.6 157.66 92.5 153.76 92.5 153.46C92.5 153.06 91.4 152.36 90 151.86C85.3 150.06 73 141.16 68.5 136.26C62.1 129.36 58.1 122.56 54.8 113.36C52.2 105.76 52 104.56 52.1 87.8604C52.1 71.6604 52.3 69.7604 54.8 62.3604C62.1 40.1604 84.9 16.7604 108.5 7.06041C130.5 -1.93959 159.7 -1.03959 185.5 9.46041L194.2 12.9604L202 8.96041C219.8 -0.239593 237.3 -2.73959 240.9 3.26041C242.3 5.56041 238.5 8.86041 228.3 14.1604C224.3 16.2604 219 19.7604 216.6 21.9604L212.3 25.8604L220.4 34.3604C233.6 48.3604 242 63.8604 247.2 83.7604C250.8 97.7604 251.5 121.76 248.6 137.86C247.5 144.16 246.8 149.46 246.9 149.66C247.1 149.76 249 147.76 251.1 145.16C269 123.06 292.9 103.96 310.1 97.7604C318.8 94.6604 330.5 94.6604 336.8 97.7604C346.3 102.36 351.3 112.86 348.6 122.66C343.9 140.26 315.9 165.26 290.8 174.46L283.5 177.16V180.96C283.5 183.56 284.3 185.66 286.1 187.76C290.7 193.26 297.5 192.96 309.9 186.66C325.8 178.66 354.7 150.96 373.7 125.36C385.7 109.26 408.2 75.2604 413.5 65.3604C420.2 52.8604 431.7 34.0604 435.2 29.9604L438.3 26.3604L441.9 28.2604C446.8 30.8604 453.2 37.9604 455.8 43.6604C460 53.2604 460.5 51.9604 430.7 111.56C415.8 141.26 403.3 167.36 402.9 169.36C402.4 171.96 402.7 173.46 403.7 174.46C407.7 178.46 415.3 171.86 445.4 138.46C469.1 112.06 476.9 104.46 487.1 97.8604C504.3 86.6604 522.6 83.6604 530.3 90.8604C536 96.1604 535.2 106.66 528.8 111.56C525.4 114.16 524.5 114.36 517.1 114.16C510.1 113.96 508.8 114.16 506.8 116.06C502.8 119.76 504 128.36 510.5 144.36C512.3 148.76 514.4 154.86 515 157.86C515.8 161.76 516.6 163.36 517.7 163.36C518.6 163.36 524 157.76 529.8 150.86C543.8 134.16 564 113.76 574.5 105.96C599.7 86.9604 623.6 86.0604 632.5 103.76C634 106.66 635.5 111.16 635.9 113.56C637.1 122.26 633.7 136.66 626.9 152.26C624.5 157.76 623.7 160.46 624.5 161.26C625 161.76 625.5 163.26 625.5 164.46C625.5 165.76 625.9 166.96 626.3 167.26C627.9 168.16 637 163.06 640.6 159.26C645.9 153.56 670.1 122.76 677 112.86C685.3 100.96 693.5 92.8604 697.3 92.8604C700.6 92.8604 707.2 97.2604 710.3 101.56C715.3 108.56 715.8 123.06 711.3 131.06C710 133.46 708 136.76 706.9 138.36C705.9 140.06 710.9 136.16 718 129.76C741.9 108.46 760.4 95.9604 769.5 95.0604C775.1 94.5604 780 96.9604 783.6 101.96C787.1 106.96 785.7 111.26 771 140.66C757.5 167.76 754.9 173.96 756 175.86C757.2 177.76 762 176.86 767.5 173.66C774.4 169.76 780.9 163.16 806.9 133.56C819.9 118.76 830.8 107.36 835.6 103.56C851.3 90.9604 867.7 84.6604 878.4 86.9604C885 88.3604 888 90.8604 889.3 96.1604C890.8 102.06 889.4 106.86 884.9 110.76C881.2 114.06 880.3 114.26 870.9 113.96C865.2 113.66 864.6 113.86 862.5 116.56C859.4 120.46 860.2 126.56 865.5 140.46C867.8 146.46 870.4 154.16 871.2 157.66C872 161.06 873.1 163.86 873.6 163.86C874.1 163.86 877 161.56 880.1 158.76C885.1 154.16 886 153.76 889.8 154.06C893.6 154.36 894 154.66 894.3 157.16C895 163.26 884.6 173.66 875 176.46C869.9 177.86 869.7 178.06 866 185.46C859.5 198.76 847.9 208.06 834.3 210.96C827.6 212.46 813.6 211.56 807.1 209.26C797.1 205.76 790.5 195.46 790.5 183.46C790.6 168.16 803.5 160.56 825.4 162.96C830.5 163.56 835 163.66 835.4 163.36C836 162.76 837.5 120.76 836.9 119.96C836.2 119.16 821.4 134.26 808.1 149.46C782.2 178.76 751 205.76 738.8 209.46C732.6 211.36 722.1 211.26 718 209.26C707 204.06 709.1 191.86 727.1 156.36C732.2 146.16 735.9 137.66 735.4 137.26C732.8 135.66 728.2 138.46 720.7 146.16C711.1 156.06 693.5 176.16 684.3 187.86C676.6 197.76 672 202.26 664.9 207.06C655.6 213.36 645.4 214.46 642 209.56C639 205.36 640.1 199.96 645.8 190.26C652.6 178.66 673.1 138.36 671.7 139.26C671.1 139.56 664 147.56 655.9 156.96C636.2 179.56 628.8 184.36 614.4 183.66L607.8 183.36L599.3 191.86C585.3 205.86 571.7 212.36 556 212.26C543.8 212.16 535.4 207.46 530.5 197.96C528 192.96 526.3 182.66 527 177.36L527.7 172.96L521.9 175.36C518.6 176.76 515.5 177.86 514.8 177.86C514.2 177.86 512.1 180.86 510.3 184.56C502 201.46 485.8 211.86 468 211.86C446.8 211.86 435.4 203.96 433 187.56C431.3 176.56 436.3 168.56 447.1 164.76C452.2 162.96 454.8 162.66 466 162.96L479 163.36L479.6 143.36C479.9 132.36 480.5 122.56 480.9 121.66C483.6 115.46 471.9 126.16 454.8 145.36C426.3 177.26 420.7 183.26 412 191.06C397 204.46 383.9 210.96 371.4 211.16C363.8 211.26 359.9 209.46 355.2 203.56C349.2 196.26 351.7 185.56 365.7 157.96C370.5 148.36 374.1 140.86 373.6 141.46C373.1 141.96 369 147.06 364.4 152.86C343.6 179.16 318.4 199.46 294 209.56C285.7 213.06 284.2 213.26 275 213.36C266.5 213.36 264.4 213.06 260.8 211.06C253.9 207.36 249.8 203.16 246 195.66C242.3 188.26 241.7 183.76 243.4 175.06C244.4 169.96 245.8 168.96 228.6 185.16C206.8 205.56 193.9 212.06 170 214.86C153.2 216.76 129.6 212.96 112.1 205.36L103.7 201.76L97.5 205.76C81.7 215.96 57.8 220.96 39.3 217.86ZM52 192.56C59.3 189.26 70.5 182.96 70.5 182.16C70.5 181.96 67.2 180.16 63.1 178.26C54.8 174.46 38.8 169.86 33.7 169.86C26.2 169.86 18.5 176.06 18.5 182.06C18.5 186.36 25.7 193.26 32.2 195.26C38.4 197.26 43.2 196.56 52 192.56ZM466 187.66C469.5 184.96 474.6 177.86 473.9 176.76C473.6 176.26 469.1 175.86 463.9 175.86C455.8 175.86 454.2 176.16 452.5 177.86C445.4 184.96 457.8 194.06 466 187.66ZM823 187.66C825.7 185.56 831.5 178.16 831.5 176.86C831.5 175.46 814.7 174.66 812.3 175.96C807 178.76 806.1 183.56 810 187.36C813.2 190.66 819.1 190.76 823 187.66ZM154.4 187.36C187.1 179.56 207.5 142.26 207.5 90.0604C207.5 77.8604 207.2 74.9604 205 68.1604C202.6 60.5604 195.7 47.5604 194.1 47.6604C192.3 47.6604 178.2 67.7604 173.6 76.8604C168.2 87.2604 147 142.66 148 143.66C148.9 144.66 158.5 139.46 164.3 134.96C167.2 132.66 171.1 128.66 173 126.06C176.9 120.76 180.5 110.66 180.5 104.86C180.5 100.16 182.3 98.6604 187.2 99.0604C190.8 99.3604 191 99.5604 191.9 103.66C193.8 112.56 186.9 129.96 177.3 140.36C169.1 149.36 152.2 159.56 142.3 161.36C139.4 161.96 138.1 162.96 135.8 166.66C134.2 169.26 130.1 174.76 126.7 178.96C123.3 183.26 120.5 186.86 120.5 187.16C120.5 189.26 145.8 189.36 154.4 187.36ZM585.3 183.56C587.2 181.86 589.5 178.66 590.6 176.66C592.3 173.26 592.3 172.66 591 168.76C589.1 163.46 589.1 156.56 591 152.96C592.7 149.46 597.6 147.36 603.3 147.56C607.5 147.66 607.6 147.56 610.1 142.56C619.5 124.16 619.9 111.86 611.3 111.86C605.1 111.86 598.7 117.66 589.5 131.66C583.3 141.06 570.8 166.06 569.3 171.86C567.7 178.56 568.9 183.56 572.8 185.96C577 188.56 580.9 187.76 585.3 183.56ZM310.7 145.16C323.3 133.96 327.8 126.96 327.3 119.66C327 115.96 326.7 115.36 324.6 115.06C322.7 114.76 320.6 116.36 314.6 122.56C306.7 130.66 298.9 141.36 297.9 145.46C296 152.96 302 152.76 310.7 145.16ZM99.7 136.16C115.4 99.6604 139.8 61.8604 163.1 38.0604C168.3 32.8604 172.3 28.3604 172.2 28.1604C170.9 26.8604 157.3 21.5604 152.2 20.3604C143.9 18.3604 126.8 18.4604 118.6 20.4604C94.5 26.3604 73.3 46.0604 65.9 69.3604C59.1 90.8604 63.1 110.46 77.7 126.36C83.3 132.46 94.3 140.86 96.7 140.86C97.2 140.86 98.5 138.76 99.7 136.16Z" fill="#F3E6D4"/>
<path d="M788.9 85.7604C785.5 81.4604 786.6 79.2604 794.7 74.3604C807.1 66.8604 807.9 64.4604 802 53.2604C799.8 49.1604 798.5 45.2604 798.5 42.9604C798.5 31.2604 806.5 20.0604 816.4 17.9604C825 16.1604 831.4 17.9604 837 23.7604C839.5 26.4604 840 27.8604 840.3 33.6604C841.3 51.9604 826.9 72.1604 804.7 83.2604C798.2 86.5604 790.4 87.7604 788.9 85.7604Z" fill="#F3E6D4"/>
</g>
<defs>
<clipPath id="clip0_802_382">
<rect width="895" height="397" fill="white"/>
</clipPath>
</defs>
</svg>
