<svg width="203" height="88" viewBox="0 0 203 88" fill="none" xmlns="http://www.w3.org/2000/svg">
<path fill-rule="evenodd" clip-rule="evenodd" d="M50.6572 0.120041C49.5183 0.310965 48.4841 0.696359 46.1667 1.79401L43.7864 2.92159L42.2467 2.21311C38.2677 0.381922 32.4399 -0.292852 28.1956 0.586152C22.3547 1.79578 16.8695 6.01761 14.0321 11.4881C12.7099 14.0371 12.4292 15.2079 12.3022 18.7042C12.1636 22.5138 12.4952 24.3312 13.8187 27.0197C14.9266 29.2702 17.1165 31.5783 19.2903 32.7864C21.6366 34.0907 21.5271 33.7983 20.4472 35.8703C19.7436 37.2207 19.4024 37.6691 19.1399 37.5881C18.9447 37.5278 17.9763 37.1209 16.9877 36.6838C14.0923 35.4037 12.0689 34.9615 9.01232 34.9402C5.1881 34.9139 3.35705 35.6509 1.47426 37.9755C0.866133 38.7264 0.79506 38.9705 0.800169 40.2903C0.805055 41.5295 0.922994 41.9829 1.53645 43.1207C2.83133 45.5227 5.16567 47.2665 8.07303 48.0038C9.99092 48.4901 14.2938 48.5417 16.3418 48.1031C18.3108 47.6814 20.8854 46.6385 22.4493 45.6293L23.8284 44.7395L25.6889 45.5371C26.7122 45.9759 28.5259 46.5966 29.7193 46.9163C31.6851 47.4432 32.2862 47.4993 36.1093 47.5146C39.8618 47.5295 40.521 47.4758 42.0597 47.0305C45.4748 46.0422 47.8613 44.5363 51.662 40.9713C52.8865 39.8229 54.1485 38.6527 54.4663 38.3713L55.0445 37.8595L54.8595 38.8148C54.4866 40.7405 54.6125 41.7319 55.4394 43.3821C56.2692 45.0381 57.1785 45.9897 58.7148 46.8092C59.5117 47.2343 59.9859 47.3086 61.8736 47.3031C63.9103 47.2971 64.2541 47.2306 66.0148 46.5003C71.4963 44.2277 77.0976 39.7337 81.7345 33.8887C82.7482 32.611 83.6573 31.4799 83.7546 31.3754C83.8521 31.271 83.061 32.9175 81.9966 35.0343C79.776 39.4508 79.0868 41.3696 79.0868 43.1356C79.0868 44.1414 79.2001 44.5332 79.6678 45.1455C80.6211 46.3932 81.4214 46.7534 83.2429 46.7542C86.0498 46.7558 88.9494 45.3479 92.3032 42.3555C94.2376 40.6294 95.4816 39.3029 101.808 32.221C105.618 27.9563 108.195 25.6253 107.619 26.9642C107.528 27.1778 107.392 29.348 107.318 31.7872L107.183 36.2222L104.296 36.143C101.805 36.0745 101.225 36.1275 100.076 36.5282C97.7722 37.3311 96.6396 39.1315 96.9532 41.492C97.4423 45.1736 100.001 46.9769 104.734 46.9769C108.7 46.9769 112.298 44.6614 114.142 40.9221C114.544 40.1056 114.992 39.4351 115.138 39.4322C115.283 39.4293 115.965 39.1953 116.654 38.9124L117.908 38.3977L117.999 40.636C118.07 42.3719 118.198 43.0803 118.57 43.7913C119.216 45.0282 120.301 46.0715 121.482 46.5935C122.828 47.1878 125.755 47.17 127.728 46.5556C130.212 45.7821 133.122 43.7478 134.833 41.5902L135.607 40.613L137.098 40.7194C138.882 40.8469 140.389 40.4201 142.057 39.3153C142.733 38.8669 144.495 37.0599 146.466 34.793C148.272 32.7163 149.846 30.9572 149.966 30.8836C150.281 30.6889 145.762 39.622 144.298 42.0871C143.333 43.7114 143.053 44.3855 143.053 45.0867C143.053 47.5335 145.383 47.8639 148.495 45.8588C149.994 44.8927 151.298 43.5992 153.066 41.3257C154.809 39.0834 158.806 34.5147 160.867 32.4097C162.545 30.6949 163.556 30.0882 164.137 30.4468C164.259 30.5217 163.391 32.5028 162.164 34.9536C159.63 40.0111 158.823 42.1186 158.823 43.6748C158.823 46.0165 159.967 46.8671 162.909 46.713C164.403 46.6347 164.935 46.4975 166.041 45.9054C169.053 44.2937 175.381 38.6822 179.5 33.9701C182.188 30.8954 185.82 27.1064 186.374 26.7997C186.678 26.631 186.708 27.0713 186.644 30.7508C186.604 33.0283 186.521 35.2097 186.46 35.5984L186.349 36.3051L183.602 36.1756C180.566 36.0324 179.136 36.3197 177.777 37.3469C176.238 38.5108 175.933 41.4807 177.114 43.8074C178.258 46.0617 179.928 46.8199 183.81 46.8472C186.446 46.8658 186.494 46.8571 188.212 46.0378C190.424 44.9834 192.03 43.383 193.154 41.1126C193.956 39.4927 194.005 39.443 195.129 39.1168C197.696 38.3718 200.238 35.4163 199.202 34.3817C198.589 33.7701 197.518 34.0754 196.248 35.2243C195.573 35.8341 194.924 36.333 194.806 36.333C194.688 36.333 194.533 36.0585 194.463 35.7232C194.134 34.1546 193.896 33.3945 193.037 31.1579C191.92 28.251 191.698 26.8325 192.231 26.0189C192.733 25.2537 193.444 25.014 194.497 25.2537C195.719 25.5322 196.851 25.1696 197.671 24.237C198.251 23.5775 198.358 23.2768 198.357 22.2998C198.355 19.9371 197.202 19.1273 194.094 19.3067C192.542 19.3965 192.088 19.5322 190.277 20.4478C187.037 22.0856 185.176 23.748 180.018 29.6092C174.236 36.1803 172.803 37.6376 171.261 38.5159C169.964 39.2548 168.881 39.418 168.684 38.9044C168.495 38.4117 169.57 35.953 172.385 30.4401C175.296 24.7401 175.618 23.7108 174.834 22.612C174.033 21.4891 172.953 20.9629 171.695 21.0835C169.719 21.2731 165.573 24.0507 160.433 28.6267C158.937 29.9592 157.712 30.9978 157.712 30.9353C157.712 30.8725 158.074 30.2157 158.515 29.4755C159.144 28.4218 159.343 27.8195 159.433 26.6999C159.565 25.0661 159.229 23.4657 158.558 22.5253C157.878 21.5709 156.409 20.589 155.662 20.589C154.826 20.589 153.002 22.3861 151.161 25.024C149.612 27.2425 144.239 34.0757 143.081 35.2986C142.287 36.137 141.096 36.8823 140.309 37.0324C140.007 37.0899 139.826 36.8752 139.586 36.1727C139.277 35.2718 139.289 35.1884 139.909 33.9553C141.219 31.3511 141.769 29.3119 141.869 26.6871C141.958 24.3439 141.937 24.2 141.324 23.0282C139.249 19.063 134.048 19.2625 128.346 23.5265C126.086 25.2169 121.542 29.7775 118.57 33.3395C115.484 37.0369 115.441 37.0617 115.223 35.2862C115.152 34.7034 114.698 33.2616 114.214 32.0822C113.165 29.5212 112.582 27.1585 112.837 26.4937C113.227 25.4772 113.748 25.2577 115.647 25.3087C117.29 25.3528 117.493 25.3085 118.24 24.741C119.67 23.6558 119.836 21.3228 118.568 20.1427C116.85 18.5452 112.855 19.2062 108.939 21.7357C106.73 23.1622 104.981 24.8634 99.7196 30.702C93.0448 38.1095 91.3462 39.5759 90.4622 38.6935C90.2274 38.4591 90.1786 38.1374 90.2887 37.5513C90.3731 37.1025 93.1503 31.3311 96.4604 24.7262C103.078 11.522 102.972 11.8074 102.023 9.68442C101.466 8.44064 100.05 6.85426 98.9842 6.28105C98.2293 5.87503 98.1991 5.87503 97.7533 6.27772C97.1014 6.86668 95.3399 9.6649 93.2405 13.4463C91.2918 16.9564 86.6542 23.999 83.6626 27.9912C79.7707 33.1853 73.5242 39.2452 69.9805 41.2651C68.4906 42.1142 66.6322 42.6298 65.6943 42.4541C64.6119 42.2515 63.7615 41.2223 63.7615 40.1154V39.2752L65.3718 38.6887C71.4986 36.457 77.9914 30.2909 78.3714 26.3434C78.4558 25.4668 78.3574 25.0104 77.8688 24.0137C77.1254 22.4967 75.9556 21.5951 74.2804 21.2478C69.7188 20.3023 63.646 24.0305 56.5715 32.1199C55.7303 33.0816 55.5318 33.2222 55.6324 32.7851C56.6274 28.4632 56.653 22.3116 55.6915 18.5769C54.5623 14.1914 52.6777 10.7253 49.7359 7.62239L47.9395 5.72779L48.9097 4.85433C49.4432 4.37403 50.749 3.51587 51.8111 2.94709C52.8734 2.37853 53.9186 1.71883 54.1339 1.48134C55.0749 0.443126 53.1732 -0.3015 50.6572 0.120041ZM54.778 2.83644C54.5632 3.07326 53.6232 3.66555 52.689 4.15295C49.8297 5.64419 49.9158 5.44507 51.3871 7.16582C52.084 7.98118 52.8065 8.86506 52.9924 9.12983L53.3303 9.61168L54.5625 8.96751C56.3094 8.05436 57.7646 7.06138 57.7646 6.78264C57.7646 6.47419 55.474 2.40603 55.3004 2.4058C55.2277 2.4058 54.9925 2.59961 54.778 2.83644ZM181.13 4.27136C179.587 4.94236 178.146 7.46008 178.146 9.48662C178.146 9.96759 178.498 10.9803 179.043 12.0695C180.273 14.5245 180.18 14.7389 177.059 16.6537C175.907 17.3611 175.703 17.5819 175.703 18.1234C175.703 18.474 175.854 18.8862 176.039 19.0395C176.889 19.7433 180.044 18.5241 182.637 16.4896C185.382 14.3364 187.263 11.0768 187.423 8.19783C187.507 6.69749 187.458 6.42186 186.991 5.73733C186.072 4.39199 185.187 3.95692 183.388 3.96668C182.521 3.97156 181.505 4.1086 181.13 4.27136ZM34.6083 4.51262C35.7217 4.77472 38.7468 5.96306 39.0362 6.25178C39.0724 6.28814 38.1649 7.27336 37.0195 8.44153C32.2571 13.2976 26.7264 21.6332 23.6631 28.5719C23.0978 29.8525 22.5484 30.9903 22.4422 31.1C22.1013 31.4533 19.794 29.854 18.2111 28.1679C14.8251 24.5605 13.8853 20.2396 15.4294 15.378C17.0455 10.2904 21.5513 6.03247 26.8192 4.61462C28.7254 4.1015 32.644 4.05028 34.6083 4.51262ZM28.9255 5.74331C27.1297 5.98302 25.1066 6.65868 23.598 7.52261C22.0022 8.43643 19.1788 11.1726 18.257 12.6986C15.9189 16.5694 15.5891 21.1928 17.4019 24.6847L17.8659 25.5783L18.1322 23.9152C18.53 21.4328 18.8458 20.4334 19.8347 18.5288C21.3919 15.5303 24.7081 12.456 27.8707 11.079C29.1462 10.5237 30.9717 10.0434 32.6071 9.83254C33.6728 9.69528 33.8887 9.56024 35.2037 8.2078C36.8138 6.55247 36.8198 6.57442 34.634 6.08702C32.6626 5.64752 30.5808 5.52223 28.9255 5.74331ZM188.731 9.88665C188.653 10.3736 188.188 11.5719 187.698 12.5498C185.809 16.318 181.432 19.8559 177.627 20.6908C177.036 20.8203 177.016 20.8596 177.312 21.3188C177.486 21.5882 178.003 22.4821 178.462 23.3054L179.295 24.8022H180.282C181.69 24.8022 182.669 24.3197 184.241 22.8515C184.998 22.1448 186.26 21.141 187.046 20.621C188.116 19.9125 188.684 19.3326 189.314 18.3073C191.309 15.0556 191.29 12.1992 189.255 9.50591L188.873 9.00099L188.731 9.88665ZM44.9866 12.0518C45.4266 12.7835 46.049 14.1806 46.3697 15.1562C46.8854 16.7262 46.9514 17.2744 46.9421 19.9238C46.9205 26.1431 45.4813 31.8502 42.9479 35.7625C41.0038 38.7645 38.1891 40.8134 34.9925 41.5536C32.8603 42.0472 27.5582 42.0073 27.5582 41.4977C27.5582 41.4376 28.1756 40.6252 28.9301 39.6923C29.6846 38.7594 30.5948 37.5291 30.9526 36.9584C31.4932 36.096 31.7471 35.8964 32.455 35.7769C34.5423 35.4248 38.4625 33.0372 40.296 31.0011C42.3231 28.7502 43.8206 24.9022 43.4166 22.9815C43.2271 22.0805 43.172 22.0266 42.3682 21.9605C41.2775 21.8709 40.8846 22.2135 40.8846 23.2538C40.8846 24.5257 40.0847 26.7862 39.2214 27.9539C38.7965 28.5289 37.9225 29.415 37.2791 29.9232C36.006 30.9288 33.8702 32.0649 33.6554 31.8506C33.4404 31.6358 38.1638 19.3521 39.3502 17.0411C40.5281 14.7469 43.7455 10.2714 44.0176 10.549C44.1106 10.6437 44.5466 11.32 44.9866 12.0518ZM42.127 15.2194C40.5407 17.5983 40.0008 18.7137 38.5078 22.6956C36.0107 29.3558 36.171 28.8367 36.7249 28.4699C38.0554 27.5891 39.3298 25.132 39.3298 23.4473C39.3298 21.3769 40.7166 20.1806 42.8271 20.4303L43.8912 20.556L44.7081 19.3889L45.525 18.2219L45.2205 16.769C44.8885 15.1851 44.048 13.0496 43.7566 13.0496C43.6562 13.0496 42.9228 14.026 42.127 15.2194ZM102.357 16.1078C101.534 17.7797 99.1328 22.5404 97.0194 26.6871C94.9063 30.8337 92.9518 34.7726 92.6759 35.4401L92.1746 36.6535L92.8796 35.9944C93.2674 35.6319 95.5449 33.1377 97.9407 30.4521L102.297 25.569L104.074 21.933C106.184 17.6156 106.228 17.2852 105.027 14.7682C104.576 13.8231 104.127 13.0536 104.029 13.0587C103.932 13.0636 103.179 14.4356 102.357 16.1078ZM57.7024 20.827C57.7931 21.245 57.869 23.1336 57.8715 25.024L57.8757 28.461L58.7152 27.5419L59.555 26.6228L59.1974 24.8949C58.8783 23.3515 57.9252 20.4535 57.6449 20.1739C57.586 20.1152 57.612 20.409 57.7024 20.827ZM120.621 23.9924C120.621 24.2055 120.146 24.8519 119.566 25.4286C118.293 26.6944 117.17 27.0878 115.418 26.8822C114.501 26.7747 114.18 26.8084 114.18 27.0126C114.18 27.5991 114.884 29.9614 115.443 31.2468L116.028 32.5944L116.315 31.9119C116.625 31.1765 117.47 30.7288 118.248 30.8872C118.635 30.9657 119.121 30.5503 120.653 28.8298L122.573 26.6742L121.798 25.3501C120.862 23.7498 120.621 23.4713 120.621 23.9924ZM199.135 24.747C198.163 26.2489 196.904 26.8551 194.971 26.7523L193.471 26.6726V27.3616C193.471 28.3874 195.219 33.243 195.24 32.2762C195.244 32.0571 195.498 31.6289 195.803 31.3244C196.323 30.8051 196.458 30.7792 197.968 30.9049C199.347 31.0195 199.682 30.9743 200.289 30.592C202.085 29.4618 202.256 27.7335 200.817 25.2736C200.309 24.4046 199.872 23.6988 199.847 23.7055C199.822 23.7121 199.502 24.1809 199.135 24.747ZM137.625 25.2603C138.397 26.1123 137.909 28.465 136.303 31.6287L135.716 32.7851H134.598C132.593 32.7851 131.726 33.6164 131.726 35.5394C131.726 36.0672 131.874 36.9182 132.055 37.4305C132.358 38.2886 132.351 38.4263 131.964 39.1769C131.388 40.2908 130.185 41.3988 129.388 41.5483C128.383 41.7368 127.347 40.999 127.151 39.9555C126.921 38.7281 127.323 37.4679 129.05 34.0047C131.341 29.4128 133.596 26.1668 135.155 25.2178C136.061 24.6665 137.103 24.6845 137.625 25.2603ZM44.562 26.3017C43.6045 29.3487 41.7428 32.0555 39.3687 33.8521C37.5718 35.2119 34.3968 36.9038 33.2323 37.1218C32.7475 37.2127 32.3332 37.458 32.1804 37.7447C32.0418 38.005 31.5321 38.7547 31.0477 39.4107L30.167 40.6037L31.9166 40.456C35.8361 40.1253 37.6291 39.3734 39.8851 37.114C41.7794 35.2168 42.7225 33.6568 43.6804 30.8348C44.3763 28.7854 45.2098 25.277 45.0413 25.1084C44.9975 25.065 44.7819 25.6018 44.562 26.3017ZM176.369 25.5262C176.369 25.7349 175.113 28.3608 173.577 31.3619C172.041 34.363 170.822 36.8561 170.868 36.902C171.121 37.1546 172.741 35.6073 175.496 32.4806L178.598 28.9611L177.782 27.4913C176.618 25.3941 176.369 25.0484 176.369 25.5262ZM73.4971 26.3544C73.6601 28.0672 72.6415 29.6766 69.8214 32.162C67.8722 33.8801 66.536 33.926 66.9547 32.2607C67.1835 31.3504 68.9199 28.9673 70.667 27.166C71.999 25.7928 72.4656 25.4433 72.8881 25.5029C73.3192 25.5637 73.4375 25.7291 73.4971 26.3544ZM135.77 26.6365C134.787 27.3257 131.948 31.1317 131.948 31.76C131.948 31.8236 132.295 31.7309 132.718 31.5542C133.142 31.3774 133.79 31.2329 134.158 31.2329C134.739 31.2329 134.903 31.0852 135.393 30.1208C135.943 29.0354 136.734 26.4021 136.561 26.2294C136.513 26.1817 136.157 26.3649 135.77 26.6365ZM143.501 27.366C143.496 28.393 142.709 31.1823 141.856 33.2013C141.438 34.1921 141.181 35.0026 141.286 35.0026C141.391 35.0026 142.198 34.1295 143.08 33.0623C143.961 31.9952 144.826 30.9537 145 30.7479C145.388 30.2909 145.153 29.4582 144.164 27.7958C143.521 26.7143 143.505 26.7037 143.501 27.366ZM79.2181 28.6939C77.4612 32.7201 72.2268 37.3939 66.9636 39.6355C65.3209 40.3351 64.9944 40.8367 66.1109 40.9454C67.1228 41.044 69.0496 40.2393 70.8891 38.9496C72.5847 37.7609 77.2793 33.3217 79.5863 30.7257L80.9239 29.221L80.5221 28.3313C80.3011 27.8421 80.0572 27.4029 79.9801 27.3554C79.9031 27.3077 79.5601 27.9102 79.2181 28.6939ZM103.69 32.2675L101.753 34.4482L103.69 34.577C104.756 34.6478 105.657 34.6859 105.692 34.6613C105.727 34.6369 105.727 33.5976 105.692 32.352L105.628 30.0871L103.69 32.2675ZM182.984 32.2516L181.048 34.4482L182.984 34.5591L184.92 34.6699L184.987 33.4976C185.024 32.8529 185.024 31.8145 184.987 31.1903L184.92 30.0549L182.984 32.2516ZM17.6818 33.7076C17.7749 33.871 18.0989 34.3391 18.4021 34.7478C18.8216 35.3139 18.9984 35.4197 19.1433 35.1913C19.4398 34.724 19.3987 34.6566 18.4263 34.0142C17.9237 33.6821 17.5887 33.5441 17.6818 33.7076ZM129.337 36.7098C128.548 38.7013 128.42 39.8196 128.958 40.0258C129.66 40.2945 130.977 38.5217 130.589 37.8301C130.474 37.6243 130.307 36.8788 130.218 36.1738L130.057 34.8917L129.337 36.7098ZM157.998 37.719C156.903 38.9689 155.109 41.1068 154.011 42.4697C152.912 43.8325 151.472 45.4096 150.809 45.9741C149.405 47.1718 147.024 48.4198 145.725 48.6389L144.815 48.7923L145.63 50.2685C146.859 52.4933 147.147 52.7432 148.478 52.7374C150.637 52.7281 153.262 50.951 155.728 47.8304L157.308 45.8307L157.355 43.9092C157.405 41.9341 157.874 40.4061 159.565 36.7211C159.887 36.0197 160.113 35.4461 160.068 35.4461C160.023 35.4461 159.091 36.469 157.998 37.719ZM199.724 37.6746C198.67 38.8966 197.345 39.8619 196.026 40.3684C195.297 40.6484 194.998 40.9618 194.36 42.1177C191.873 46.6223 187.052 49.0954 182.196 48.3572C181.251 48.2138 180.257 48.0333 179.987 47.9563C179.512 47.8211 179.517 47.8563 180.159 49.0387C181.048 50.6776 182.289 51.7595 183.745 52.1642C186.601 52.9583 189.334 52.7937 191.695 51.6861C193.485 50.8459 195.668 48.5814 196.604 46.5932C197.166 45.3976 197.471 44.9883 197.803 44.9834C199.299 44.9612 202.8 42.098 202.8 40.8964C202.8 40.621 202.319 39.5388 201.731 38.4917L200.662 36.5878L199.724 37.6746ZM11.0792 38.2174C12.9476 38.7173 16.4529 40.1409 16.4529 40.3999C16.4529 40.4571 15.6526 40.9724 14.6745 41.545C12.8765 42.5974 10.2857 43.6374 9.44054 43.646C7.66702 43.664 4.90336 41.6742 4.90336 40.3795C4.90336 39.557 5.808 38.3982 6.78015 37.9755C7.77452 37.5431 8.76689 37.599 11.0792 38.2174ZM106.029 39.2055C106.246 39.4087 104.969 41.1119 104.138 41.7268C103.368 42.2965 102.334 42.2954 101.567 41.7239C100.903 41.2301 100.745 40.7844 100.947 39.9799C101.179 39.0572 102.066 38.7523 104.074 38.9042C105.051 38.9783 105.931 39.1137 106.029 39.2055ZM185.445 39.1157C185.611 39.2727 184.544 40.7602 183.794 41.4177C183.203 41.9355 182.804 42.0984 182.126 42.0984C180.634 42.0984 179.641 40.6602 180.43 39.6431C181.016 38.8876 181.546 38.7583 183.477 38.9002C184.515 38.9765 185.401 39.0736 185.445 39.1157ZM6.95784 39.5439C6.19957 40.0934 6.33728 40.6817 7.38584 41.3747C8.65384 42.2124 10.0807 42.2027 11.9552 41.3436C12.7188 40.9937 13.3434 40.6358 13.3434 40.5482C13.3434 40.2897 10.0873 39.4016 8.71958 39.2871C7.77541 39.2082 7.33164 39.2727 6.95784 39.5439ZM143.38 40.1103C143.154 40.3597 142.252 40.9176 141.375 41.3501C140.075 41.9916 139.445 42.1594 137.953 42.2614L136.124 42.3865L135.103 43.4757C133.012 45.7078 130.105 47.5086 127.454 48.2129C126.119 48.5677 123.077 48.6291 122.007 48.3229C121.611 48.2093 121.288 48.1845 121.289 48.2674C121.295 48.7273 122.721 50.7973 123.437 51.3865C124.734 52.4545 126.125 52.8203 128.372 52.6851C131.737 52.4824 134.579 51.0151 137.449 47.9987L139.017 46.3502L140.381 46.4737L141.745 46.5972L141.597 46.0081C141.32 44.9051 141.72 43.5012 142.843 41.6357C143.954 39.7905 144.134 39.2783 143.38 40.1103ZM76.0673 41.7825C69.5955 47.1765 63.4836 49.7387 59.597 48.6877C58.9558 48.5142 58.4309 48.4147 58.4309 48.4666C58.4309 48.5185 58.6757 48.9779 58.9751 49.4875C60.1614 51.5074 62.0659 52.7875 64.3168 53.0782C67.4458 53.4823 72.8732 51.0124 78.074 46.8181L78.6835 46.3265L78.1746 45.6129C77.5754 44.7729 77.3777 42.9442 77.7235 41.4392C77.8488 40.8937 77.9223 40.4185 77.887 40.3832C77.8517 40.348 77.0328 40.9775 76.0673 41.7825ZM102.408 40.5462C102.408 40.8265 102.862 40.8265 103.296 40.5462C103.556 40.3788 103.495 40.3305 103.019 40.3278C102.683 40.326 102.408 40.4243 102.408 40.5462ZM181.856 40.5693C182.032 40.7447 182.217 40.7465 182.511 40.5759C182.871 40.3673 182.841 40.3371 182.266 40.3311C181.788 40.3262 181.677 40.3908 181.856 40.5693ZM116.042 40.7194C115.906 40.8072 115.57 41.3279 115.295 41.8767C113.927 44.6124 111.305 46.9194 108.443 47.9069C107.203 48.3346 106.544 48.4138 104.407 48.3914C102.659 48.373 101.549 48.2515 100.889 48.0064L99.9261 47.6481L100.531 48.6985C102.066 51.3661 103.205 52.117 106.355 52.5403C110.937 53.1558 115.133 51.049 117.224 47.0818L117.929 45.7453L117.273 44.4208C116.913 43.6924 116.544 42.5258 116.454 41.8281C116.343 40.9757 116.208 40.6123 116.042 40.7194ZM173.149 42.3783C170.045 45.0177 167.566 46.8345 166.152 47.5069C164.883 48.1107 164.476 48.1936 162.778 48.1949L160.848 48.1965L161.643 49.6378C162.669 51.4998 163.164 52.028 164.137 52.2979C166.012 52.8179 168.301 52.3902 170.098 51.1841C171.372 50.3292 174.178 48.1224 175.771 46.7223L176.617 45.979L175.941 44.7406C175.569 44.0594 175.139 42.9517 174.984 42.2792L174.704 41.0562L173.149 42.3783ZM94.4121 42.4393C92.2233 44.6858 89.0552 46.797 86.4114 47.7707C85.8644 47.9721 84.5395 48.2003 83.4672 48.2776L81.5175 48.4182L82.4677 49.9547C83.1833 51.1118 83.6595 51.6183 84.3967 52.0059C87.2277 53.4944 91.7966 51.7391 96.2332 47.4585L97.4987 46.2371L97.095 45.6646C96.384 44.6563 95.719 43.1912 95.5631 42.2894L95.4116 41.4133L94.4121 42.4393ZM51.3355 43.2378C48.5283 45.8928 45.9253 47.4257 42.5053 48.4382C39.8104 49.236 35.2861 49.421 31.9752 48.8686C29.988 48.5371 26.8865 47.6503 24.5598 46.748C23.9532 46.5128 23.7542 46.5702 22.3387 47.3891C17.523 50.1751 10.7447 50.7818 5.96258 48.8548L4.68991 48.3419L5.10681 49.1578C5.62787 50.1776 7.65081 52.1077 8.80643 52.6873C10.9904 53.7832 11.9539 53.9619 15.6755 53.9617C18.7279 53.9617 19.4793 53.8894 21.0014 53.4497C22.581 52.9931 24.5302 52.0872 26.5856 50.8543C27.2752 50.4408 27.2859 50.4417 28.5845 51.016C34.7136 53.726 41.96 54.1362 47.2885 52.0748C49.4117 51.2537 51.0468 50.1727 53.5388 47.9428L55.4831 46.203L54.973 45.5351C54.338 44.704 53.3276 42.5632 53.3247 42.043C53.3234 41.8297 53.2476 41.6592 53.1559 41.6643C53.0642 41.6694 52.2451 42.3774 51.3355 43.2378ZM17.989 58.6226C15.1433 59.3144 12.3852 60.972 10.3578 63.2085L9.09117 64.6057L16.1035 64.6643L23.1161 64.7228V66.2719V67.8211H15.2664H7.41693L7.15929 68.6794C7.01759 69.1515 6.83835 69.9997 6.76083 70.5643L6.61979 71.5908H14.8679H23.1161V73.143V74.6952H14.8679H6.61979L6.76083 75.7217C6.83835 76.2862 7.01759 77.1344 7.15929 77.6065L7.41693 78.4649H15.2762H23.1356L23.0703 80.0726L23.005 81.6802L16.1197 81.7911L9.23443 81.902L11.0113 83.6939C12.419 85.1133 13.1804 85.6772 14.676 86.4081C15.7144 86.9152 17.1596 87.4811 17.8877 87.6652C19.0569 87.961 29.1009 88 103.852 88C178.602 88 188.646 87.961 189.816 87.6652C192.382 87.0159 194.709 85.6714 196.673 83.7028L198.469 81.902L191.528 81.8434L184.587 81.7849V80.1278V78.4707L192.394 78.4123L200.201 78.354L200.486 77.5325C200.643 77.0808 200.839 76.2574 200.922 75.703L201.074 74.6952H192.83H184.587V73.143V71.5908H192.83H201.074L200.922 70.5829C200.839 70.0285 200.643 69.2052 200.486 68.7535L200.201 67.9319L192.394 67.8736L184.587 67.8153V66.2659V64.7166H191.473C196.192 64.7166 198.358 64.6423 198.358 64.4807C198.358 64.0593 195.134 61.0784 193.86 60.3214C193.179 59.9165 191.888 59.3177 190.992 58.9909L189.363 58.3968L104.296 58.3589C33.2441 58.3274 19.0249 58.3709 17.989 58.6226ZM74.5336 72.0118V80.7487L73.6452 81.078C73.1026 81.2791 71.8923 81.4172 70.5357 81.433C68.5816 81.4554 68.2165 81.3975 67.4975 80.9511C66.9969 80.6405 66.4807 80.0393 66.1649 79.3989C65.7027 78.4622 65.6494 78.044 65.6494 75.3604C65.6494 72.4777 65.674 72.3176 66.3157 71.0364C67.229 69.2127 68.1099 68.6391 69.8139 68.7579L71.091 68.8473V66.3511C71.091 64.0146 71.123 63.8323 71.5907 63.5023C71.9354 63.2591 72.4696 63.1693 73.3121 63.2125L74.5336 63.2753V72.0118ZM145.645 63.9582C146.153 64.4645 146.202 64.6485 146.077 65.5626C145.899 66.8531 145.32 67.4663 144.277 67.4663C143.312 67.4663 142.857 67.0418 142.684 65.9799C142.348 63.9112 144.278 62.5932 145.645 63.9582ZM105.57 64.0622C106.869 64.4223 107.159 65.494 106.241 66.5389C105.993 66.8205 105.801 66.864 105.504 66.7052C104.97 66.4196 102.27 66.4303 101.727 66.7201C101.178 67.0137 101.169 67.9426 101.708 68.8189C101.933 69.1848 102.942 70.3822 103.95 71.4799C106.356 74.0998 106.731 74.82 106.72 76.8018C106.71 78.5767 106.37 79.3916 105.22 80.3999C103.38 82.0128 98.6308 81.894 97.7295 80.2123C97.5354 79.8501 97.5627 79.5304 97.8523 78.7731C98.0571 78.2378 98.2541 77.7997 98.2903 77.7997C98.3263 77.7997 98.7146 77.9493 99.1532 78.1323C100.334 78.625 102.081 78.5691 102.63 78.0214C103.154 77.4985 103.21 76.4013 102.757 75.5345C102.584 75.2035 101.5 73.8488 100.348 72.5243C97.9527 69.7693 97.3837 68.6247 97.622 67.0383C97.8121 65.773 99.0364 64.4434 100.325 64.103C101.475 63.7992 104.536 63.7755 105.57 64.0622ZM32.1729 67.433L32.2342 70.7038H33.444H34.6538L34.7151 67.433L34.7766 64.1622H36.4424H38.1082L38.1669 72.4777C38.2342 82.0264 38.395 81.3476 36.0668 81.3476H34.6656V77.3562V73.3647H33.444H32.2224V77.1267C32.2224 81.478 32.2906 81.3476 30.016 81.3476H28.6687V72.8474C28.6687 68.1721 28.7393 64.2764 28.8255 64.1904C28.9119 64.1044 29.6864 64.0627 30.5468 64.0979L32.1114 64.1622L32.1729 67.433ZM48.8884 69.2624C49.8328 70.1042 49.9925 70.8996 49.9667 74.6327C49.9536 76.5574 49.8785 78.731 49.8001 79.4628C49.66 80.7733 49.6446 80.7977 48.7693 81.1074C47.4058 81.5902 43.8446 81.5585 42.9215 81.0558C41.0207 80.0202 40.7586 75.9709 42.4853 74.3182C43.0776 73.7512 43.2784 73.6973 44.795 73.6973H46.4561L46.391 72.6995L46.3262 71.7016H44.6604C43.7442 71.7016 42.7238 71.7772 42.3929 71.8699C41.8309 72.0269 41.775 71.9781 41.5464 71.1309C41.0489 69.2857 42.1808 68.7056 46.1369 68.7777C48.0406 68.8125 48.4681 68.8879 48.8884 69.2624ZM61.0251 69.2837C62.1452 70.1152 62.1999 70.4239 62.2034 75.9465C62.2072 81.7973 62.3842 81.3476 60.0785 81.3476H58.653V76.4962C58.653 71.216 58.5909 70.9477 57.4343 71.2375L56.8762 71.3774V76.2474V81.1174L56.3647 81.2456C56.0833 81.3161 55.3086 81.3429 54.6434 81.3052L53.4335 81.2367L53.3742 75.4862C53.3416 72.3234 53.3925 69.6582 53.4873 69.5635C53.9506 69.101 56.2274 68.7207 58.2488 68.7684C60.0339 68.8103 60.505 68.8979 61.0251 69.2837ZM116.743 69.0597C117.641 69.4853 118.077 70.1104 118.417 71.4586C118.728 72.6886 118.499 75.6731 118.061 76.1104C117.874 76.2969 116.916 76.4698 115.526 76.5683C113.354 76.722 113.291 76.7415 113.291 77.263C113.291 78.578 114.773 79.021 116.966 78.3622C117.56 78.1837 118.075 78.0669 118.111 78.1026C118.146 78.138 118.237 78.6188 118.313 79.1705C118.431 80.0284 118.378 80.2413 117.949 80.6407C116.905 81.6117 113.326 81.8359 111.763 81.0285C110.333 80.2903 109.683 78.5221 109.699 75.411C109.715 72.0311 110.693 69.8075 112.51 69.0172C113.452 68.6072 115.838 68.6313 116.743 69.0597ZM127.521 68.9376C127.842 69.1094 127.949 69.4026 127.947 70.1017C127.942 71.3486 127.78 71.5346 126.701 71.5322C126.197 71.5311 125.672 71.5996 125.535 71.6845C125.363 71.7908 125.285 73.2751 125.285 76.4585C125.285 81.7088 125.434 81.3476 123.268 81.3476H121.953V75.4713C121.953 72.2394 121.982 69.595 122.017 69.595C122.053 69.595 122.627 69.399 123.294 69.1595C124.611 68.687 126.833 68.5701 127.521 68.9376ZM156.154 68.9932C156.854 69.3467 157.156 70.1878 156.859 70.9541C156.648 71.4994 156.573 71.5258 155.695 71.3657C154.499 71.1473 153.628 71.4506 153.283 72.2052C152.886 73.0762 152.726 76.4091 153.029 77.5187C153.354 78.709 153.884 79.0017 155.392 78.8248C156.67 78.6747 156.824 78.8042 156.824 80.0295C156.824 80.8467 155.921 81.3512 154.178 81.5075C150.565 81.8312 149.06 79.783 149.339 74.9172C149.533 71.5262 150.186 70.0871 151.931 69.207C153.059 68.6382 155.233 68.528 156.154 68.9932ZM166.375 69.0965C166.875 69.3462 167.336 69.839 167.669 70.482C168.132 71.3783 168.175 71.7034 168.089 73.6769C168.014 75.4094 167.914 75.9319 167.617 76.1483C167.411 76.2993 166.247 76.494 165.031 76.5807C163.315 76.7033 162.821 76.8111 162.821 77.0621C162.821 77.4686 163.253 78.3019 163.576 78.517C163.974 78.7824 165.338 78.7099 166.497 78.3616C167.794 77.9717 167.961 78.1179 167.876 79.5736C167.824 80.4812 167.744 80.6076 166.999 80.9713C165.906 81.5046 163.365 81.7073 162.246 81.3505C160.184 80.6926 159.267 78.9204 159.267 75.5886C159.267 72.1083 160.18 69.9653 162.018 69.1322C163.209 68.5923 165.329 68.5748 166.375 69.0965ZM178.59 69.0965C179.184 69.3924 179.383 69.6418 179.433 70.1494C179.469 70.5153 179.362 71.0005 179.196 71.2275C178.918 71.6061 178.79 71.6176 177.655 71.3639C176.974 71.2118 176.152 71.1537 175.828 71.2348C174.664 71.5264 174.867 71.9841 177.102 74.1096C178.844 75.7662 179.26 76.2885 179.381 76.9681C179.699 78.764 179.037 80.1005 177.403 80.9569C176.069 81.6561 172.698 81.6769 171.777 80.9915C171.026 80.4322 170.907 79.9832 171.275 79.0955C171.494 78.5691 171.648 78.4591 172.017 78.5669C173.146 78.8966 174.815 78.9623 175.143 78.6902C175.929 78.0396 175.563 77.3202 173.392 75.246C171.71 73.6381 171.27 73.0849 171.145 72.4201C170.848 70.8364 171.584 69.5939 173.149 69.0413C174.453 68.5808 177.621 68.6129 178.59 69.0965ZM81.609 71.9788C81.9244 73.6559 82.252 75.427 82.3369 75.9148C82.4666 76.659 82.5761 76.2151 83.017 73.1576C83.3059 71.1532 83.6518 69.3819 83.785 69.2216C84.0682 68.881 87.0826 68.8065 87.0826 69.1402C87.0826 69.5573 83.7195 82.5881 83.3883 83.4542C82.7356 85.1612 81.4971 86.0043 79.6421 86.0043C79.0846 86.0043 78.2817 85.8597 77.8581 85.683C77.1696 85.3958 77.0883 85.2723 77.0912 84.5188C77.0963 83.2435 77.24 83.1358 78.5709 83.4096C79.9024 83.6835 80.2631 83.503 80.6222 82.3832C80.8141 81.7849 80.606 80.7724 79.2236 75.5822C78.3301 72.2283 77.6449 69.3595 77.7004 69.207C77.7688 69.0198 78.3272 68.9298 79.4186 68.9298H81.0356L81.609 71.9788ZM134.469 72.1451C135.043 76.4789 135.106 76.6574 135.319 74.5269C135.419 73.5197 135.626 71.8733 135.779 70.8681L136.057 69.0407L137.778 68.9759C138.725 68.9402 139.5 68.9775 139.5 69.0586C139.5 69.2285 137.149 79.2654 136.816 80.5161L136.595 81.3476H135.054C133.694 81.3476 133.474 81.288 133.181 80.8411C132.732 80.1579 130.288 69.7449 130.467 69.2797C130.585 68.9715 130.892 68.9216 132.333 68.9759L134.058 69.0407L134.469 72.1451ZM145.941 75.0236V81.1174L145.429 81.2456C145.148 81.3161 144.373 81.3429 143.708 81.3052L142.498 81.2367L142.439 75.5305C142.382 70.0623 142.398 69.8057 142.827 69.3771C143.177 69.028 143.568 68.9298 144.608 68.9298H145.941V75.0236ZM69.8348 71.7234C69.3515 72.4596 69.1438 76.5792 69.5198 77.966C69.7475 78.8051 69.8476 78.9084 70.4333 78.9084H71.091V75.0278C71.091 71.3102 71.0726 71.1473 70.6519 71.1473C70.4105 71.1473 70.0426 71.4065 69.8348 71.7234ZM113.854 71.4466C113.567 71.6562 113.413 72.1223 113.34 72.9988L113.236 74.2517H114.128C114.737 74.2517 115.063 74.1402 115.155 73.9009C115.509 72.9815 115.113 71.1473 114.561 71.1473C114.398 71.1473 114.08 71.2821 113.854 71.4466ZM163.539 71.3326C163.203 71.5453 162.821 72.7806 162.821 73.6532C162.821 74.2502 162.862 74.2743 163.765 74.2089L164.709 74.1408L164.776 72.9587C164.864 71.4358 164.38 70.7996 163.539 71.3326ZM45.099 76.3727C44.5844 77.7243 45.0344 79.261 45.8966 79.0964C46.2666 79.0259 46.3353 78.792 46.3915 77.4092C46.4561 75.8164 46.4523 75.8039 45.8862 75.8039C45.4782 75.8039 45.254 75.966 45.099 76.3727Z" fill="#F3E6D4"/>
</svg>
