<svg width="232" height="67" viewBox="0 0 232 67" fill="none" xmlns="http://www.w3.org/2000/svg">
<path fill-rule="evenodd" clip-rule="evenodd" d="M42.8156 15.3568C42.8156 10.1924 46.748 6 51.5921 6H60.3687H69.1453C73.9895 6 77.9219 10.1946 77.9219 15.3617C77.9219 20.5288 73.9895 24.7234 69.1453 24.7234H60.3687V33.5V42.2766V51.6383C60.3687 56.8054 56.4363 61 51.5921 61C46.748 61 42.8156 56.8054 42.8156 51.6383C42.8156 46.4712 46.748 42.2766 51.5921 42.2766C46.748 42.2766 42.8156 38.3462 42.8156 33.5046V33.4954C42.8156 28.6538 46.748 24.7234 51.5921 24.7234C46.748 24.7234 42.8156 20.531 42.8156 15.3666V15.3568ZM60.3687 33.5C60.3687 28.6558 64.5414 24.7234 69.6816 24.7234C74.8217 24.7234 78.9944 28.6558 78.9944 33.5H79.0921C79.0921 38.3442 74.9194 42.2766 69.7793 42.2766C64.6392 42.2766 60.3687 38.3442 60.3687 33.5ZM100.264 21.2129V48.2205H103.738V35.325H112.092V31.9727H103.738V24.5922H114.593V21.2129H100.264ZM120.878 26.7009C122.135 26.7009 123.149 25.6871 123.149 24.43C123.149 23.1729 122.122 22.2943 120.878 22.2943C119.634 22.2943 118.607 23.3081 118.607 24.5652C118.607 25.1735 118.85 25.7412 119.283 26.1873C119.716 26.6333 120.283 26.8631 120.905 26.8631L120.878 26.7009ZM119.121 30.1073V48.2205H122.46V30.1073H119.121ZM135.504 29.5666C130.881 29.5666 127.664 33.6218 127.664 38.1095C127.664 42.5973 130.908 46.6254 135.504 46.6254C136.46 46.6422 137.409 46.4597 138.291 46.0897C139.173 45.7197 139.969 45.1702 140.627 44.4762V46.8823C140.617 48.3279 140.056 49.7154 139.059 50.7617C138.555 51.2759 137.953 51.6842 137.289 51.9627C136.626 52.2413 135.913 52.3844 135.193 52.3838C134.087 52.3489 133.016 51.9918 132.111 51.3565L130.354 54.3708C131.703 55.2387 133.262 55.7266 134.865 55.7831C136.469 55.8396 138.058 55.4627 139.465 54.6919C140.872 53.9212 142.045 52.7853 142.861 51.4037C143.677 50.0222 144.105 48.4462 144.101 46.8417V30.0802H140.627V31.7023C139.969 31.0083 139.173 30.4588 138.291 30.0888C137.409 29.7188 136.46 29.5363 135.504 29.5531V29.5666ZM131.151 38.1095C131.072 37.2307 131.24 36.3473 131.637 35.559C132.033 34.7708 132.642 34.1091 133.395 33.6488C134.936 32.7026 136.869 32.7026 138.396 33.6488C139.924 34.595 140.789 36.3252 140.64 38.1095C140.72 38.9883 140.551 39.8718 140.155 40.66C139.758 41.4483 139.149 42.1099 138.396 42.5702C136.856 43.5164 134.923 43.5164 133.395 42.5702C131.868 41.624 131.003 39.8938 131.151 38.1095ZM156.631 33.108C155.632 33.1115 154.675 33.51 153.969 34.2165C153.262 34.923 152.864 35.8802 152.86 36.8793V48.342H149.386V30.2288H152.86V31.7562C153.914 30.3504 155.591 29.5394 157.348 29.5664C159.565 29.5123 161.633 30.7019 162.728 32.6348C164.079 30.7424 166.026 29.5935 168.135 29.5664C172.095 29.5664 174.555 32.7565 174.569 36.7036V48.2338H171.095V36.7441C171.197 36.0284 171.091 35.2985 170.791 34.6407C170.492 33.9829 170.009 33.4248 169.402 33.0324C168.795 32.64 168.088 32.4296 167.365 32.4262C166.643 32.4229 165.934 32.6266 165.323 33.0133C164.716 33.4093 164.235 33.9714 163.938 34.6328C163.64 35.2942 163.54 36.027 163.647 36.7441V48.2068H160.308V36.7576C160.305 35.7585 159.906 34.8013 159.2 34.0948C158.493 33.3883 157.536 32.9899 156.537 32.9863L156.631 33.108ZM193.128 32.1617C192.337 31.3366 191.386 30.682 190.333 30.238C189.28 29.794 188.148 29.57 187.005 29.5799C181.828 29.5799 178.219 33.9595 178.219 39.042C178.219 44.1246 181.868 48.5042 187.005 48.5042C188.148 48.5141 189.28 48.2901 190.333 47.8461C191.386 47.4021 192.337 46.7475 193.128 45.9224V47.977H196.602V29.8638H193.128V32.1617ZM181.638 39.1907C181.463 37.028 182.517 34.9463 184.369 33.8109C186.221 32.6754 188.424 32.6754 190.398 33.8109C191.301 34.3719 192.034 35.1702 192.516 36.1188C192.997 37.0674 193.209 38.13 193.128 39.1907C193.304 41.3535 192.249 43.4352 190.398 44.5706C188.546 45.7061 186.342 45.7061 184.369 44.5706C183.465 44.0096 182.732 43.2113 182.251 42.2627C181.77 41.3141 181.558 40.2515 181.638 39.1907Z" fill="#333333"/>
</svg>
