<svg width="755" height="198" viewBox="0 0 755 198" fill="none" xmlns="http://www.w3.org/2000/svg">
<g clip-path="url(#clip0_801_13)">
<path d="M106.173 133.2L103.631 93.1763C101.513 59.9294 83.3017 47.2236 63.3959 47.2236C48.7842 47.2236 37.1371 54.2118 31.2077 65.6469V51.8824C31.2077 48.2824 29.09 45.7412 24.643 48.0706L4.1018 58.0235C1.77239 59.0823 0.290039 60.1412 0.290039 61.8353V62.4709C0.290039 67.1294 9.81944 67.3411 9.81944 76.6588V133.412C9.81944 141.671 1.34886 142.518 1.34886 147.177V148.024C1.34886 149.929 3.04298 151.2 5.79592 151.2H38.6195C41.5841 151.2 43.2783 149.929 43.2783 148.024V147.177C43.2783 142.518 34.5959 141.671 34.5959 133.412V83.647C34.5959 68.3997 43.2783 57.3883 56.8312 57.3883C69.7486 57.3883 78.0077 68.1881 79.0664 92.3293L81.1843 133.2C81.6076 141.671 73.5607 142.518 73.5607 147.177V148.024C73.5607 149.929 75.2549 151.2 78.2193 151.2H109.137C111.89 151.2 113.796 149.929 113.796 148.024V147.177C113.796 142.518 106.596 141.671 106.173 133.2Z" fill="#F3E6D4"/>
<path d="M196.361 131.929L192.126 91.2706C189.161 63.9528 172.008 47.2236 145.326 47.2236C122.667 47.2236 106.149 57.6 106.149 70.941C106.149 76.8704 110.173 80.6826 116.526 80.6826C129.867 80.6826 125.632 55.0589 145.326 55.0589C160.149 55.0589 165.232 67.7649 167.561 92.3293L167.984 96.5646C162.267 92.1177 153.797 89.3649 143.42 89.3649C122.032 89.3649 104.667 100.377 104.879 121.13C104.879 141.883 121.396 153.106 144.479 153.106C159.514 153.106 169.043 147.388 173.914 139.553C174.761 149.929 180.055 152.259 190.855 152.259C199.961 152.259 208.008 150.988 208.008 146.965C208.008 141.459 197.844 145.694 196.361 131.929ZM151.467 145.059C138.338 145.059 129.867 132.565 129.867 118.165C129.867 105.459 138.125 97.4117 149.773 97.4117C160.996 97.4117 169.043 105.035 169.89 117.106L170.526 123.671C171.161 135.106 163.326 145.059 151.467 145.059Z" fill="#F3E6D4"/>
<path d="M233.331 153.106C252.389 153.106 263.189 138.917 263.189 124.729C263.189 120.917 258.107 120.283 256.201 123.671C254.931 129.812 250.06 134.682 241.166 134.682C234.178 134.682 229.095 129.176 229.095 119.012V59.7176H255.778C257.895 59.7176 259.589 58.2353 259.589 56.1176V53.153C259.589 51.0353 257.895 49.3411 255.778 49.3411H229.095L228.884 28.8C228.884 25.8353 227.613 24.1411 224.86 24.1411H221.683C219.566 24.1411 217.872 25.8353 217.448 28.8C215.754 41.0823 209.189 49.3411 198.178 49.3411H191.613C189.284 49.3411 188.013 50.8235 188.013 53.153V56.1176C188.013 58.2353 189.495 59.7176 191.613 59.7176H203.683V118.8C203.683 141.671 215.542 153.106 233.331 153.106Z" fill="#F3E6D4"/>
<path d="M272.098 31.7647C282.475 31.7647 289.251 25.2 289.251 15.8824C289.251 6.77649 282.475 0 272.098 0C261.51 0 254.522 6.77649 254.522 15.8824C254.522 25.2 261.51 31.7647 272.098 31.7647ZM256.428 150.988H288.616C291.369 150.988 293.274 149.718 293.274 147.812V146.965C293.274 142.306 284.592 141.459 284.592 133.2V51.6706C284.592 48.2824 281.839 45.7412 276.969 48.0706L255.792 58.6588C253.463 59.9294 251.98 60.7765 251.98 62.4709V63.1057C251.98 66.9178 259.816 69.0352 259.816 77.7175V133.2C259.816 141.459 251.98 142.306 251.98 146.965V147.812C251.98 149.718 253.674 150.988 256.428 150.988Z" fill="#F3E6D4"/>
<path d="M387.224 49.3412H363.718C361.388 49.3412 359.906 50.4 359.906 52.5177V53.153C359.906 57.6 371.765 58.2353 367.318 70.3061L342.541 133.2L316.494 67.3411C313.318 59.0824 321.577 57.1765 321.577 53.153V52.5177C321.577 50.6118 319.883 49.3412 317.977 49.3412H282.612C280.283 49.3412 278.8 50.4001 278.8 52.3059V52.9412C278.8 57.6 284.941 59.5059 288.542 66.9178L326.235 146.329C327.718 149.506 329.2 150.988 332.589 150.988H341.482C344.659 150.988 346.565 149.506 347.624 146.329L379.177 66.9178C382.141 59.0824 391.036 57.6 391.036 52.9412V52.3059C391.036 50.4001 389.553 49.3412 387.224 49.3412Z" fill="#F3E6D4"/>
<path d="M455.696 119.859C451.461 128.329 441.932 135.318 428.591 135.318C413.555 135.318 402.755 126.424 397.461 112.023L448.708 93.1764C455.273 90.8474 459.508 86.3998 459.508 78.353C459.508 63.5296 447.226 47.2236 419.908 47.2236C391.955 47.2236 369.297 69.0352 369.297 99.3175C369.297 132.142 391.108 153.106 419.485 153.106C446.379 153.106 460.567 134.47 462.473 121.977C462.897 117.741 458.026 116.894 455.696 119.859ZM415.673 55.2706C427.955 55.2706 435.791 70.5177 435.791 79.2C435.791 83.4354 434.096 86.3998 430.285 88.0939L395.132 103.341C394.285 99.1058 393.862 94.6589 393.862 89.7881C393.862 69.459 402.332 55.2706 415.673 55.2706Z" fill="#F3E6D4"/>
<path d="M560 47.2236C546.024 47.2236 534.377 53.153 528.447 63.318L528.659 51.6706C528.659 48.0706 526.753 45.7412 521.671 48.2824L502.189 57.8118C499.859 58.8706 498.377 60.353 498.377 62.2587V63.1057C498.377 67.9765 507.483 68.3998 507.483 76.4472V180.212C507.483 188.682 499.435 189.529 499.435 194.189V194.823C499.435 196.941 501.342 198 504.094 198H536.282C539.036 198 540.942 196.941 540.942 194.823V194.189C540.942 189.529 532.259 188.682 532.259 180.212V141.883C539.247 149.082 548.565 153.106 560.212 153.106C586.894 153.106 609.13 130.659 609.13 98.4704C609.13 66.2824 585.412 47.2236 560 47.2236ZM557.248 145.059C544.33 145.059 532.259 130.447 532.259 114.989V75.8118C533.741 63.9528 543.059 55.2706 553.859 55.2706C572.071 55.2706 584.141 76.0234 584.141 106.306C584.141 131.082 573.977 145.059 557.248 145.059Z" fill="#F3E6D4"/>
<path d="M687.499 119.859C683.261 128.329 673.732 135.318 660.392 135.318C645.356 135.318 634.559 126.424 629.263 112.023L680.514 93.1764C687.079 90.8474 691.311 86.3998 691.311 78.353C691.311 63.5296 679.029 47.2236 651.711 47.2236C623.756 47.2236 601.099 69.0352 601.099 99.3175C601.099 132.142 622.908 153.106 651.29 153.106C678.181 153.106 692.369 134.47 694.275 121.977C694.702 117.741 689.826 116.894 687.499 119.859ZM647.479 55.2706C659.761 55.2706 667.594 70.5177 667.594 79.2C667.594 83.4354 665.899 86.3998 662.087 88.0939L626.936 103.341C626.088 99.1058 625.661 94.6589 625.661 89.7881C625.661 69.459 634.132 55.2706 647.479 55.2706Z" fill="#F3E6D4"/>
<path d="M725.014 153.106C744.078 153.106 754.875 138.917 754.875 124.729C754.875 120.917 749.795 120.283 747.889 123.671C746.615 129.812 741.745 134.682 732.854 134.682C725.862 134.682 720.782 129.176 720.782 119.012V59.7176H747.462C749.578 59.7176 751.274 58.2353 751.274 56.1176V53.153C751.274 51.0353 749.578 49.3411 747.462 49.3411H720.782L720.571 28.8C720.571 25.8353 719.297 24.1411 716.543 24.1411H713.369C711.253 24.1411 709.558 25.8353 709.131 28.8C707.442 41.0823 700.877 49.3411 689.863 49.3411H683.298C680.971 49.3411 679.697 50.8235 679.697 53.153V56.1176C679.697 58.2353 681.182 59.7176 683.298 59.7176H695.37V118.8C695.37 141.671 707.225 153.106 725.014 153.106Z" fill="#F3E6D4"/>
</g>
<defs>
<clipPath id="clip0_801_13">
<rect width="755" height="198" fill="white"/>
</clipPath>
</defs>
</svg>
