<svg width="170" height="102" viewBox="0 0 170 102" fill="none" xmlns="http://www.w3.org/2000/svg">
<path fill-rule="evenodd" clip-rule="evenodd" d="M86.3387 0.128093C72.7151 1.79716 65.9003 3.1815 58.3116 5.82107C53.1982 7.59985 53.028 7.67695 33.1532 17.2477C16.4146 25.3078 11.9499 26.8714 3.7139 27.5577C0.431522 27.831 -0.159901 28.0055 0.0325121 28.6426C0.158739 29.0598 0.493453 30.4654 0.776164 31.766C2.69652 40.5881 7.98623 55.2317 12.0435 62.9565C13.5535 65.8316 17.3398 72.3338 20.4581 77.4063C26.934 87.9404 30.8007 94.7832 32.6846 99.044C33.4032 100.67 34.18 102 34.4102 102C34.6405 102 35.7283 101.177 36.8274 100.171C37.9271 99.1646 40.4218 97.2756 42.372 95.9731C47.1563 92.7774 59.6447 86.1073 63.0325 84.9381C81.0438 78.7225 103.784 79.4367 120.141 86.732C130.299 91.2625 136.28 94.4195 138.569 96.4584L140.924 98.5555L142.866 93.7233C144.9 88.6607 147.268 84.0707 153.722 72.6767C160.563 60.5993 162.623 55.9322 165.528 45.9263C168.924 34.2296 169.978 29.86 169.998 27.4002C170.016 25.0699 169.942 24.9119 168.717 24.6807C159.489 22.9364 150.014 19.4129 142.557 14.9524C130.286 7.61215 118.277 3.15832 105.013 1.02766C100.283 0.268088 89.4546 -0.253582 86.3387 0.128093ZM93.6225 2.49146C94.031 2.648 94.5931 3.65918 94.8715 4.738C95.1495 5.81681 95.4956 7.10419 95.6402 7.59843C95.8823 8.42705 95.7041 8.47482 93.3663 8.20287C89.0613 7.70201 88.2945 9.285 92.5158 9.9599C94.7514 10.3179 96.027 11.8579 96.7044 15.0186C97.4571 18.5299 97.4003 18.7597 95.7788 18.7597C94.057 18.7597 91.0663 19.9369 91.0663 20.6147C91.0663 20.9032 92.2075 21.0564 93.8839 20.9935C97.6107 20.854 98.3652 21.544 97.8977 24.6646L97.5611 26.9111L93.7227 26.6075C85.4499 25.952 85.0235 25.8574 84.7091 24.6031C83.9777 21.6883 83.4723 12.8241 83.7636 8.02551C84.0614 3.12332 84.1597 2.71611 85.0939 2.5326C86.7315 2.21194 92.8174 2.18214 93.6225 2.49146ZM82.0862 9.96936C82.0876 13.6334 82.2247 18.6859 82.3911 21.1973L82.6932 25.7633L79.7739 25.9269L76.8546 26.0905L76.3469 24.202C76.068 23.1634 75.937 21.3014 76.0557 20.0637C76.1748 18.8264 76.111 17.8138 75.9148 17.8138C75.2496 17.8138 74.5197 20.7797 74.5197 23.4841V26.1757L72.6636 26.7882C69.8167 27.7284 69.4531 27.3666 69.0635 23.2088C68.6286 18.5672 69.0361 6.08403 69.6422 5.4777C69.8947 5.22514 71.2014 4.8884 72.5468 4.72901L74.9924 4.43909L75.0255 7.2248C75.044 8.7567 75.2212 10.4258 75.4203 10.9337C75.7262 11.716 75.8297 11.6162 76.0959 10.2834C76.2689 9.4179 76.414 7.8316 76.4178 6.75846C76.4292 3.8006 77.0924 3.20609 80.311 3.27136L82.0838 3.3073L82.0862 9.96936ZM105.763 4.34923C109.761 5.76005 111.228 7.69492 113.232 14.1981C114.909 19.6404 114.427 27.5747 112.351 28.6861C110.879 29.4741 107.552 29.2329 103.568 28.0486L99.8123 26.9329L99.4923 19.8901C99.1907 13.2621 98.386 7.89592 97.241 4.88414C96.9654 4.15768 96.7394 3.44588 96.7394 3.3021C96.7394 2.85658 103.882 3.6852 105.763 4.34923ZM67.0515 13.9119C67.2122 22.9719 67.0302 23.4893 63.6883 23.4893C62.1877 23.4893 61.5987 23.2036 60.5643 21.9735C59.4519 20.6511 59.3266 20.1838 59.58 18.3081C59.7398 17.1257 60.3908 15.1019 61.0271 13.8107C61.663 12.5195 62.0936 11.3736 61.984 11.2638C61.8743 11.1541 61.2507 11.4142 60.5978 11.8423C57.8237 13.6608 56.7335 18.7682 58.3896 22.1901C58.9455 23.3398 59.9071 24.5515 60.5255 24.8826C61.6365 25.4776 64.6943 25.3787 66.816 24.6797C67.6855 24.3931 67.9124 24.5525 68.1856 25.6412C68.6759 27.595 67.9266 28.3324 64.0745 29.6855C62.149 30.3618 59.8835 31.2812 59.0401 31.7282C57.0479 32.7848 55.6977 32.3303 54.858 30.3192C53.7976 27.7799 53.0573 20.3711 53.4516 16.2436C53.7513 13.1093 54.0151 12.3058 55.1828 10.9753C55.9407 10.1122 57.3571 9.02676 58.3305 8.56326C59.77 7.87842 65.2153 6.20747 66.5787 6.03248C66.7617 6.0093 66.9744 9.55458 67.0515 13.9119ZM120.856 8.44266C124.993 10.0625 125.626 10.7422 126.459 14.4535C126.699 15.5214 126.842 16.3949 126.777 16.3949C126.711 16.3949 125.216 15.6434 123.454 14.7245C121.692 13.8055 120.123 13.1812 119.967 13.3368C119.812 13.4929 120.637 14.4043 121.802 15.3625C127.101 19.7212 126.993 19.5543 127.316 23.844C127.477 25.9898 127.476 27.7459 127.314 27.7459C127.152 27.7459 126.322 27.3212 125.471 26.8019C123.835 25.8039 122.268 25.5561 122.268 26.2953C122.268 26.538 123.229 27.5241 124.403 28.4861C125.576 29.4481 126.665 30.7482 126.823 31.3749C127.078 32.3922 126.204 36.7321 125.744 36.7321C125.643 36.7321 123.466 35.6807 120.906 34.3952L116.251 32.0588L115.998 23.6354C115.793 16.8244 115.524 14.366 114.595 10.7899L113.445 6.36733L115.23 6.653C116.211 6.81002 118.743 7.61546 120.856 8.44266ZM104.493 10.0081C107.532 12.8255 108.678 19.6068 106.673 22.8981C105.558 24.7275 106.056 24.911 107.619 23.2462C108.993 21.7833 109.445 17.4354 108.555 14.2529C107.976 12.1861 105.008 8.82765 103.76 8.82765C103.463 8.82765 103.793 9.35878 104.493 10.0081ZM51.8234 12.8681C51.6125 14.1877 51.6433 16.8282 51.8919 18.7801C52.1392 20.7197 52.4645 24.4461 52.6148 27.0601C52.8545 31.2278 52.7708 32.0436 51.9354 33.6815C51.4111 34.7092 50.5871 35.8921 50.1044 36.3102C49.2691 37.0343 43.4617 40.5157 43.0896 40.5157C42.918 40.5157 41.4094 36.6346 40.7457 34.4855C40.4483 33.5216 40.5736 33.4214 42.077 33.4214C43.256 33.4214 43.9496 33.1173 44.4724 32.37C45.4496 30.9748 45.4005 30.6219 44.2706 30.9175C41.5248 31.636 39.1421 28.6601 38.1583 23.284C37.2917 18.5502 37.3205 18.4684 40.5991 16.3874C42.2245 15.3559 43.82 14.5102 44.1448 14.5079C44.5334 14.5045 44.7358 15.2542 44.7358 16.6948C44.7358 19.5349 45.582 22.3112 46.7682 23.3635C47.6891 24.1803 47.7028 24.1675 47.3771 22.7799C46.6892 19.8494 46.5469 16.0828 47.0537 14.2014C47.5114 12.5002 47.8607 12.136 49.8208 11.3173C51.0542 10.8022 52.0952 10.4035 52.134 10.4319C52.1728 10.4598 52.0333 11.5561 51.8234 12.8681ZM134.324 14.8768C139.422 17.7504 139.98 18.1931 139.83 19.2421C139.572 21.0351 138.078 23.7248 134.251 29.283C132.325 32.0791 130.973 34.3673 131.247 34.3673C132.186 34.3673 135.93 30.508 138.163 27.2384C139.391 25.4393 140.475 24.0469 140.572 24.1434C140.931 24.5028 139.727 32.378 138.802 35.718C138.275 37.6226 137.3 40.2518 136.638 41.5605L135.432 43.9404L133.932 42.5452C133.107 41.7776 131.303 40.3412 129.923 39.3537C128.116 38.0596 127.497 37.3426 127.709 36.7898C129.721 31.5697 129.938 18.7148 128.12 12.4931C127.987 12.0381 128.052 11.6682 128.264 11.672C128.477 11.6758 131.204 13.1178 134.324 14.8768ZM37.3144 29.187C37.6207 30.358 37.5668 30.3505 35.472 28.9283C34.2258 28.0822 33.1101 27.7492 31.5505 27.7582L29.3711 27.77L32.262 29.1733C37.0066 31.4756 40.4809 35.9507 40.4809 39.7604C40.4809 42.3077 39.785 43.598 36.5542 47.0392C34.9061 48.7948 33.3205 50.6526 33.0302 51.1672C32.6818 51.7858 32.3466 51.9428 32.0422 51.6302C31.3746 50.9449 28.8889 45.8885 27.7987 42.9987C26.7978 40.3469 27.0389 40.0267 29.1347 41.2251C31.5543 42.609 31.4621 41.858 28.9059 39.3612C25.9587 36.4823 24.0388 32.8245 23.636 29.3194C23.419 27.4309 23.567 26.7503 24.4912 25.3811C25.5776 23.7716 26.7803 23.0258 32.6804 20.3044L35.517 18.9962L36.2951 23.6298C36.723 26.178 37.1815 28.679 37.3144 29.187ZM150.618 24.8325C150.594 28.5863 149.586 33.8385 147.539 40.8704C145.748 47.0207 143.997 51.5299 143.209 52.0171C142.802 52.2691 138.13 46.4731 137.575 45.0272C137.438 44.6716 137.962 42.9259 138.738 41.1476C140.412 37.3105 142.124 32.1827 142.124 31.0088C142.124 30.5297 142.902 29.7342 143.94 29.1506C145.808 28.1001 147.325 26.0887 147.325 24.6617C147.325 24.0559 146.819 24.3099 145.316 25.671L143.306 27.4895L143.165 24.2356C142.959 19.5098 142.905 19.5562 147.064 20.9552L150.634 22.156L150.618 24.8325ZM162.308 26.3686L167.181 27.3964V28.959C167.181 34.5361 160.613 55.5926 158.188 57.7876C157.313 58.5803 157.222 58.5557 155.934 57.1761C154.485 55.6243 153.696 53.4662 153.213 49.7374C152.478 44.0577 156.821 35.6045 160.181 36.174C160.651 36.2534 161.035 36.0921 161.035 35.8159C161.035 35.3051 160.141 35.1273 158.435 35.2999C156.001 35.5454 152.369 41.3604 151.799 45.9244C151.417 48.9859 152.283 54.6462 153.548 57.3539C154.046 58.4204 155.065 59.8785 155.811 60.5936C157.023 61.7562 157.109 62.0262 156.619 63.1467C155.599 65.4774 151.989 71.7308 151.665 71.7266C151.488 71.7237 150.845 70.0745 150.236 68.0611C149.628 66.0473 148.268 62.5399 147.215 60.2659C145.507 56.5787 145.329 55.8575 145.563 53.592C145.712 52.1419 146.738 48.913 147.954 46.0644C149.235 43.0659 150.495 39.0491 151.113 35.9947C151.678 33.2 152.433 29.9409 152.791 28.7519C153.514 26.3474 155.117 24.7861 156.517 25.121C157.023 25.2416 159.629 25.803 162.308 26.3686ZM19.914 29.1633C21.0751 30.2545 25.8254 43.4116 25.8254 45.5366C25.8254 46.0867 25.4018 47.0751 24.8841 47.734C24.0582 48.7839 23.7348 48.8842 22.2527 48.5498C19.7461 47.9842 17.0552 45.9074 15.289 43.1751C13.1469 39.8602 12.6491 38.5586 12.9048 36.9359C13.1133 35.6116 13.0897 35.5908 12.3829 36.4677C11.4048 37.6803 11.4478 38.5402 12.6448 41.7411C13.3771 43.6992 14.5065 45.2963 16.8368 47.6696C20.565 51.4665 23.1269 52.7601 27.6729 53.1413L30.9085 53.4127L28.3215 58.7955C26.5042 62.5763 25.2765 66.035 24.1958 70.4203L22.6574 76.6628L20.4425 72.8962C13.2079 60.5936 6.98114 46.2673 3.85052 34.722L2.72819 30.5836L4.467 30.5638C5.4234 30.5524 8.01412 29.9116 10.2243 29.1392C15.0393 27.4564 18.1066 27.464 19.914 29.1633ZM100.223 29.2357C102.758 30.0605 106.356 33.4393 107.812 36.3627C108.704 38.1519 109.031 39.5513 109.031 41.5694C109.031 45.0093 108.186 47.0898 106.134 48.7082L104.54 49.9644L106.06 49.9696C107.094 49.9729 108.119 49.5009 109.267 48.4931C110.195 47.6782 111.048 47.1054 111.164 47.2208C111.486 47.5434 112.321 53.7556 112.331 55.909L112.34 57.8235L108.765 57.4816C106.798 57.2938 101.745 56.9954 97.5365 56.8185C88.8623 56.4543 87.7938 56.0589 85.0618 52.2039C81.2872 46.877 81.8016 42.1403 86.6455 37.6316C87.93 36.4355 89.2911 35.3472 89.6693 35.2134C90.8937 34.7797 89.76 34.2675 88.2907 34.5905C86.0262 35.0881 83.1787 37.4552 81.5988 40.1544C80.2368 42.4808 80.1526 42.8942 80.3148 46.4683C80.4608 49.6996 80.7194 50.7037 81.9808 52.9393L83.4738 55.586L80.7696 55.8977C79.2823 56.0689 75.0085 56.732 71.2718 57.3709C67.5356 58.0099 64.3681 58.4218 64.2334 58.287C64.0981 58.1522 63.7625 56.2207 63.4869 53.9945C62.4284 45.4477 65.6984 31.3981 69.0423 30.1263C73.177 28.5537 76.7218 28.2288 87.5206 28.434C94.4205 28.5651 99.0626 28.8583 100.223 29.2357ZM112.345 32.9503C129.432 39.7604 140.65 49.2432 145.197 60.7209C146.959 65.1685 147.009 66.0095 145.333 62.9811C142.572 57.9943 140.665 55.5169 136.137 51.039C131.177 46.133 128.921 45.0433 133.2 49.6201C137.146 53.8412 140.768 59.0111 143.222 63.927C145.201 67.8885 147.058 72.6323 146.749 72.9335C146.676 73.0059 144.914 72.0023 142.834 70.704C137.197 67.1857 126.387 62.0395 121.559 60.5761C119.219 59.8667 117.221 59.2188 117.12 59.136C117.018 59.0532 118.005 57.9687 119.312 56.7267C124.095 52.1816 125.39 46.1467 122.381 42.4283C121.585 41.446 121.559 41.5373 121.551 45.3399C121.541 49.9701 120.677 52.001 117.209 55.5358L115.008 57.7786L114.398 53.049C113.286 44.4166 111.087 37.7967 107.603 32.5937C107.038 31.7485 106.804 31.0566 107.084 31.0566C107.365 31.0566 109.732 31.9088 112.345 32.9503ZM62.6217 33.3627C63.1361 33.6891 63.0699 34.3521 62.2619 36.97C60.2801 43.3884 60.0192 53.2103 61.7117 57.6637C61.9755 58.3589 62.0402 59.0187 61.8554 59.1298C61.3552 59.4302 55.1048 61.3258 54.6141 61.3258C54.3815 61.3258 54.191 60.4461 54.191 59.3706C54.191 55.0023 51.5364 50.5764 48.2697 49.4981C45.6681 48.6392 45.3702 49.176 47.509 50.8706C50.3474 53.1195 52.0111 56.1899 52.0404 59.232C52.0702 62.4055 51.2282 63.3458 47.1629 64.6771C42.6831 66.1438 31.4016 72.995 27.1737 76.8165C26.1582 77.734 25.242 78.399 25.137 78.2945C25.0325 78.1895 25.2491 76.5167 25.6188 74.5761C28.0724 61.6937 34.9151 51.0295 43.9756 45.9679C46.5795 44.5136 48.393 43.9011 52.4375 43.1108C53.1632 42.9689 53.6293 42.6464 53.4733 42.3938C52.7982 41.3013 46.2269 42.4227 43.3175 44.1263C42.6675 44.507 43.3374 43.6907 44.8057 42.3125C47.9302 39.3801 52.9916 36.2492 57.7022 34.3342C61.3736 32.8415 61.6989 32.7772 62.6217 33.3627ZM87.0757 59.1587C87.922 59.7768 88.0052 60.57 88.147 69.3272L88.3006 78.8252H85.726H83.1513L82.8336 75.8692C82.0777 68.8382 80.3625 67.7958 80.8055 74.6371C81.0736 78.7755 81.0641 78.8252 79.9848 78.8252C79.3844 78.8252 78.2592 78.9519 77.4853 79.1066L76.0779 79.3884L75.7611 76.2953C75.5867 74.5941 74.8407 70.2159 74.1032 66.5666C73.3657 62.9168 72.874 59.8189 73.0106 59.6823C73.1472 59.5456 74.6052 59.4339 76.2509 59.4339H79.2435L80.0358 62.2849C80.9941 65.7333 81.7742 65.3828 81.5392 61.6096C81.4475 60.1273 81.5832 58.8721 81.8475 58.7609C82.9622 58.2932 86.2318 58.542 87.0757 59.1587ZM101.992 59.608C103.645 60.3992 103.708 60.5255 103.994 63.5974C104.336 67.276 103.73 73.2495 102.653 76.8151C101.938 79.1818 101.827 79.2981 100.283 79.2981H98.6621L99.6502 77.6234C100.995 75.3423 100.683 71.9422 98.9141 69.6224C98.2116 68.7011 97.4192 67.9472 97.154 67.9472C96.8883 67.9472 97.1063 68.501 97.6381 69.1773C99.5807 71.6485 99.3878 74.7686 97.1124 77.6622C96.3144 78.6771 95.8199 78.8252 93.2277 78.8252H90.2574L90.004 75.3962C89.6863 71.1004 90.1808 67.7797 91.3774 66.1769C92.6283 64.5003 95.4516 63.1055 97.7138 63.0459C99.905 62.9887 100.153 62.4736 98.1974 62.0437C96.347 61.6375 93.3114 62.5077 91.6232 63.9285L90.2465 65.0877L89.9473 62.9045C89.4442 59.2353 89.5029 59.0414 91.1845 58.8035C94.3955 58.3495 100.279 58.7874 101.992 59.608ZM109.305 60.3799C110.628 60.3799 113.655 63.7052 114.719 66.3287C115.438 68.1018 115.938 68.7942 116.263 68.4693C116.587 68.1449 116.407 66.9681 115.706 64.8323C115.136 63.0961 114.758 61.5878 114.865 61.4809C115.096 61.2492 120.923 63.1854 121.459 63.6721C121.664 63.858 121.092 66.3325 120.188 69.1707C119.284 72.0094 118.189 75.9283 117.753 77.8792C116.664 82.7531 116.4 83.1877 114.932 82.5185C113.994 82.0914 113.759 81.6369 113.759 80.2549C113.759 77.3505 112.789 73.0702 111.598 70.7192C110.414 68.3823 109.192 67.1152 109.665 68.7157C111.029 73.3308 111.637 77.21 111.461 80.1783C111.403 81.1672 111.219 81.2656 109.859 81.0372C109.014 80.8953 107.392 80.6361 106.256 80.4606L104.189 80.1414L104.498 77.9464C104.668 76.7389 105.232 72.5585 105.752 68.6566C106.873 60.2484 106.999 59.7518 107.931 60.1093C108.318 60.2578 108.937 60.3799 109.305 60.3799ZM71.1754 62.8629C73.0376 72.0231 73.0773 72.4038 72.2391 73.0721C71.1669 73.9267 66.8855 73.485 65.3202 72.358C63.6826 71.1793 63.4117 69.7931 64.3057 67.1691C64.7212 65.948 64.9822 64.8696 64.8858 64.7727C64.7888 64.6757 64.1511 65.2603 63.4684 66.0714C61.2947 68.6561 62.0922 73.2674 64.9704 74.7563C66.9801 75.7959 69.48 76.1179 71.408 75.5854C73.3501 75.0491 73.4772 75.173 73.6853 77.8083C73.8091 79.3724 73.7656 79.4093 70.2648 80.7364C65.254 82.6358 63.91 82.5672 61.7551 80.3008C58.6486 77.0341 56.2253 68.8444 57.2072 64.9306C57.81 62.5271 62.6799 60.6986 69.1676 60.4399C70.6137 60.3822 70.6898 60.474 71.1754 62.8629ZM51.3615 69.4843C51.3667 72.4838 51.5128 73.6359 51.8272 73.1497C52.0792 72.7595 52.2985 71.8018 52.3141 71.0214C52.3297 70.241 52.6096 68.9768 52.9358 68.212C53.5192 66.8438 53.5669 66.9194 55.9317 72.9416C58.7919 80.226 59.1034 81.1899 58.5957 81.1895C58.3834 81.1895 57.0663 80.7548 55.6688 80.2237C54.2718 79.6921 53.0464 79.3397 52.9462 79.44C52.8455 79.5403 53.9357 80.5581 55.3682 81.7017C56.8011 82.8453 57.9731 83.9137 57.9731 84.0759C57.9731 84.4325 48.8838 89.2813 48.6516 89.0486C48.5614 88.9587 48.7339 87.3946 49.0346 85.5738C49.4317 83.1659 49.4397 82.019 49.0639 81.3715C48.6171 80.6025 48.5448 80.707 48.532 82.1358C48.516 83.9236 46.9942 88.3983 46.3266 88.6205C46.1016 88.6957 44.802 86.7883 43.438 84.3824C42.0746 81.976 40.2119 78.6975 39.299 77.096L37.6396 74.185L40.0644 75.1063C41.3981 75.6133 42.579 75.9382 42.6887 75.828C42.7984 75.7183 41.9744 74.9266 40.8573 74.0686C39.7401 73.2102 38.6556 72.3646 38.4466 72.1891C37.8557 71.692 49.2001 65.1922 50.7635 65.1321C51.1946 65.1156 51.3563 66.2913 51.3615 69.4843ZM131.487 66.997C135.999 69.0893 136.178 69.2984 135.477 71.64C135.151 72.7306 134.731 73.6226 134.546 73.6226C134.36 73.6226 133.191 73.1729 131.949 72.6233C130.006 71.7634 129.44 71.6986 127.896 72.1617C124.418 73.2041 122.952 77.2417 125.187 79.6226C126.581 81.1067 127.819 81.1403 126.787 79.6656C124.281 76.0867 128.786 72.531 132 75.5518C133.536 76.9962 133.372 77.9412 130.544 83.9146C128.46 88.3145 128.401 88.3845 127.354 87.704C126.767 87.3228 125.176 86.6436 123.819 86.1952C121.433 85.4068 118.959 83.2459 118.959 81.95C118.959 79.142 121.764 68.8784 123.022 67.0812C124.592 64.8394 126.788 64.8176 131.487 66.997ZM140.785 71.7147C144.297 73.4126 148.262 76.213 148.266 76.9991C148.268 77.4257 147.888 78.2467 147.421 78.8237L146.572 79.8732L144.712 78.6109C142.445 77.0719 142.138 77.6361 143.747 80.3826C145.974 84.1852 145.078 86.5131 141.898 85.184C140.922 84.7759 139.792 84.5687 139.387 84.7243C138.808 84.9466 139.082 85.4461 140.663 87.0579L142.675 89.1086L141.397 91.6522C140.694 93.0517 140.051 94.2728 139.967 94.366C139.884 94.4597 139.206 94.1016 138.46 93.571C137.715 93.0403 135.576 91.8381 133.706 90.8988C131.836 89.96 130.305 89.0992 130.305 88.9857C130.305 88.8726 131.716 85.6357 133.44 81.7925C135.164 77.9492 136.965 73.9007 137.442 72.795C137.919 71.6892 138.433 70.7849 138.585 70.7849C138.737 70.7849 139.727 71.2035 140.785 71.7147ZM36.4507 75.3229C37.1518 77.0014 37.1395 77.0497 35.5118 79.037C32.9513 82.1633 33.295 83.1475 36.0899 80.6924C36.9939 79.8983 37.9436 79.3189 38.2003 79.4045C38.4575 79.4906 39.2215 80.5368 39.8985 81.7305L41.1291 83.9004L39.6229 85.9488C38.7946 87.0759 38.1171 88.5297 38.1171 89.1801C38.1171 90.2745 38.223 90.2182 39.5406 88.4262C41.6009 85.6234 42.0765 85.613 43.8191 88.3292C44.6502 89.6251 45.2497 90.7503 45.1513 90.8302C43.8952 91.8504 36.2663 97.2704 36.0862 97.2704C35.9528 97.2704 35.1543 96.0464 34.3119 94.5509C33.4699 93.0555 31.186 89.3929 29.2368 86.4128L25.693 80.9941L28.3863 78.486C30.4532 76.5616 34.4774 73.8714 35.629 73.6449C35.6905 73.6326 36.0602 74.3879 36.4507 75.3229Z" fill="#F3E6D4"/>
</svg>
