<svg width="232" height="67" viewBox="0 0 232 67" fill="none" xmlns="http://www.w3.org/2000/svg">
<path fill-rule="evenodd" clip-rule="evenodd" d="M78.5645 14.9261C78.6551 15.0121 78.7149 15.1263 78.7346 15.2507L78.7362 15.2539C78.738 15.2714 78.7578 15.4123 78.7937 15.6632L84.9363 57.8257L84.9292 57.8272L84.9299 57.8322L67.3804 61.6716L35 55.5213L39.3194 21.7142C39.5273 20.1936 39.5865 20.1563 41.1585 19.6484L46.2823 18.0532C47.3857 13.3115 50.8815 4.03246 58.2122 4C59.1478 4 60.2512 4.54687 61.1547 5.7315H61.4234C64.5706 5.7315 66.3585 8.45126 67.3692 11.4144C68.4071 11.072 69.0435 10.8692 69.0755 10.8692C69.3088 10.8033 69.8966 10.7124 70.222 10.9672C70.2492 10.9879 70.2749 11.011 70.2989 11.0363L73.646 14.4328C73.646 14.4328 78.0358 14.7411 78.2357 14.7736L78.2373 14.772C78.2592 14.7754 78.2808 14.7801 78.3018 14.7859C78.3998 14.8077 78.4907 14.8559 78.5645 14.9261ZM63.861 12.5216C64.4695 12.3369 65.0479 12.1613 65.5733 11.9857C64.9048 9.84684 63.8014 7.97741 62.1606 7.72101C62.6324 9.17502 62.8611 10.6972 62.8291 12.2258V12.8376C63.1796 12.7285 63.5249 12.6236 63.861 12.5216ZM60.9165 13.0956C60.9836 11.4031 60.7198 9.7154 60.184 8.11372L60.1808 8.13157C58.4057 8.91213 56.3636 10.9877 55.2553 15.1858L60.9165 13.4007V13.0956ZM58.9463 6.35302C58.6696 6.16153 58.345 6.05605 58.0091 6.04794L58.0059 6.0382C52.7494 6.0382 49.8021 13.0388 48.5387 17.3197L53.0165 15.9274C54.0879 10.2866 56.5843 7.46948 58.9463 6.35302ZM59.2438 31.1505L61.4219 24.627L61.4267 24.6253C61.4267 24.6253 59.9858 23.7782 56.9713 23.7328C49.3016 23.7328 45.4859 28.9662 45.4859 34.3376C45.4859 37.9209 47.4675 39.5471 49.2073 40.9748C50.5686 42.092 51.7819 43.0877 51.7819 44.8045C51.785 45.1057 51.7277 45.4045 51.6135 45.6825C51.4993 45.9606 51.3305 46.2123 51.1176 46.4221C50.9046 46.632 50.6518 46.7958 50.3745 46.9035C50.0973 47.0112 49.8014 47.0607 49.5047 47.0488C47.0228 47.0488 44.1122 44.501 44.1122 44.501L42.6346 49.4992C42.6346 49.4992 45.4811 52.9995 51.0399 52.9995C55.6616 52.9995 59.111 49.4651 59.111 43.9606C59.111 39.7212 56.2989 37.6301 54.0806 35.9806C52.6358 34.9062 51.4429 34.0192 51.4429 32.8479C51.4429 32.3027 51.6076 30.1282 55.0251 30.1282C56.4868 30.1557 57.9276 30.5014 59.2438 31.1505Z" fill="#333333"/>
<path d="M98.2672 32.2672C98.2672 33.0737 98.9149 33.6628 100.167 34.3443L100.185 34.3281C102.115 35.4754 103.727 36.9878 103.703 39.1591C103.703 43.1706 100.504 45.3905 96.0587 45.3905C93.0059 45.3905 91.178 44.1475 91.178 44.1475L92.403 40.5871C92.403 40.5871 94.3748 41.6841 96.4649 41.6841C97.8834 41.6841 98.6286 40.9068 98.6286 39.9753C98.6286 39.0439 98.0961 38.4532 96.5816 37.5607C94.7074 36.4637 93.3129 34.9253 93.3129 32.926C93.3129 29.3916 96.3194 26.8763 100.647 26.8763C103.749 26.8763 104.808 27.7072 104.808 27.7072L103.653 31.2676C102.68 30.8397 101.635 30.6077 100.575 30.5844C99.1467 30.5844 98.2672 31.2448 98.2672 32.2672Z" fill="#333333"/>
<path d="M112.666 29.5263C113.99 27.9052 115.721 26.8552 117.908 26.8552L117.91 26.8942C120.482 26.8942 121.948 28.6013 121.972 31.4315C121.948 32.5252 121.825 33.6173 121.612 34.6932L119.664 45.079H114.712L116.586 35.0275C116.728 34.2956 116.802 33.554 116.802 32.8076C116.802 31.709 116.367 30.9527 115.263 30.9527C113.685 30.9527 111.995 33.0039 111.345 36.3209L109.687 45.1033H104.734L109.543 19.4148H114.493L112.593 29.502L112.666 29.5263Z" fill="#333333"/>
<path fill-rule="evenodd" clip-rule="evenodd" d="M123.243 38.3769C123.243 32.3207 127.187 26.8552 133.149 26.8552H133.157C137.791 26.8552 139.881 30.2712 139.881 33.8818C139.881 40.0841 135.92 45.4035 130.072 45.4035C125.623 45.4035 123.243 42.2813 123.243 38.3769ZM128.314 38.3039C128.314 40.1052 129.034 41.5657 130.718 41.5657H130.721C133.344 41.5657 134.809 36.8353 134.815 33.7439C134.815 32.2542 134.23 30.7174 132.475 30.7174C129.776 30.7174 128.314 35.4251 128.314 38.3039Z" fill="#333333"/>
<path fill-rule="evenodd" clip-rule="evenodd" d="M147.305 29.8217C147.305 29.8217 149.189 26.8552 152.547 26.8552L152.544 26.8699C156.155 26.8699 157.64 29.8931 157.616 33.2603C157.616 39.3749 153.818 45.4246 148 45.4246C146.097 45.4246 145.09 44.7658 145.09 44.7658H144.994L143.622 52.2078H138.691L142.13 33.8121L143.137 27.1506H147.524L147.231 29.8217H147.305ZM145.763 40.9052C146.335 41.3931 147.063 41.6538 147.81 41.6387L147.816 41.6403C150.583 41.6403 152.478 37.0057 152.47 33.7325C152.47 32.3889 152.014 30.9738 150.5 30.9738C148.77 30.9738 147.167 33.0721 146.582 36.1959L145.763 40.9052Z" fill="#333333"/>
<path d="M162.694 20.481C163.226 19.9341 163.955 19.6291 164.714 19.6339H164.737C166.254 19.6339 167.216 20.6887 167.216 22.1492C167.225 22.5372 167.156 22.9229 167.012 23.2826C166.869 23.6423 166.654 23.9683 166.381 24.2405C166.109 24.5127 165.784 24.7253 165.427 24.8652C165.071 25.0052 164.689 25.0694 164.307 25.054H164.234C162.833 25.054 161.894 24.0219 161.894 22.5387C161.865 21.7695 162.161 21.0279 162.694 20.481Z" fill="#333333"/>
<path d="M162.748 45.0546H157.795L161.143 27.2528H166.113L162.748 45.0546Z" fill="#333333"/>
<path d="M178.658 27.2285H178.734L178.658 27.2236L178.658 27.2285Z" fill="#333333"/>
<path d="M175.275 27.2285H178.658L177.987 31.0047H174.571L171.939 45.0579H166.968L169.601 31.0047H167.293L168.016 27.2236H170.323L170.483 26.3928C170.883 24.2686 171.678 22.1687 173.362 20.7082C174.731 19.5777 176.454 18.9808 178.219 19.0254C180.032 19.0254 180.912 19.4635 180.912 19.4635L179.955 23.3955C179.441 23.2343 178.906 23.1523 178.367 23.1521C176.743 23.1521 175.737 24.6889 175.444 26.3976L175.275 27.2285Z" fill="#333333"/>
<path d="M186.163 39.4999L190.66 27.2528L190.659 27.2431H195.819L189.762 40.4167C187.619 44.9313 185.529 48.2482 183.269 50.3968C181.901 51.7031 180.236 52.6449 178.422 53.1376L177.05 48.8698C178.04 48.5322 178.978 48.0551 179.839 47.4547C180.961 46.6774 181.884 45.6404 182.532 44.4282C182.665 44.1733 182.699 43.8767 182.628 43.5974L179.645 27.2528H184.865L186.09 39.4999H186.163Z" fill="#333333"/>
</svg>
