<svg width="256" height="67" viewBox="0 0 256 67" fill="none" xmlns="http://www.w3.org/2000/svg">
<g clip-path="url(#clip0_303_5361)">
<path d="M91.8572 32.9611C91.8572 27.8635 88.1858 23.5022 82.6503 23.5022C77.1149 23.5022 73.3305 27.9201 73.3305 32.9611C73.3305 37.9455 77.0019 42.3068 82.5374 42.3068C84.8532 42.3068 86.6607 41.6271 88.2987 40.3244L90.7276 42.5333L92.0832 41.0041L89.6544 39.0217C91.0665 37.3224 91.8572 35.1701 91.8572 32.9611ZM88.1858 37.6623L84.8532 34.6603L83.4976 36.1896L86.8302 39.0783C85.7005 39.8713 84.2884 40.4377 82.7068 40.4377C78.5835 40.4377 75.5898 37.0959 75.5898 32.9045C75.5898 28.7697 78.5835 25.3713 82.7068 25.3713C86.8302 25.3713 89.8238 28.7131 89.8238 32.9045C89.8238 34.7736 89.259 36.4162 88.1858 37.6623ZM109.028 34.3205C109.028 38.2287 106.938 40.3244 103.493 40.3244C100.047 40.3244 97.9575 38.1154 97.9575 34.2072V23.6721H95.8676V34.3205C95.8676 39.5314 98.9742 42.1935 103.493 42.1935C108.012 42.1935 111.118 39.4181 111.118 34.0939V23.6721H109.028V34.3205ZM231.881 40.4377C227.871 40.4377 224.877 37.0959 224.877 32.9045C224.877 28.7697 227.871 25.3713 231.881 25.3713C234.31 25.3713 236.005 26.3908 237.643 27.9201L238.998 26.3908C237.134 24.635 235.214 23.5022 231.881 23.5022C226.572 23.5022 222.674 27.7502 222.674 32.9611C222.674 38.172 226.572 42.3068 231.768 42.3068C235.101 42.3068 237.191 41.0607 239.055 39.0783L237.699 37.8322C236.061 39.4181 234.423 40.4377 231.881 40.4377ZM244.816 40.0978V33.7541H254.701V31.885H244.816V25.6545H255.887V23.7854H242.726V42.0802H256V40.0978H244.816ZM195.336 23.842H188.558V42.0802H190.648V35.6232H195.054C198.951 35.6232 202.171 33.5275 202.171 29.6193C202.171 25.9943 199.516 23.842 195.336 23.842ZM200.081 29.7326C200.081 32.1682 198.104 33.7541 195.11 33.7541H190.591V25.7678H195.223C198.104 25.6545 200.081 27.0705 200.081 29.7326ZM64.1236 31.885C60.1132 31.092 59.153 30.0158 59.153 28.3166C59.153 26.674 60.678 25.4279 63.0504 25.4279C64.9143 25.4279 66.6089 25.9943 68.3599 27.4104L69.4895 25.7678C67.6256 24.2385 65.8181 23.5588 63.1633 23.5588C59.7178 23.5588 57.176 25.6545 57.176 28.5432C57.176 31.5451 59.153 32.9611 63.2763 33.8674C67.0607 34.6603 68.021 35.6232 68.021 37.3224C68.021 39.1916 66.3829 40.4377 64.0106 40.4377C61.4688 40.4377 59.6048 39.6447 57.7973 37.8888L56.5547 39.4181C58.7576 41.4005 61.0734 42.3068 63.9541 42.3068C67.5126 42.3068 70.1674 40.2111 70.1674 37.0959C69.9979 34.2072 68.1339 32.8478 64.1236 31.885ZM156.644 33.7541H166.529V31.885H156.644V25.6545H167.715V23.7854H154.555V42.0802H167.828V40.0978H156.644V33.7541ZM178.56 31.885C174.55 31.092 173.59 30.0158 173.59 28.3166C173.59 26.674 175.115 25.4279 177.487 25.4279C179.351 25.4279 181.046 25.9943 182.797 27.4104L183.926 25.7678C182.062 24.2385 180.255 23.5588 177.6 23.5588C174.155 23.5588 171.613 25.6545 171.613 28.5432C171.613 31.5451 173.59 32.9611 177.713 33.8674C181.497 34.6603 182.458 35.6232 182.458 37.3224C182.458 39.1916 180.82 40.4377 178.447 40.4377C175.906 40.4377 174.042 39.6447 172.234 37.8888L170.991 39.4181C173.194 41.4005 175.51 42.3068 178.391 42.3068C181.949 42.3068 184.604 40.2111 184.604 37.0959C184.435 34.2072 182.571 32.8478 178.56 31.885ZM122.076 23.7287L113.773 42.0802H115.863L118.066 37.2091H127.951L130.04 42.0802H132.243L123.94 23.7287H122.076ZM118.857 35.3967L122.98 26.1643L127.103 35.3967H118.857ZM210.813 23.7287L202.51 42.0802H204.599L206.802 37.2091H216.687L218.777 42.0802H220.98L212.677 23.7287H210.813ZM207.593 35.3967L211.716 26.1643L215.84 35.3967H207.593ZM150.205 29.2795C150.205 27.7502 149.64 26.5041 148.85 25.5979C147.72 24.465 145.969 23.7287 143.653 23.7287H135.802V41.9669H137.892V34.9435H143.088L148.398 41.9669H150.94L145.404 34.5471C148.115 33.9807 150.205 32.2814 150.205 29.2795ZM137.835 33.0744V25.6545H143.484C146.364 25.6545 148.115 27.0139 148.115 29.2228C148.115 31.5451 146.138 32.9045 143.371 32.9045H137.835V33.0744ZM7.07463 35.1701C7.86541 35.9631 9.27751 35.9631 10.1813 35.1701L23.9069 21.4065C25.6579 19.6506 28.3126 19.6506 30.0072 21.4065C30.7979 22.1994 32.2101 22.1994 33.1138 21.4065C33.9046 20.6135 33.9046 19.1975 33.1138 18.2912C29.7812 14.9495 24.2458 14.9495 20.9132 18.2912L7.07463 31.9982C6.17089 32.9611 6.17089 34.2072 7.07463 35.1701ZM28.3691 25.8811C29.1599 25.0881 29.1599 23.6721 28.3691 22.7658C27.5784 21.9729 26.1663 21.9729 25.2625 22.7658L11.5934 36.6427C9.84235 38.3986 7.1876 38.3986 5.49307 36.6427C3.74207 34.8869 3.74207 32.2248 5.49307 30.5256L18.9928 16.9885C17.2418 15.2327 14.587 15.2327 12.8925 16.9885L2.49942 27.4104C-0.83314 30.7521 -0.83314 36.3029 2.49942 39.6447C5.83198 42.9865 11.3674 42.9865 14.7 39.6447L28.3691 25.8811ZM30.0072 27.4104L16.1686 41.2873C15.3778 42.0802 15.3778 43.4962 16.1686 44.4025C16.9593 45.1955 18.3714 45.1955 19.2752 44.4025L33.0008 30.6389C34.7518 28.883 37.4066 28.883 39.1011 30.6389C40.7956 32.3947 40.8521 35.0568 39.1011 36.756L25.6014 50.1798C27.3524 51.9357 30.0072 51.9357 31.7017 50.1798L42.2077 39.6447C45.5403 36.3029 45.5403 30.7521 42.2077 27.4104C38.7622 24.0686 33.3397 24.0686 30.0072 27.4104ZM37.6325 31.9982C36.8418 31.2053 35.4296 31.2053 34.5259 31.9982L20.8003 45.8751C19.0493 47.631 16.3945 47.631 14.7 45.8751C13.9092 45.0822 12.4971 45.0822 11.5934 45.8751C10.8026 46.6681 10.8026 48.0841 11.5934 48.9904C14.9259 52.3322 20.4614 52.3322 23.7939 48.9904L37.5196 35.2267C38.4233 34.2072 38.4233 32.9611 37.6325 31.9982Z" fill="#333333"/>
</g>
<defs>
<clipPath id="clip0_303_5361">
<rect width="256" height="66.5347" fill="white"/>
</clipPath>
</defs>
</svg>
