<svg width="1566" height="235" viewBox="0 0 1566 235" fill="none" xmlns="http://www.w3.org/2000/svg">
<path fill-rule="evenodd" clip-rule="evenodd" d="M60.2819 0.445239C27.0946 0.445239 0.444758 27.0948 0.444758 60.2804V80.3408C0.444758 113.197 27.0701 140.18 60.2819 140.18H222.006C229.557 140.18 235.623 146.247 235.623 153.797V173.861C235.623 181.411 229.557 187.478 222.006 187.478H14.2947H7.85164V193.921V227.254V233.697H14.2947H222.006C254.908 233.697 281.534 207.022 281.534 173.861V153.797C281.534 120.968 254.932 93.961 222.006 93.961H60.2819C52.7287 93.961 46.6627 87.8948 46.6627 80.3408V60.2804C46.6627 52.5995 52.8542 46.3556 60.2819 46.3556H267.992H274.435V39.9126V6.88832V0.445239H267.992H60.2819Z" fill="#F3E6D4"/>
<path fill-rule="evenodd" clip-rule="evenodd" d="M312.103 0.445239H305.66V6.88832V173.86C305.66 207.046 332.31 233.696 365.497 233.696H527.22C560.125 233.696 586.749 207.021 586.749 173.86V6.88832V0.445239H580.306H547.283H540.84V6.88832V173.86C540.84 181.409 534.772 187.478 527.22 187.478H365.497C357.943 187.478 351.879 181.411 351.879 173.86V6.88832V0.445239H345.436H312.103Z" fill="#F3E6D4"/>
<path fill-rule="evenodd" clip-rule="evenodd" d="M638.547 0.444758C621.769 0.444758 608.031 14.0766 608.031 30.6534V227.253V233.696H614.474H647.806H654.249V227.253V50.8546L814.633 220.162C821.697 228.267 833.275 233.696 844.095 233.696H858.909C875.848 233.696 889.12 219.902 889.12 203.18V6.88784V0.444758H882.677H849.65H843.207V6.88784V183.298L682.516 13.976C675.451 5.87256 663.875 0.444758 653.051 0.444758H638.547Z" fill="#F3E6D4"/>
<path d="M919.689 6.88782H953.022V227.253H919.689V6.88782Z" fill="#F3E6D4" stroke="#F3E6D4" stroke-width="12.8862" stroke-miterlimit="10"/>
<path fill-rule="evenodd" clip-rule="evenodd" d="M1046.29 0.445239C1013.11 0.445239 986.454 27.0945 986.454 60.2809V173.86C986.454 207.046 1013.11 233.696 1046.29 233.696H1254H1260.44V227.253V193.921V187.478H1254H1046.29C1038.74 187.478 1032.67 181.409 1032.67 173.86V60.2809C1032.67 52.601 1038.87 46.3561 1046.29 46.3561H1254H1260.44V39.9131V6.88832V0.445239H1254H1046.29Z" fill="#F3E6D4"/>
<path fill-rule="evenodd" clip-rule="evenodd" d="M1344.4 0.445239C1311.22 0.445239 1284.57 27.0958 1284.57 60.2809V173.86C1284.57 207.046 1311.22 233.696 1344.4 233.696H1506.13C1539.04 233.696 1565.66 207.022 1565.66 173.86V60.2809C1565.66 27.1199 1539.04 0.445239 1506.13 0.445239H1344.4ZM1330.79 60.2809C1330.79 52.599 1336.98 46.3561 1344.4 46.3561H1506.13C1513.56 46.3561 1519.75 52.6 1519.75 60.2809V173.86C1519.75 181.411 1513.69 187.478 1506.13 187.478H1344.4C1336.85 187.478 1330.79 181.412 1330.79 173.86V60.2809Z" fill="#F3E6D4"/>
</svg>
