<svg width="1312" height="214" viewBox="0 0 1312 214" fill="none" xmlns="http://www.w3.org/2000/svg">
<path d="M138.873 54.7442V214H70.2132V54.7442H0V0H208.776V54.7442H138.873Z" fill="#333333"/>
<path d="M240.054 0H427.083V51.3227H308.714V80.8721H427.083V130.017H308.714V162.677H427.083V214H240.054V0Z" fill="#333333"/>
<path d="M464.264 0H532.924V159.256H642.593V214H464.264V0Z" fill="#333333"/>
<path d="M671.484 0H740.144V159.256H849.813V214H671.484V0Z" fill="#333333"/>
<path d="M878.704 0H1063.56V51.3227H947.364V80.8721H1063.56V130.017H947.364V162.677H1063.56V214H878.704V0Z" fill="#333333"/>
<path d="M1305.79 65.6308C1305.79 78.6948 1302.27 90.5145 1295.22 101.09C1288.18 111.666 1277.93 119.442 1264.47 124.419L1312 214H1234.95L1197.05 135.927H1171.57V214H1102.91V0H1233.71C1249.04 0 1262.08 3.00678 1272.85 9.02034C1283.83 14.8265 1292.01 22.8101 1297.4 32.9709C1302.99 42.9244 1305.79 53.811 1305.79 65.6308ZM1235.88 68.4302C1235.88 62.8314 1234.02 58.1657 1230.29 54.4331C1226.56 50.7006 1222.01 48.8343 1216.62 48.8343H1171.57V88.3372H1216.62C1222.01 88.3372 1226.56 86.4709 1230.29 82.7384C1234.02 78.7985 1235.88 74.0291 1235.88 68.4302Z" fill="#333333"/>
</svg>
