<svg width="232" height="67" viewBox="0 0 232 67" fill="none" xmlns="http://www.w3.org/2000/svg">
<path d="M85.1533 28.5971C85.1533 25.3876 82.0657 21.9788 76.7226 21.9788C70.7226 21.9788 64.1314 26.4279 63.1241 35.304C62.0949 44.2686 67.6131 48.2528 73.1752 48.2528C78.7372 48.2528 81.6496 46.0615 84.6277 43.1397C82.0657 39.8859 78.7591 41.391 78.1241 41.7231C77.4234 42.0772 76.5255 42.5642 74.6861 42.5642C72.5401 42.5642 70.3504 41.5903 70.3504 37.5396C84.1022 36.1672 85.1533 31.8067 85.1533 28.5971ZM78.3431 29.1284C78.2555 30.1244 77.8613 31.8288 70.8978 32.7806C72.365 27.5125 75.1679 27.1141 76.4599 27.1141C77.6642 27.1141 78.4307 28.0659 78.3431 29.1284ZM55.0438 29.9916C55.0438 29.9916 52.0876 39.3768 51.8467 40.1515C51.7591 39.3546 49.5912 22.5101 49.5912 22.5101C44.5547 22.5101 41.8613 26.1402 40.438 29.9695C40.438 29.9695 36.8467 39.3768 36.5401 40.1736C36.5182 39.4432 35.9927 30.0802 35.9927 30.0802C35.6861 25.3876 31.438 22.5322 28 22.5322L32.1606 48.0536C37.438 48.0315 40.2847 44.4235 41.7737 40.5942C41.7737 40.5942 44.9489 32.2937 45.0803 31.9174C45.1022 32.2715 47.3577 48.0536 47.3577 48.0536C52.6569 48.0536 55.5037 44.667 57.0365 40.9705L64.4599 22.5322C59.2263 22.5322 56.4672 26.1402 55.0438 29.9916ZM104.599 21.9346C101.336 21.9346 98.8394 23.7275 96.7372 26.3615V26.3394L98.6204 11C94.2847 11 90.7591 14.8072 90.0803 20.4737L86.7956 47.8544C89.292 47.8544 91.9416 47.124 93.365 45.2646C94.635 46.9247 96.5401 48.2528 99.365 48.2528C106.679 48.2528 111.693 39.6645 111.693 31.6075C111.65 24.2587 108.124 21.9346 104.599 21.9346ZM103.92 35.1048C103.153 39.5981 100.679 42.6527 98.292 42.6527C95.8832 42.6527 94.854 41.5681 94.854 41.5681C95.3139 37.6281 95.5985 35.2154 96.4745 33.1348C97.3504 31.0541 99.4307 27.7339 101.599 27.7339C103.723 27.7339 104.686 30.5893 103.92 35.1048ZM129.956 22.5322H124.854L124.876 22.2666C125.226 18.9021 126.015 17.1313 128.62 16.8436C130.394 16.6665 131.182 15.7368 131.38 14.7186C131.533 13.9218 132.015 11.1549 132.015 11.1549C121.766 11.0885 118.547 15.5598 117.715 22.3773L117.693 22.5322H117.584C115.92 22.5322 114.08 24.4358 113.774 26.8485L113.664 27.7339H117.08L114.212 51.6837L113.336 55.9779C113.445 55.9779 113.577 56 113.686 56C118.482 55.8229 121.547 51.9936 122.226 46.4378L124.46 27.7339H126.058C127.635 27.7339 129.474 26.1402 129.803 23.484L129.956 22.5322ZM156.496 22.0895C150.606 22.0895 145.044 26.4722 143.336 33.3561C141.628 40.24 144.212 48.3856 152.883 48.3856C161.533 48.3856 166.526 39.908 166.526 32.847C166.526 25.8303 161.818 22.0895 156.496 22.0895ZM158.883 34.8834C158.577 38.0044 157.219 42.7413 153.496 42.7413C149.752 42.7413 150.277 37.2076 150.65 34.5735C151.044 31.7624 152.599 27.756 155.949 27.756C158.949 27.756 159.234 31.364 158.883 34.8834ZM195.628 29.9916C195.628 29.9916 192.672 39.3768 192.431 40.1515C192.343 39.3546 190.175 22.5101 190.175 22.5101C185.139 22.5101 182.445 26.1402 181.022 29.9695C181.022 29.9695 177.431 39.3768 177.124 40.1736C177.102 39.4432 176.577 30.0802 176.577 30.0802C176.27 25.3876 172.022 22.5322 168.584 22.5322L172.723 48.0536C178 48.0315 180.847 44.4235 182.336 40.5942C182.336 40.5942 185.511 32.2937 185.62 31.9174C185.664 32.2715 187.898 48.0536 187.898 48.0536C193.197 48.0536 196.044 44.667 197.577 40.9705L205 22.5322C199.788 22.5322 197.029 26.1402 195.628 29.9916ZM134.774 11.1549L130.482 46.15L129.606 50.4663C129.715 50.4663 129.847 50.4884 129.956 50.4884C134.577 50.422 137.861 46.3271 138.474 41.1697L140.949 21.0935C141.693 14.9621 138.08 11.1549 134.774 11.1549Z" fill="#333333"/>
</svg>
