<svg width="232" height="67" viewBox="0 0 232 67" fill="none" xmlns="http://www.w3.org/2000/svg">
<path fill-rule="evenodd" clip-rule="evenodd" d="M15 33.0851C15 20.3559 25.2807 10 37.9165 10C50.552 10 60.8338 20.3559 60.8342 33.0851C60.8342 45.8159 50.552 56.1714 37.9165 56.1714C25.2807 56.1714 15 45.8159 15 33.0851ZM16.0508 33.0851C16.0508 45.2314 25.8601 55.1133 37.9165 55.1133C49.9726 55.1133 59.7812 45.2314 59.7812 33.0851C59.7812 20.9396 49.9726 11.0585 37.9165 11.0585C25.8597 11.0585 16.0508 20.9396 16.0508 33.0851ZM51.188 32.0858C51.188 29.6382 50.3152 27.9432 49.5667 26.6239C49.4896 26.4977 49.4129 26.373 49.337 26.2496L49.3369 26.2494C48.4312 24.7772 47.6361 23.4848 47.6361 21.9797C47.6361 20.1592 49.0067 18.4645 50.9373 18.4645C50.9936 18.4645 51.0479 18.4691 51.1022 18.4736C51.1321 18.4761 51.1619 18.4786 51.1921 18.4804C47.6945 15.2524 43.0346 13.2815 37.9166 13.2815C31.0486 13.2815 25.0061 16.8313 21.491 22.2081C21.9522 22.222 22.3869 22.2318 22.7561 22.2318C24.8124 22.2318 27.9954 21.9804 27.9954 21.9804C29.0551 21.9175 29.1801 23.4855 28.1214 23.6118C28.1214 23.6118 27.0564 23.738 25.8714 23.8006L33.0304 45.2521L37.3326 32.2538L34.2697 23.7998C33.2111 23.7373 32.2082 23.611 32.2082 23.611C31.1488 23.5485 31.273 21.9168 32.3324 21.9797C32.3324 21.9797 35.579 22.231 37.5107 22.231C39.5666 22.231 42.75 21.9797 42.75 21.9797C43.8105 21.9168 43.935 23.4848 42.876 23.611C42.876 23.611 41.8088 23.7373 40.626 23.7998L47.7304 45.089L49.6913 38.4879L49.8462 37.9894L49.8462 37.9894C50.6186 35.5068 51.188 33.6765 51.188 32.0858ZM152.234 43.0757V42.1807C149.258 42.1807 148.725 41.4202 148.725 36.9441V34.7521H151.257C155.832 34.7521 158.365 32.3358 158.365 29.2479C158.365 26.0701 155.832 23.6982 151.257 23.6982H142.062V24.5936C145.038 24.5936 145.571 25.3092 145.571 29.7849V36.9445C145.571 41.4202 145.038 42.1807 142.062 42.1807V43.0757H152.234ZM148.725 25.3092H151.257C153.745 25.3092 154.9 27.1 154.9 29.2479C154.9 31.3511 153.745 33.0962 151.257 33.0962H148.725V25.3092ZM85.914 27.9944L82.8489 37.1241L78.4512 23.6985H77.607L73.1203 37.1241L70.1442 27.9944C69.2109 25.2202 69.922 24.5939 72.5431 24.5939V23.6985H62.6814V24.5939C65.258 24.5939 65.9688 25.265 67.0349 28.5318L71.9655 43.8364H72.5431L77.1626 29.8293L81.6941 43.8364H82.2713L87.3359 28.5318C88.4465 25.265 89.1127 24.5939 91.9112 24.5939V23.6985H83.56V24.5939C86.4029 24.5939 86.8028 25.3543 85.914 27.9944ZM124.205 28.1738H132.156C138.509 28.1738 141.263 31.53 141.263 35.6021C141.263 39.675 138.508 43.0756 132.156 43.0756H119.229L114.298 36.8558H113.543V38.4664C113.543 41.6436 113.943 42.2254 116.431 42.2254V43.0756H107.591V42.2254C110.078 42.2254 110.478 41.6436 110.478 38.4664V32.7381C110.478 29.5606 110.078 29.0236 107.591 29.0236V28.1738H115.409C119.318 28.1738 121.406 30.0535 121.406 32.5143C121.406 34.4836 119.94 36.2284 117.186 36.7213L119.229 38.9586C121.006 40.9276 122.295 41.9571 124.205 42.2254C126.692 42.2254 127.092 41.6436 127.092 38.4664V32.7381C127.092 29.5606 126.692 29.0236 124.205 29.0236V28.1738ZM113.544 29.5165V35.4675V35.4679H115.365C117.364 35.4679 118.252 34.0812 118.252 32.5146C118.252 30.9036 117.364 29.5165 115.365 29.5165H113.544ZM131.979 41.6884H132.29C136.909 41.6884 137.753 38.2871 137.753 35.5576C137.753 32.9171 136.91 29.5165 132.29 29.5165H130.158V39.2273C130.158 41.2859 130.38 41.6884 131.979 41.6884ZM97.9516 43.6571C93.0655 43.6571 89.0674 40.0326 89.0674 35.6018C89.0674 31.2165 93.0659 27.5913 97.9516 27.5913C102.838 27.5913 106.836 31.2165 106.836 35.6018C106.836 40.0326 102.838 43.6571 97.9516 43.6571ZM97.9516 28.9796C93.8653 28.9796 92.4434 32.6933 92.4434 35.6021C92.4434 38.5562 93.8653 42.2255 97.9516 42.2255C102.083 42.2255 103.505 38.5562 103.505 35.6021C103.505 32.6933 102.083 28.9796 97.9516 28.9796ZM188.882 38.8696L188.66 39.6746C188.26 41.1514 187.771 41.6884 184.617 41.6884H183.995C181.686 41.6884 181.286 41.1514 181.286 37.9743V35.916C184.751 35.916 185.018 36.2288 185.018 38.5561H185.861V31.888H185.018C185.018 34.2149 184.751 34.5281 181.286 34.5281V29.5165H183.728C186.883 29.5165 187.371 30.0535 187.771 31.5303L187.994 32.3801H188.704L188.394 28.1738H175.333V29.0236C177.82 29.0236 178.221 29.5606 178.221 32.7381V38.4664C178.221 41.373 177.881 42.1052 175.92 42.2096C174.056 41.9228 172.776 40.8985 171.025 38.9586L168.981 36.7213C171.736 36.2284 173.202 34.4836 173.202 32.5143C173.202 30.0535 171.114 28.1738 167.205 28.1738H159.387V29.0236C161.874 29.0236 162.274 29.5606 162.274 32.7381V38.4664C162.274 41.6436 161.874 42.2254 159.387 42.2254V43.0756H168.227V42.2254C165.74 42.2254 165.339 41.6436 165.339 38.4664V36.8558H166.095L171.025 43.0756H189.282L189.549 38.8696H188.882ZM165.339 35.4675V29.5165H167.16C169.159 29.5165 170.048 30.9036 170.048 32.5146C170.048 34.0812 169.159 35.4679 167.16 35.4679H165.339V35.4675ZM193.901 42.1353C194.568 42.7175 196.123 43.6569 197.899 43.6569C200.876 43.6569 203.319 41.6883 203.319 38.8696C203.319 37.5273 202.475 35.8707 200.342 34.8416L197.9 33.6334C195.767 32.6487 194.834 32.0224 194.834 30.8591C194.834 29.7399 195.99 29.0239 197.234 29.0239C199.588 29.0239 200.742 30.7691 201.054 32.8726H201.987V27.5916H201.143C201.009 28.1289 200.787 28.6215 200.565 28.8005C199.809 28.1741 198.566 27.6372 197.1 27.6372C194.346 27.6372 192.347 29.4716 192.347 31.6196C192.347 33.5882 193.679 35.065 195.456 35.9159L197.988 37.1241C199.81 37.9742 200.831 38.8696 200.831 40.0329C200.831 41.3752 199.676 42.1805 198.255 42.1805C195.634 42.1805 193.591 40.4354 193.235 37.4821H192.347V43.6569H193.191C193.28 43.0306 193.679 42.3595 193.901 42.1353ZM211.581 43.6569C209.804 43.6569 208.249 42.7175 207.583 42.1353C207.361 42.3595 206.961 43.0306 206.873 43.6569H206.028V37.4821H206.917C207.272 40.4354 209.315 42.1805 211.937 42.1805C213.358 42.1805 214.513 41.3752 214.513 40.0329C214.513 38.8696 213.492 37.9742 211.67 37.1241L209.138 35.9159C207.361 35.065 206.028 33.5882 206.028 31.6196C206.028 29.4716 208.027 27.6372 210.781 27.6372C212.247 27.6372 213.491 28.1741 214.246 28.8005C214.468 28.6215 214.691 28.1289 214.823 27.5916H215.668V32.8726H214.735C214.424 30.7691 213.269 29.0239 210.915 29.0239C209.671 29.0239 208.516 29.7399 208.516 30.8591C208.516 32.0224 209.449 32.6487 211.581 33.6334L214.024 34.8416C216.157 35.8707 217 37.5273 217 38.8696C217 41.6883 214.557 43.6569 211.581 43.6569ZM29.337 50.9089C22.7795 47.6987 18.2573 40.9242 18.2573 33.0852C18.2573 30.2141 18.8686 27.4884 19.9594 25.0254L29.337 50.9089ZM32.363 52.0838L38.2614 34.8174L44.305 51.4951C44.3443 51.5931 44.3921 51.6832 44.4449 51.768C42.4013 52.4919 40.2059 52.8906 37.9165 52.8906C35.9867 52.8906 34.1242 52.6053 32.363 52.0838ZM55.1665 23.5835C55.251 24.2143 55.2989 24.8915 55.2989 25.6199C55.2989 27.6296 54.9263 29.8888 53.8041 32.7135L47.7991 50.2038C53.6436 46.7704 57.5748 40.3916 57.5748 33.0855C57.5751 29.6423 56.702 26.4045 55.1665 23.5835Z" fill="#333333"/>
</svg>
